<svg xmlns="http://www.w3.org/2000/svg" xmlns:xlink="http://www.w3.org/1999/xlink" width="44" height="44" viewBox="0 0 44 44">
    <defs>
        <path id="a" d="M10.265 0h10.347A2.39 2.39 0 0 1 23 2.394v14.612a2.39 2.39 0 0 1-2.388 2.394H10.265a2.39 2.39 0 0 1-2.388-2.394v-3.31a.797.797 0 1 1 1.592 0v3.31c0 .44.357.798.796.798h10.347c.44 0 .796-.357.796-.798V2.394a.797.797 0 0 0-.796-.798H10.265a.797.797 0 0 0-.796.798V6.01a.797.797 0 1 1-1.592 0V2.394A2.39 2.39 0 0 1 10.265 0zM.06 10.055a.8.8 0 0 1 .172-.869L4.02 5.563a.794.794 0 0 1 1.106 0 .8.8 0 0 1 .02 1.129l-2.429 2.26h9.446a.797.797 0 0 1 0 1.596H2.716l2.409 1.872a.8.8 0 0 1 0 1.148.795.795 0 0 1-1.126-.02L.233 10.315a.79.79 0 0 1-.173-.26z"/>
    </defs>
    <g fill="none" fill-rule="evenodd" transform="translate(11 12)">
        <mask id="b" fill="#fff">
            <use xlink:href="#a"/>
        </mask>
        <use fill="#FFF" xlink:href="#a"/>
        <g fill="#FFE4A9" mask="url(#b)">
            <path d="M-11-12h44v44h-44z"/>
        </g>
    </g>
</svg>
