<svg xmlns="http://www.w3.org/2000/svg" width="44" height="44" viewBox="0 0 44 44">
    <defs>
        <linearGradient id="a" x1="0%" x2="39.17%" y1="0%" y2="123.326%">
            <stop offset="0%" stop-color="#C68531"/>
            <stop offset="100%" stop-color="#8B572A"/>
        </linearGradient>
        <linearGradient id="b" x1="100%" x2="14.516%" y1="0%" y2="100%">
            <stop offset="0%" stop-color="#FBD249"/>
            <stop offset="100%" stop-color="#F5A623"/>
        </linearGradient>
    </defs>
    <g fill="none" fill-rule="evenodd" transform="translate(8 11)">
        <path fill="url(#a)" d="M27.823 3.014V18.89a3.014 3.014 0 0 1-3.014 3.013H4.66a3.014 3.014 0 0 1-3.013-3.013V3.014A3.014 3.014 0 0 1 4.66 0h20.15a3.014 3.014 0 0 1 3.013 3.014z"/>
        <path fill="url(#b)" d="M27.994 3.014V18.89a3.014 3.014 0 0 1-3.013 3.013H7.296a3.014 3.014 0 0 1-3.014-3.013V3.014A3.014 3.014 0 0 1 7.296 0H24.98a3.014 3.014 0 0 1 3.013 3.014z"/>
        <path fill="#8B572A" d="M10.378 7.086H1.919A1.92 1.92 0 0 0 0 9.006v3.919c0 1.06.86 1.919 1.919 1.919h8.459c1.06 0 1.919-.86 1.919-1.92V9.006c0-1.06-.86-1.919-1.92-1.919z"/>
        <circle cx="8.12" cy="10.92" r="1.96" fill="#2A2B31"/>
    </g>
</svg>
