<svg xmlns="http://www.w3.org/2000/svg" width="44" height="44" viewBox="0 0 44 44">
    <path fill="#FFE4A9" fill-rule="evenodd" d="M30.475 21.296a.96.96 0 0 1 .68.254.946.946 0 0 1 .305.668 9.42 9.42 0 0 1-2.548 6.784A9.385 9.385 0 0 1 22.01 32a9.394 9.394 0 0 1-7.672-3.942l-.466 1.737a.955.955 0 0 1-1.165.675.955.955 0 0 1-.673-1.169l1.072-4.011a.955.955 0 0 1 1.167-.674l4.004 1.075c.507.137.808.66.674 1.167a.958.958 0 0 1-1.167.675l-1.832-.492a7.485 7.485 0 0 0 6.311 3.048 7.501 7.501 0 0 0 5.26-2.39 7.526 7.526 0 0 0 2.034-5.418.954.954 0 0 1 .92-.985zm.773-6.683c.512.11.841.617.73 1.132l-.868 4.062a.952.952 0 0 1-1.13.732l-4.053-.87a.955.955 0 0 1-.317-1.733.935.935 0 0 1 .716-.132l1.795.385a7.572 7.572 0 0 0-6.224-3.282c-4.162 0-7.547 3.392-7.547 7.563a.952.952 0 0 1-1.904 0c0-5.222 4.24-9.47 9.451-9.47a9.483 9.483 0 0 1 7.83 4.165l.39-1.82a.952.952 0 0 1 1.13-.733z"/>
</svg>
