<svg xmlns="http://www.w3.org/2000/svg" xmlns:xlink="http://www.w3.org/1999/xlink" width="44" height="44" viewBox="0 0 44 44">
    <defs>
        <linearGradient id="b" x1="56.546%" x2="35.586%" y1="0%" y2="100%">
            <stop offset="0%" stop-color="#FBD249"/>
            <stop offset="100%" stop-color="#F5A623"/>
        </linearGradient>
        <path id="a" d="M23.61 11.69l2.594 5.26c.18.364.528.618.934.676l5.8.844c1.016.147 1.422 1.396.686 2.11l-4.197 4.095c-.291.283-.424.693-.356 1.096l.99 5.779c.174 1.012-.887 1.783-1.796 1.305l-5.189-2.728a1.24 1.24 0 0 0-1.152 0l-5.19 2.728c-.908.478-1.97-.293-1.796-1.305l.991-5.779a1.238 1.238 0 0 0-.356-1.096l-4.198-4.094c-.735-.717-.328-1.966.687-2.111l5.802-.844a1.24 1.24 0 0 0 .932-.677l2.593-5.258c.455-.921 1.767-.921 2.22 0z"/>
        <path id="c" d="M22.878 16.377l1.415 2.868c.098.2.288.337.51.37l3.163.46c.555.08.776.761.375 1.15l-2.29 2.234a.678.678 0 0 0-.194.598l.54 3.152a.675.675 0 0 1-.98.712l-2.83-1.488a.676.676 0 0 0-.629 0l-2.83 1.488a.675.675 0 0 1-.98-.712l.54-3.152a.675.675 0 0 0-.194-.598l-2.29-2.233a.675.675 0 0 1 .375-1.152l3.165-.46c.22-.032.41-.17.509-.369l1.414-2.868a.675.675 0 0 1 1.211 0z"/>
    </defs>
    <g fill="none" fill-rule="evenodd">
        <use fill="url(#b)" stroke="#FFC558" xlink:href="#a"/>
        <use fill="#2A2721" xlink:href="#c"/>
    </g>
</svg>
