<svg xmlns="http://www.w3.org/2000/svg" width="44" height="44" viewBox="0 0 44 44">
    <defs>
        <linearGradient id="a" x1="56.546%" x2="35.586%" y1="0%" y2="100%">
            <stop offset="0%" stop-color="#FBD249"/>
            <stop offset="100%" stop-color="#F5A623"/>
        </linearGradient>
    </defs>
    <g fill="none" fill-rule="evenodd">
        <path fill="url(#a)" stroke="#FFC558" d="M11.043 0C4.997 0 0 4.911 0 10.957 0 17.003 4.997 22 11.043 22 17.089 22 22 17.003 22 10.957 22 4.911 17.089 0 11.043 0" transform="translate(11 11)"/>
        <path fill="#2A2721" d="M22.043 13.578c-4.615 0-8.465 3.764-8.465 8.379s3.85 8.465 8.465 8.465 8.379-3.85 8.379-8.465-3.764-8.379-8.379-8.379"/>
        <path fill="url(#a)" d="M12.977 13.621a.638.638 0 0 1-.645.645h-.645v-2.664h.645c.361 0 .645.283.645.644v1.375zm-2.579-3.309h-.73a.638.638 0 0 1-.645-.644v-1.29c0-.36.284-.644.645-.644h.73v2.579zm1.934 0h-.645V7.735h.645c.361 0 .645.284.645.645 0 .85 1.289.85 1.289 0a1.93 1.93 0 0 0-1.934-1.934h-.645v-.644c0-.426-.322-.645-.644-.645s-.645.22-.645.645v.644h-.73A1.93 1.93 0 0 0 7.734 8.38v1.289a1.93 1.93 0 0 0 1.934 1.934h.73v2.664h-.73a.638.638 0 0 1-.645-.645c0-.85-1.289-.85-1.289 0a1.93 1.93 0 0 0 1.934 1.934h.73v.644c0 .426.323.645.645.645s.645-.22.645-.645v-.644h.644a1.93 1.93 0 0 0 1.934-1.934v-1.375a1.93 1.93 0 0 0-1.934-1.934z" transform="translate(11 11)"/>
    </g>
</svg>
