<svg xmlns="http://www.w3.org/2000/svg" xmlns:xlink="http://www.w3.org/1999/xlink" width="44" height="44" viewBox="0 0 44 44">
    <defs>
        <path id="a" d="M18.318 4.667a.682.682 0 0 1-.682-.682V1.917a.467.467 0 0 0-.454-.48H2a.467.467 0 0 0-.455.48V20c0 .265.204.48.455.48h15.182a.467.467 0 0 0 .454-.48V8.223a.682.682 0 1 1 1.364 0V20c0 1.059-.814 1.917-1.818 1.917H2C.996 21.917.182 21.059.182 20V1.917C.182.858.996 0 2 0h15.182C18.186 0 19 .858 19 1.917v2.068a.682.682 0 0 1-.682.682zm-13.636 5.5c-.377 0-.682-.336-.682-.75 0-.415.305-.75.682-.75h10.227c.377 0 .682.335.682.75 0 .414-.305.75-.682.75H4.682zm0-4c-.377 0-.682-.336-.682-.75 0-.415.305-.75.682-.75h5.283c.377 0 .682.335.682.75 0 .414-.305.75-.682.75H4.682zm0 8c-.377 0-.682-.336-.682-.75 0-.415.305-.75.682-.75h10.227c.377 0 .682.335.682.75 0 .414-.305.75-.682.75H4.682zm0 4c-.377 0-.682-.336-.682-.75 0-.415.305-.75.682-.75h10.227c.377 0 .682.335.682.75 0 .414-.305.75-.682.75H4.682z"/>
    </defs>
    <g fill="none" fill-rule="evenodd" transform="translate(13 11)">
        <mask id="b" fill="#fff">
            <use xlink:href="#a"/>
        </mask>
        <use fill="#FFF" fill-rule="nonzero" xlink:href="#a"/>
        <g fill="#FFE4A9" mask="url(#b)">
            <path d="M-13-11h44v44h-44z"/>
        </g>
    </g>
</svg>
