<svg xmlns="http://www.w3.org/2000/svg" xmlns:xlink="http://www.w3.org/1999/xlink" width="314" height="297" viewBox="0 0 314 297">
  <defs>
    <filter id="lg-a" width="188.4%" height="196%" x="-44%" y="-48%" filterUnits="objectBoundingBox">
      <feOffset in="SourceAlpha" result="shadowOffsetOuter1"/>
      <feGaussianBlur in="shadowOffsetOuter1" result="shadowBlurOuter1" stdDeviation="25"/>
      <feColorMatrix in="shadowBlurOuter1" result="shadowMatrixOuter1" values="0 0 0 0 0   0 0 0 0 0   0 0 0 0 0  0 0 0 0.400868663 0"/>
      <feMerge>
        <feMergeNode in="shadowMatrixOuter1"/>
        <feMergeNode in="SourceGraphic"/>
      </feMerge>
    </filter>
    <polygon id="lg-b" points=".43 .643 33.195 .643 33.195 40.945 .43 40.945"/>
    <polygon id="lg-d" points=".53 .749 27.937 .749 27.937 39.432 .53 39.432"/>
  </defs>
  <g fill="none" fill-rule="evenodd" transform="translate(9 49)">
    <rect width="300" height="200"/>
    <g filter="url(#lg-a)" transform="translate(41)">
      <polygon fill="#AB0064" points="117.031 45.087 117.031 67.638 139.574 67.638 139.574 112.725 162.117 112.725 162.117 45.087"/>
      <polygon fill="#FF8C00" points="94.479 112.724 117.031 112.724 117.031 90.181 94.479 90.181"/>
      <polygon fill="#6E2696" points="139.574 22.544 162.117 22.544 162.117 .001 139.574 .001"/>
      <polygon fill="#FF2528" points="49.392 0 49.392 112.724 94.479 112.724 94.479 90.182 71.936 90.182 71.936 22.544 94.479 22.544 94.479 67.638 117.03 67.638 117.03 0"/>
      <polygon fill="#FFF" points="0 159.836 0 198.519 25.845 198.519 25.845 191.039 8.708 191.039 8.708 159.836"/>
      <g transform="translate(35.433 158.3)">
        <mask id="lg-c" fill="#fff">
          <use xlink:href="#lg-b"/>
        </mask>
        <path fill="#FFF" d="M20.9714961,8.23480315 C16.9148031,8.23480315 13.9840945,9.3607874 12.1793701,11.6119685 C10.3738583,13.863937 9.47228346,16.9426772 9.47228346,20.8497638 C9.47228346,22.748189 9.69590551,24.4694488 10.1423622,26.0135433 C10.5880315,27.5584252 11.2588976,28.8875591 12.151811,30.0040945 C13.0455118,31.1206299 14.1612598,31.9859843 15.5014173,32.6001575 C16.8407874,33.2143307 18.4029921,33.5214173 20.1896063,33.5214173 C21.1565354,33.5214173 21.9848819,33.5025197 22.6738583,33.4655118 C23.3620472,33.4285039 23.9667717,33.3537008 24.4880315,33.2418898 L24.4880315,19.7891339 L33.1951181,19.7891339 L33.1951181,38.9355906 C32.1533858,39.3458268 30.4785827,39.7820472 28.1722835,40.2474016 C25.8644094,40.7127559 23.0179528,40.9450394 19.6313386,40.9450394 C16.7289764,40.9450394 14.0959055,40.4985827 11.7337008,39.6056693 C9.36992126,38.7127559 7.35102362,37.4103937 5.67622047,35.6977953 C4.00220472,33.9867717 2.70850394,31.8844094 1.79669291,29.3907087 C0.88488189,26.8977953 0.42976378,24.0505512 0.42976378,20.8497638 C0.42976378,17.6127559 0.932125984,14.7474016 1.93685039,12.2537008 C2.9415748,9.7607874 4.31795276,7.64897638 6.06677165,5.91826772 C7.81637795,4.18755906 9.87149606,2.87574803 12.2352756,1.98283465 C14.5982677,1.08992126 17.1195276,0.643464567 19.7990551,0.643464567 C21.6218898,0.643464567 23.2683465,0.764724409 24.7392126,1.00645669 C26.2085039,1.24818898 27.4746457,1.52771654 28.5344882,1.84346457 C29.5951181,2.16 30.4699213,2.48519685 31.1588976,2.82062992 C31.8470866,3.15527559 32.34,3.41590551 32.6368504,3.60173228 L30.1258268,10.579685 C28.9337008,9.94661417 27.5667717,9.39858268 26.0226772,8.93244094 C24.4785827,8.46787402 22.7935433,8.23480315 20.9714961,8.23480315" mask="url(#lg-c)"/>
        <path fill="#FFF" d="M65.5811811 10.3001575C65.3866929 10.8615748 65.1024409 11.6269291 64.7284252 12.5930709 64.353622 13.5607874 63.9276378 14.6781102 63.4504724 15.9450394 62.9725197 17.2119685 62.437874 18.6072441 61.8473228 20.1316535 61.2567717 21.6552756 60.6567717 23.2529134 60.0473228 24.9245669L71.1095276 24.9245669C70.5174016 23.2474016 69.9433858 21.644252 69.3890551 20.1166929 68.8347244 18.5883465 68.306378 17.1899213 67.8079528 15.9222047 67.3079528 14.6552756 66.8701575 13.5387402 66.4929921 12.571811 66.1166142 11.6064567 65.8118898 10.8497638 65.5811811 10.3001575L65.5811811 10.3001575zM76.0425984 40.2198425C75.6118898 38.875748 75.149685 37.4946457 74.6544094 36.0781102 74.1591339 34.6615748 73.6654331 33.2505512 73.1748819 31.8466142L58.0662205 31.8466142C57.5780315 33.2576378 57.0874803 34.671811 56.5977165 36.0899213 56.106378 37.5080315 55.649685 38.8851969 55.2268504 40.2198425L46.1835433 40.2198425C47.6394488 36.052126 49.0205512 32.2001575 50.3268504 28.6647244 51.6331496 25.1292913 52.910315 21.7993701 54.1614961 18.6733858 55.4126772 15.5474016 56.6433858 12.5804724 57.8567717 9.77023622 59.0701575 6.9607874 60.3307874 4.21590551 61.6370866 1.53637795L69.8914173 1.53637795C71.1622835 4.21590551 72.4150394 6.9607874 73.6488976 9.77023622 74.8827559 12.5804724 76.126063 15.5474016 77.3780315 18.6733858 78.6307874 21.7993701 79.9111024 25.1292913 81.2189764 28.6647244 82.5268504 32.2001575 83.910315 36.052126 85.3693701 40.2198425L76.0425984 40.2198425zM108.621417 1.53645669C109.293858 2.76480315 110.067087 4.28133858 110.944252 6.08527559 111.82063 7.8907874 112.735591 9.84511811 113.686772 11.9466929 114.63874 14.0498425 115.580472 16.1986614 116.512756 18.393937 117.445827 20.59 118.322205 22.6553543 119.143465 24.59 119.963937 22.6553543 120.841102 20.59 121.774173 18.393937 122.707244 16.1986614 123.648976 14.0498425 124.600157 11.9466929 125.551339 9.84511811 126.465512 7.8907874 127.342677 6.08527559 128.219843 4.28133858 128.993858 2.76480315 129.666299 1.53645669L137.592283 1.53645669C137.963937 4.10417323 138.308031 6.97897638 138.624567 10.1608661 138.940315 13.3419685 139.219055 16.6545669 139.462362 20.0962992 139.704094 23.5388189 139.926929 26.99 140.132441 30.4514173 140.335591 33.9120472 140.513543 37.1687402 140.662362 40.2191339L132.177323 40.2191339C132.065512 36.4608661 131.916693 32.3679528 131.731654 27.9388189 131.544252 23.5112598 131.265512 19.0451181 130.893858 14.5427559 130.221417 16.1049606 129.474173 17.8356693 128.653701 19.7333071 127.832441 21.6317323 127.02063 23.5293701 126.218268 25.4270079 125.415906 27.3246457 124.641102 29.1396063 123.893858 30.8695276 123.147402 32.6002362 122.513543 34.0797638 121.990709 35.3073228L115.906457 35.3073228C115.382835 34.0797638 114.748976 32.6002362 114.00252 30.8695276 113.256063 29.1396063 112.479685 27.3246457 111.67811 25.4270079 110.874961 23.5293701 110.06315 21.6317323 109.242677 19.7333071 108.421417 17.8356693 107.674961 16.1049606 107.00252 14.5427559 106.630866 19.0451181 106.351339 23.5112598 106.165512 27.9388189 105.979685 32.3679528 105.830866 36.4608661 105.719055 40.2191339L97.2348031 40.2191339C97.3828346 37.1687402 97.56 33.9120472 97.7647244 30.4514173 97.9694488 26.99 98.1922835 23.5388189 98.4340157 20.0962992 98.675748 16.6545669 98.9552756 13.3419685 99.271811 10.1608661 99.5875591 6.97897638 99.9324409 4.10417323 100.304094 1.53645669L108.621417 1.53645669z"/>
        <g transform="translate(154.33 .787)">
          <mask id="lg-e" fill="#fff">
            <use xlink:href="#lg-d"/>
          </mask>
          <polygon fill="#FFF" points=".53 39.432 .53 .749 26.654 .749 26.654 8.061 9.239 8.061 9.239 15.653 24.7 15.653 24.7 22.798 9.239 22.798 9.239 32.12 27.938 32.12 27.938 39.432" mask="url(#lg-e)"/>
        </g>
      </g>
    </g>
  </g>
</svg>
