<svg xmlns="http://www.w3.org/2000/svg" xmlns:xlink="http://www.w3.org/1999/xlink" width="362" height="102" viewBox="0 0 362 102">
    <defs>
        <linearGradient id="b" x1="0%" y1="46.142%" y2="53.858%">
            <stop offset="0%" stop-color="#FFDB9F"/>
            <stop offset="49.987%" stop-color="#9A7B46"/>
            <stop offset="100%" stop-color="#CBAA70"/>
        </linearGradient>
        <rect id="a" width="360" height="100" rx="4"/>
        <linearGradient id="d" x1="50%" x2="50%" y1="-11.734%" y2="112.255%">
            <stop offset="0%" stop-color="#FFDB9F"/>
            <stop offset="10.081%" stop-color="#9A7B46"/>
            <stop offset="100%" stop-color="#CBAA70"/>
        </linearGradient>
        <filter id="e" width="273.6%" height="238.4%" x="-86.8%" y="-69.2%" filterUnits="objectBoundingBox">
            <feGaussianBlur in="SourceGraphic" stdDeviation="36"/>
        </filter>
        <linearGradient id="f" x1="-101.743%" x2="209.101%" y1="49.941%" y2="49.941%">
            <stop offset="0%" stop-color="#E5316E"/>
            <stop offset="100%" stop-color="#FFD666"/>
        </linearGradient>
        <filter id="g" width="148.2%" height="138.4%" x="-24.1%" y="-19.2%" filterUnits="objectBoundingBox">
            <feGaussianBlur in="SourceGraphic" stdDeviation="10"/>
        </filter>
        <linearGradient id="h" x1="21.21%" x2="81.955%" y1="0%" y2="100%">
            <stop offset="0%" stop-color="#252633"/>
            <stop offset="100%" stop-color="#1D1E1E"/>
        </linearGradient>
        <linearGradient id="i" x1="0%" y1="49.232%" y2="50.768%">
            <stop offset="0%" stop-color="#2A2A2A"/>
            <stop offset="100%" stop-color="#313347"/>
        </linearGradient>
        <filter id="j" width="109.3%" height="174.7%" x="-4.6%" y="-37.3%" filterUnits="objectBoundingBox">
            <feGaussianBlur in="SourceGraphic" stdDeviation="2"/>
        </filter>
        <linearGradient id="k" x1="0%" y1="100%" y2="100%">
            <stop offset="0%" stop-color="#FFDB9F"/>
            <stop offset="49.987%" stop-color="#9A7B46"/>
            <stop offset="100%" stop-color="#CBAA70"/>
        </linearGradient>
        <radialGradient id="l" cx="51.204%" r="568.403%" fx="51.204%" fy="50%" gradientTransform="matrix(.12394 0 0 1 .449 0)">
            <stop offset="0%" stop-color="#FFD1A0"/>
            <stop offset="36.396%" stop-color="#FFF" stop-opacity=".649"/>
            <stop offset="68.475%" stop-color="#FFF3B5" stop-opacity=".757"/>
            <stop offset="100%" stop-opacity="0"/>
        </radialGradient>
        <linearGradient id="m" x1="0%" y1="49.921%" y2="50%">
            <stop offset="0%" stop-color="#B0EEDD"/>
            <stop offset="100%" stop-color="#FCBDBD"/>
        </linearGradient>
    </defs>
    <g fill="none" fill-rule="evenodd" transform="translate(1 1)">
        <mask id="c" fill="#fff">
            <use xlink:href="#a"/>
        </mask>
        <rect width="361" height="101" x="-.5" y="-.5" stroke="url(#b)" rx="4"/>
        <g mask="url(#c)">
            <path fill="url(#d)" d="M79.444 177.778L17.222 99.722l62.222-78.055 62.223 78.055-62.223 78.056" filter="url(#e)" transform="translate(-80 -39)"/>
            <path fill="url(#f)" d="M79.444 177.778L17.222 99.722l62.222-78.055 62.223 78.055-62.223 78.056" filter="url(#g)" transform="translate(-80 -39)"/>
            <path fill="url(#h)" d="M79.722 199.444L0 99.722 79.722 0l79.722 99.722-79.722 99.722" transform="translate(-80 -39)"/>
            <path fill="#FFF" d="M-.556 160.444l-37.222-99.722L-.556-39l37.223 99.722-37.223 99.722" style="mix-blend-mode:soft-light"/>
            <path fill="#F2D4A3" d="M37.222 60.43L-.556 94.332V-39z" style="mix-blend-mode:soft-light"/>
        </g>
        <g mask="url(#c)">
            <path fill="url(#i)" d="M0 15.571V.502h6.024c2.49 0 4.481 1.859 4.481 4.22 0 1.406-.572 2.285-1.618 3.089v.05c1.543 1.105 2.19 2.16 2.19 3.717 0 2.084-1.642 3.993-4.48 3.993H0zm.921-.703h5.676c2.265 0 3.56-1.582 3.56-3.29 0-1.306-.697-2.612-2.415-3.592v-.2c1.394-.83 1.842-1.859 1.842-3.064 0-1.96-1.593-3.517-3.56-3.517H.921v13.663zM2.713 1.683v-.126h4.033l.448.126h-4.48zm0 .477v-.126h5.178l-.025-.025.2.15H2.713zm0 .502v-.125h5.75l.1.125h-5.85zm0 4.546V3.014h2.664c1.394 0 2.365.904 2.365 2.084 0 1.256-.97 2.11-2.365 2.11H2.713zm3.934-4.17h2.215l.05.126H6.92l-.273-.125zm.846.629l-.124-.126h1.717l.05.126H7.493zM3.634 6.505h1.743c.846 0 1.444-.578 1.444-1.407 0-.778-.598-1.381-1.444-1.381H3.634v2.788zm4.133-2.361l-.05-.1H9.26v.1H7.767zm.174.502l-.025-.125H9.31v.125H7.941zm.05.502v-.125h1.32v.125H7.99zm-.075.503l.05-.126h1.27l-.05.126h-1.27zm-.15.502l.075-.126h1.22l-.074.126h-1.22zm-.348.477l.125-.125h1.244l-.1.125H7.419zm-.522.503l.149-.126h1.344l-.15.126H6.897zm-4.183.502v-.126h5.004l-.174.126h-4.83zm0 .502v-.125h4.705l.175.125h-4.88zm0 .477v-.1h5.402l.125.1H2.713zm0 4.37V8.941H5.85c1.394 0 2.315.929 2.315 2.034 0 1.23-.921 2.01-2.315 2.01H2.713zm4.531-3.993h1.444l.124.126H7.443l-.199-.126zm.573.502h1.319l.1.126H7.94l-.124-.126zm-4.183 2.788H5.85c.846 0 1.394-.502 1.394-1.306 0-.728-.548-1.331-1.394-1.331H3.634v2.637zm4.531-2.285h1.27l.074.125H8.24l-.074-.125zm.224.627l-.025-.125h1.32l.05.125H8.388zm.025.478v-.126h1.419v.126H8.414zm-.075.502l.025-.126h1.544v.126H8.339zm-.224.502l.075-.125h1.693l-.05.125H8.115zm-.398.503l.124-.126h1.917l-.05.126H7.718zm-.747.477l.2-.1h2.364l-.05.1H6.97zm-4.257.502v-.126h6.523l-.125.126H2.713zm0 .502v-.125h6l-.174.125H2.713zm0 .503v-.126h4.93l-1.046.126H2.713zm11.355.979L21.337 0h.647l7.319 15.571h-3.934l-.746-1.557h-5.9L18 15.57h-3.933zm1.294-.703h1.967l4.182-9.092h.348l4.133 9.092h2.016L21.66 1.356l-6.298 13.512zm6.05-12.407l.05-.125h.348l.074.125h-.473zm-.25.503l.075-.126h.822l.05.126h-.947zm-.224.502l.05-.126h1.295l.074.126h-1.419zm-.249.502l.075-.125h1.767l.05.125H20.69zm-.224.502l.05-.125h2.24l.075.125h-2.365zm-.224.503l.05-.126h2.713l.05.126h-2.813zm-.249.502l.075-.126h3.162l.074.126h-3.31zm2.266.502l-.075-.125h1.294l.05.125h-1.27zm-2.49 0l.05-.125h1.344l-.074.125h-1.32zm2.714.503l-.075-.126h1.294l.075.126h-1.294zm-2.963 0l.075-.126h1.344l-.074.126h-1.345zm3.187.502l-.075-.126h1.32l.05.126h-1.295zm-3.41 0l.05-.126h1.343l-.074.126h-1.32zm3.634.502l-.075-.125h1.32l.074.125h-1.32zm-3.884 0l.075-.125h1.344l-.074.125h-1.345zm.847 3.868h3.46L21.66 7.559h-.05l-1.717 3.793zm3.26-3.366l-.074-.125h1.344l.05.125h-1.32zm-4.33 0l.05-.125h1.343l-.074.125h-1.32zm4.555.503l-.075-.126h1.344l.075.126h-1.344zm-4.805 0l.075-.126h1.344l-.074.126h-1.345zm5.029.502l-.075-.126h1.37l.05.126h-1.345zm-5.253 0l.05-.126h1.344l-.074.126h-1.32zm5.477.502l-.075-.125h1.37l.074.125h-1.369zm-5.7 0l.05-.125h1.343l-.074.125h-1.32zm5.85.377h1.393l.05.126H24.05l-.075-.126zm-6.1.126l.075-.126h1.344l-.074.126h-1.345zm6.298.376h1.42l.074.126H24.25l-.075-.126zm-6.522.126l.05-.126h1.344l-.074.126h-1.32zm6.747.377h1.443l.05.125h-1.419l-.074-.125zM17.403 11l.075-.125h1.344l-.074.125h-1.345zm7.22.377h1.443l.075.125h-1.444l-.074-.125zm-7.444.125l.05-.125h1.37l-.075.125h-1.345zm7.643.377h1.493l.05.126h-1.469l-.074-.126zm-7.892.126l.075-.126h1.37l-.075.126h-1.37zm2.067 1.33h5.327l-.573-1.255h-4.207l-.547 1.256zm.771-.828l.05-.126h3.61l.074.126h-3.734zm-.224.502l.05-.125h4.033l.05.125h-4.133zm12.027-4.972C31.57 3.54 34.93 0 39.66 0c2.838 0 4.805 1.08 6.398 2.763l-2.515 2.41c-1.045-1.03-2.39-1.682-3.883-1.682-2.664 0-4.381 2.01-4.381 4.546 0 2.536 1.717 4.545 4.381 4.545 1.494 0 2.838-.653 3.883-1.682l2.44 2.41c-1.494 1.583-3.56 2.763-6.323 2.763-4.73 0-8.09-3.54-8.09-8.036zm.92 0c0 4.093 3.013 7.333 7.17 7.333 2.19 0 3.834-.703 5.228-2.01l-1.42-1.456c-.895.804-2.314 1.382-3.808 1.382-3.211 0-5.327-2.31-5.327-5.25 0-2.938 2.116-5.248 5.327-5.248 1.419 0 2.788.527 3.859 1.356l1.419-1.381C43.619 1.406 41.9.703 39.66.703c-4.157 0-7.17 3.24-7.17 7.334zm5.9-6.957c.424-.075.548-.1 1.27-.1v.1h-1.27zm-1.642.502l.323-.125h2.59v.125h-2.913zm-.897.503l.2-.126h3.61v.126h-3.81zm-.722.502l.2-.126h4.331v.05l-.97.076h-3.56zm-.497.502l.124-.125h2.614l-.324.125h-2.414zm-.449.502l.1-.125h2.091l-.174.125h-2.017zm-.348.503l.1-.126h1.842l-.15.126h-1.792zm-.299.502l.075-.126h1.693l-.1.126h-1.668zm-.224.502l.05-.125h1.568l-.1.125h-1.518zm-.174.503l.025-.126h1.493l-.074.126h-1.444zm-.15.502l.025-.126h1.42l-.05.126H32.99zm-.124.502l.025-.125h1.394l-.05.125h-1.369zm-.075.502l.025-.125h1.37l-.05.125H32.79zm-.05.503l.026-.126h1.344l-.025.126H32.74zm0 .502v-.126h1.345v.126H32.74zm.026.502l-.025-.125h1.344l.025.125h-1.344zm.05.503l-.026-.126h1.345l.05.126h-1.37zm.099.502l-.05-.126h1.37l.049.126h-1.37zm.1.502l-.025-.125h1.394l.05.125h-1.42zm.149.502l-.025-.125h1.444l.074.125h-1.493zm.224.503L33.313 11h1.544l.1.126h-1.57zm.249.502l-.075-.126h1.643l.125.126h-1.693zm.299.502l-.075-.125h1.792l.125.125h-1.842zm.373.503l-.075-.126h1.992l.15.126h-2.067zm.348.376h2.44l.249.126h-2.564l-.125-.126zm.573.503h3.61c.249 0 .597.025.821.05v.075H35.38l-.149-.125zm.697.502h3.734v.126h-3.56l-.174-.126zm.871.502h2.863v.126h-2.54l-.323-.126zm1.693.503h1.17v.075h-.05l-1.12-.075zm11.504-6.982c0-4.496 3.36-8.037 8.09-8.037 2.838 0 4.805 1.08 6.398 2.763l-2.514 2.41c-1.046-1.03-2.39-1.682-3.884-1.682-2.664 0-4.381 2.01-4.381 4.546 0 2.536 1.717 4.545 4.381 4.545 1.494 0 2.838-.653 3.884-1.682l2.44 2.41c-1.495 1.583-3.56 2.763-6.324 2.763-4.73 0-8.09-3.54-8.09-8.036zm.92 0c0 4.093 3.013 7.333 7.17 7.333 2.19 0 3.834-.703 5.228-2.01l-1.42-1.456c-.895.804-2.314 1.382-3.808 1.382-3.211 0-5.327-2.31-5.327-5.25 0-2.938 2.116-5.248 5.327-5.248 1.419 0 2.788.527 3.859 1.356l1.419-1.381c-1.32-1.357-3.037-2.06-5.278-2.06-4.157 0-7.17 3.24-7.17 7.334zm5.9-6.957c.424-.075.548-.1 1.27-.1v.1h-1.27zm-1.642.502l.323-.125h2.59v.125h-2.913zm-.897.503l.2-.126h3.61v.126h-3.81zm-.722.502l.2-.126h4.331v.05l-.97.076h-3.56zm-.497.502l.124-.125h2.614l-.324.125h-2.414zm-.448.502l.1-.125h2.09l-.174.125h-2.016zm-.349.503l.1-.126h1.842l-.15.126H52.26zm-.299.502l.075-.126h1.693l-.1.126h-1.668zm-.224.502l.05-.125h1.568l-.1.125h-1.518zm-.174.503l.025-.126h1.493l-.074.126h-1.444zm-.15.502l.026-.126h1.418l-.05.126h-1.393zm-.124.502l.025-.125h1.394l-.05.125H51.29zm-.075.502l.025-.125h1.37l-.05.125h-1.345zm-.05.503l.026-.126h1.344l-.025.126h-1.344zm0 .502v-.126h1.345v.126h-1.344zm.026.502l-.025-.125h1.344l.025.125H51.19zm.05.503l-.026-.126h1.345l.05.126h-1.37zm.099.502l-.05-.126h1.37l.05.126h-1.37zm.1.502l-.025-.125h1.394l.05.125h-1.42zm.149.502l-.025-.125h1.444l.074.125h-1.493zm.224.503L51.737 11h1.544l.1.126h-1.57zm.249.502l-.075-.126h1.643l.125.126H52.06zm.299.502l-.075-.125h1.792l.125.125H52.36zm.373.503l-.075-.126h1.992l.15.126h-2.067zm.348.376h2.44l.249.126h-2.564l-.125-.126zm.573.503h3.61c.249 0 .597.025.821.05v.075h-4.282l-.149-.125zm.697.502h3.734v.126h-3.56l-.174-.126zm.871.502h2.863v.126h-2.539l-.324-.126zm1.693.503h1.17v.075h-.05l-1.12-.075zm10.807.552L74.99 0h.647l7.319 15.571h-3.934l-.746-1.557h-5.9l-.722 1.557h-3.933zm1.294-.703h1.967l4.182-9.092h.348l4.133 9.092h2.016L75.314 1.356l-6.298 13.512zm6.05-12.407l.05-.125h.348l.074.125h-.473zm-.25.503l.075-.126h.822l.05.126h-.947zm-.224.502l.05-.126h1.295l.074.126h-1.419zm-.249.502l.075-.125h1.768l.05.125h-1.893zm-.224.502l.05-.125h2.24l.075.125H74.12zm-.224.503l.05-.126h2.714l.05.126h-2.814zm-.249.502l.075-.126h3.162l.074.126h-3.31zm2.266.502l-.075-.125h1.294l.05.125h-1.27zm-2.49 0l.05-.125h1.344l-.074.125h-1.32zm2.714.503l-.075-.126h1.295l.074.126h-1.294zm-2.963 0l.075-.126h1.344l-.074.126h-1.345zm3.187.502l-.075-.126h1.32l.05.126H76.36zm-3.41 0l.05-.126h1.343l-.074.126h-1.32zm3.634.502l-.075-.125h1.32l.074.125h-1.32zm-3.884 0l.075-.125h1.344l-.074.125H72.7zm.847 3.868h3.46l-1.693-3.793h-.05l-1.717 3.793zm3.26-3.366l-.074-.125h1.344l.05.125h-1.32zm-4.33 0l.05-.125h1.343l-.074.125h-1.32zm4.555.503l-.075-.126h1.344l.075.126h-1.344zm-4.805 0l.075-.126h1.344l-.074.126h-1.345zm5.029.502l-.075-.126h1.37l.05.126h-1.345zm-5.253 0l.05-.126h1.344l-.074.126h-1.32zm5.477.502l-.075-.125h1.37l.074.125H77.48zm-5.7 0l.05-.125h1.343l-.074.125h-1.32zm5.85.377h1.393l.05.126h-1.369l-.075-.126zm-6.1.126l.075-.126h1.344l-.074.126H71.53zm6.299.376h1.418l.075.126h-1.419l-.074-.126zm-6.523.126l.05-.126H72.7l-.074.126h-1.32zm6.747.377h1.443l.05.125h-1.419l-.074-.125zM71.057 11l.075-.125h1.344l-.074.125h-1.345zm7.22.377h1.443l.075.125h-1.444l-.074-.125zm-7.444.125l.05-.125h1.37l-.075.125h-1.345zm7.643.377h1.493l.05.126H78.55l-.074-.126zm-7.892.126l.075-.126h1.37l-.075.126h-1.37zm2.067 1.33h5.327l-.573-1.255h-4.207l-.547 1.256zm.771-.828l.05-.126h3.61l.074.126h-3.734zm-.224.502l.05-.125h4.033l.05.125h-4.133zm14.118 2.562V.502h6.248c3.211 0 5.302 1.96 5.302 4.797 0 2.637-1.319 4.119-3.535 4.671l4.033 5.601h-4.58l-3.809-5.626v5.626h-3.66zm.92-.703h1.818v-5.4h1.643l3.66 5.4h2.464l-3.734-5.199v-.226c2.539-.301 3.858-1.582 3.858-3.993 0-2.587-1.892-4.245-4.381-4.245h-5.327v13.663zm1.843-13.26v-.126h3.485l1.17.125h-4.655zm0 .502v-.126h5.601l.2.126h-5.801zm0 .502v-.126h6.348l.124.126H90.08zm-.025 5.123V2.938h3.759c1.518 0 2.39 1.206 2.39 2.361 0 1.331-.921 2.436-2.29 2.436h-3.859zm4.929-4.746H96.9l.1.125h-1.743l-.274-.125zm.722.502h1.518l.05.125H95.88l-.174-.125zm-4.73 3.541h2.938c.821 0 1.369-.854 1.369-1.733 0-.879-.648-1.657-1.469-1.657h-2.838v3.39zm5.178-2.913l-.075-.126h1.37l.05.126h-1.345zm.249.502l-.075-.125h1.27v.125h-1.195zm.025.502v-.125h1.244v.125h-1.244zm.025.503V5.5h1.244v.126h-1.244zm-.125.502l.025-.126h1.295v.126h-1.32zm-.199.502l.075-.125h1.394l-.05.125h-1.419zm-.348.503l.124-.126h1.543l-.074.126H95.78zm-.598.502l.2-.126h1.817l-.1.126h-1.917zm-5.103.502v-.125H96.8l-.124.125h-6.597zm0 .502v-.125h6.074l-.224.125h-5.85zm0 .503v-.126h4.854l-.647.126h-4.207zm2.016.502l-.074-.126h1.767v.126h-1.693zm.324.502l-.075-.125h1.643l.125.125h-1.693zm.348.503l-.074-.126h1.668l.1.126h-1.694zm.324.502l-.075-.126h1.693l.125.126H93.09zm.274.377h1.718l.1.125H93.44l-.075-.125zm.324.502h1.742l.125.125h-1.793l-.074-.125zm.348.502h1.767l.1.126h-1.792l-.075-.126zm.349.502h1.767l.124.126H94.46l-.074-.126zm.348.503h1.792l.1.125h-1.817l-.075-.125zm.349.502h1.792l.124.126h-1.842l-.074-.126zm.348.502h1.817l.075.126h-1.817l-.075-.126zm7.197 1.03L109.897 0h.647l7.319 15.571h-3.933l-.747-1.557h-5.9l-.722 1.557h-3.933zm1.295-.703h1.966l4.182-9.092h.349l4.132 9.092h2.017L110.22 1.356l-6.298 13.512zm6.049-12.407l.05-.125h.348l.075.125h-.473zm-.25.503l.075-.126h.822l.05.126h-.946zm-.223.502l.05-.126h1.294l.075.126h-1.42zm-.25.502h1.893l-.05-.125h-1.768l-.074.125zm-.223.502l.05-.125h2.24l.075.125h-2.365zm-.224.503l.05-.126h2.713l.05.126h-2.813zm-.25.502l.075-.126h3.162l.075.126h-3.311zm2.266.502l-.075-.125h1.295l.05.125h-1.27zm-2.49 0l.05-.125h1.345l-.075.125h-1.32zm2.714.503l-.075-.126h1.295l.075.126h-1.295zm-2.962 0l.074-.126h1.345l-.075.126h-1.344zm3.186.502l-.075-.126h1.32l.05.126h-1.295zm-3.41 0l.05-.126h1.344l-.075.126h-1.32zm3.634.502l-.074-.125h1.319l.075.125h-1.32zm-3.883 0l.074-.125h1.345l-.075.125h-1.344zm.846 3.868h3.46l-1.692-3.793h-.05l-1.718 3.793zm3.261-3.366l-.074-.125h1.344l.05.125h-1.32zm-4.331 0l.05-.125h1.344l-.075.125h-1.32zm4.555.503l-.074-.126h1.344l.075.126h-1.345zm-4.804 0l.075-.126h1.344l-.075.126h-1.344zm5.028.502l-.074-.126h1.369l.05.126h-1.345zm-5.252 0l.05-.126h1.344l-.075.126h-1.32zm5.476.502l-.074-.125h1.369l.075.125h-1.37zm-5.7 0l.05-.125h1.344l-.075.125h-1.32zm5.85.377h1.394l.05.126h-1.37l-.074-.126zm-6.1.126l.075-.126h1.345l-.075.126h-1.344zm6.299.376h1.419l.075.126h-1.42l-.074-.126zm-6.522.126l.05-.126h1.344l-.075.126h-1.32zm6.746.377h1.444l.05.125h-1.42l-.074-.125zm-6.995.125l.075-.125h1.344l-.075.125h-1.344zm7.219.377h1.444l.074.125h-1.443l-.075-.125zm-7.443.125l.05-.125h1.369l-.075.125h-1.344zm7.642.377h1.494l.05.126h-1.47l-.074-.126zm-7.891.126l.075-.126h1.369l-.075.126h-1.37zm2.066 1.33h5.327l-.572-1.255h-4.207l-.548 1.256zm.772-.828l.05-.126h3.61l.074.126h-3.734zm-.224.502l.05-.125h4.032l.05.125h-4.132zm14.54 2.562V3.767h-3.36V.502h10.405v3.265h-3.385v11.804h-3.66zm.921-.703h1.818V3.064h3.385V1.205h-8.563v1.859h3.36v11.804zm-3.111-13.16v-.126h8.065v.126h-8.065zm0 .502v-.125h8.065v.125h-8.065zm0 .502v-.125h8.065v.125h-8.065z" filter="url(#j)" transform="translate(10 59.154)"/>
            <path fill="url(#k)" d="M0 15.571V.502h6.024c2.49 0 4.481 1.859 4.481 4.22 0 1.406-.572 2.285-1.618 3.089v.05c1.543 1.105 2.19 2.16 2.19 3.717 0 2.084-1.642 3.993-4.48 3.993H0zm.921-.703h5.676c2.265 0 3.56-1.582 3.56-3.29 0-1.306-.697-2.612-2.415-3.592v-.2c1.394-.83 1.842-1.859 1.842-3.064 0-1.96-1.593-3.517-3.56-3.517H.921v13.663zM2.713 1.683v-.126h4.033l.448.126h-4.48zm0 .477v-.126h5.178l-.025-.025.2.15H2.713zm0 .502v-.125h5.75l.1.125h-5.85zm0 4.546V3.014h2.664c1.394 0 2.365.904 2.365 2.084 0 1.256-.97 2.11-2.365 2.11H2.713zm3.934-4.17h2.215l.05.126H6.92l-.273-.125zm.846.629l-.124-.126h1.717l.05.126H7.493zM3.634 6.505h1.743c.846 0 1.444-.578 1.444-1.407 0-.778-.598-1.381-1.444-1.381H3.634v2.788zm4.133-2.361l-.05-.1H9.26v.1H7.767zm.174.502l-.025-.125H9.31v.125H7.941zm.05.502v-.125h1.32v.125H7.99zm-.075.503l.05-.126h1.27l-.05.126h-1.27zm-.15.502l.075-.126h1.22l-.074.126h-1.22zm-.348.477l.125-.125h1.244l-.1.125H7.419zm-.522.503l.149-.126h1.344l-.15.126H6.897zm-4.183.502v-.126h5.004l-.174.126h-4.83zm0 .502v-.125h4.705l.175.125h-4.88zm0 .477v-.1h5.402l.125.1H2.713zm0 4.37V8.941H5.85c1.394 0 2.315.929 2.315 2.034 0 1.23-.921 2.01-2.315 2.01H2.713zm4.531-3.993h1.444l.124.126H7.443l-.199-.126zm.573.502h1.319l.1.126H7.94l-.124-.126zm-4.183 2.788H5.85c.846 0 1.394-.502 1.394-1.306 0-.728-.548-1.331-1.394-1.331H3.634v2.637zm4.531-2.285h1.27l.074.125H8.24l-.074-.125zm.224.627l-.025-.125h1.32l.05.125H8.388zm.025.478v-.126h1.419v.126H8.414zm-.075.502l.025-.126h1.544v.126H8.339zm-.224.502l.075-.125h1.693l-.05.125H8.115zm-.398.503l.124-.126h1.917l-.05.126H7.718zm-.747.477l.2-.1h2.364l-.05.1H6.97zm-4.257.502v-.126h6.523l-.125.126H2.713zm0 .502v-.125h6l-.174.125H2.713zm0 .503v-.126h4.93l-1.046.126H2.713zm11.355.979L21.337 0h.647l7.319 15.571h-3.934l-.746-1.557h-5.9L18 15.57h-3.933zm1.294-.703h1.967l4.182-9.092h.348l4.133 9.092h2.016L21.66 1.356l-6.298 13.512zm6.05-12.407l.05-.125h.348l.074.125h-.473zm-.25.503l.075-.126h.822l.05.126h-.947zm-.224.502l.05-.126h1.295l.074.126h-1.419zm-.249.502l.075-.125h1.767l.05.125H20.69zm-.224.502l.05-.125h2.24l.075.125h-2.365zm-.224.503l.05-.126h2.713l.05.126h-2.813zm-.249.502l.075-.126h3.162l.074.126h-3.31zm2.266.502l-.075-.125h1.294l.05.125h-1.27zm-2.49 0l.05-.125h1.344l-.074.125h-1.32zm2.714.503l-.075-.126h1.294l.075.126h-1.294zm-2.963 0l.075-.126h1.344l-.074.126h-1.345zm3.187.502l-.075-.126h1.32l.05.126h-1.295zm-3.41 0l.05-.126h1.343l-.074.126h-1.32zm3.634.502l-.075-.125h1.32l.074.125h-1.32zm-3.884 0l.075-.125h1.344l-.074.125h-1.345zm.847 3.868h3.46L21.66 7.559h-.05l-1.717 3.793zm3.26-3.366l-.074-.125h1.344l.05.125h-1.32zm-4.33 0l.05-.125h1.343l-.074.125h-1.32zm4.555.503l-.075-.126h1.344l.075.126h-1.344zm-4.805 0l.075-.126h1.344l-.074.126h-1.345zm5.029.502l-.075-.126h1.37l.05.126h-1.345zm-5.253 0l.05-.126h1.344l-.074.126h-1.32zm5.477.502l-.075-.125h1.37l.074.125h-1.369zm-5.7 0l.05-.125h1.343l-.074.125h-1.32zm5.85.377h1.393l.05.126H24.05l-.075-.126zm-6.1.126l.075-.126h1.344l-.074.126h-1.345zm6.298.376h1.42l.074.126H24.25l-.075-.126zm-6.522.126l.05-.126h1.344l-.074.126h-1.32zm6.747.377h1.443l.05.125h-1.419l-.074-.125zM17.403 11l.075-.125h1.344l-.074.125h-1.345zm7.22.377h1.443l.075.125h-1.444l-.074-.125zm-7.444.125l.05-.125h1.37l-.075.125h-1.345zm7.643.377h1.493l.05.126h-1.469l-.074-.126zm-7.892.126l.075-.126h1.37l-.075.126h-1.37zm2.067 1.33h5.327l-.573-1.255h-4.207l-.547 1.256zm.771-.828l.05-.126h3.61l.074.126h-3.734zm-.224.502l.05-.125h4.033l.05.125h-4.133zm12.027-4.972C31.57 3.54 34.93 0 39.66 0c2.838 0 4.805 1.08 6.398 2.763l-2.515 2.41c-1.045-1.03-2.39-1.682-3.883-1.682-2.664 0-4.381 2.01-4.381 4.546 0 2.536 1.717 4.545 4.381 4.545 1.494 0 2.838-.653 3.883-1.682l2.44 2.41c-1.494 1.583-3.56 2.763-6.323 2.763-4.73 0-8.09-3.54-8.09-8.036zm.92 0c0 4.093 3.013 7.333 7.17 7.333 2.19 0 3.834-.703 5.228-2.01l-1.42-1.456c-.895.804-2.314 1.382-3.808 1.382-3.211 0-5.327-2.31-5.327-5.25 0-2.938 2.116-5.248 5.327-5.248 1.419 0 2.788.527 3.859 1.356l1.419-1.381C43.619 1.406 41.9.703 39.66.703c-4.157 0-7.17 3.24-7.17 7.334zm5.9-6.957c.424-.075.548-.1 1.27-.1v.1h-1.27zm-1.642.502l.323-.125h2.59v.125h-2.913zm-.897.503l.2-.126h3.61v.126h-3.81zm-.722.502l.2-.126h4.331v.05l-.97.076h-3.56zm-.497.502l.124-.125h2.614l-.324.125h-2.414zm-.449.502l.1-.125h2.091l-.174.125h-2.017zm-.348.503l.1-.126h1.842l-.15.126h-1.792zm-.299.502l.075-.126h1.693l-.1.126h-1.668zm-.224.502l.05-.125h1.568l-.1.125h-1.518zm-.174.503l.025-.126h1.493l-.074.126h-1.444zm-.15.502l.025-.126h1.42l-.05.126H32.99zm-.124.502l.025-.125h1.394l-.05.125h-1.369zm-.075.502l.025-.125h1.37l-.05.125H32.79zm-.05.503l.026-.126h1.344l-.025.126H32.74zm0 .502v-.126h1.345v.126H32.74zm.026.502l-.025-.125h1.344l.025.125h-1.344zm.05.503l-.026-.126h1.345l.05.126h-1.37zm.099.502l-.05-.126h1.37l.049.126h-1.37zm.1.502l-.025-.125h1.394l.05.125h-1.42zm.149.502l-.025-.125h1.444l.074.125h-1.493zm.224.503L33.313 11h1.544l.1.126h-1.57zm.249.502l-.075-.126h1.643l.125.126h-1.693zm.299.502l-.075-.125h1.792l.125.125h-1.842zm.373.503l-.075-.126h1.992l.15.126h-2.067zm.348.376h2.44l.249.126h-2.564l-.125-.126zm.573.503h3.61c.249 0 .597.025.821.05v.075H35.38l-.149-.125zm.697.502h3.734v.126h-3.56l-.174-.126zm.871.502h2.863v.126h-2.54l-.323-.126zm1.693.503h1.17v.075h-.05l-1.12-.075zm11.504-6.982c0-4.496 3.36-8.037 8.09-8.037 2.838 0 4.805 1.08 6.398 2.763l-2.514 2.41c-1.046-1.03-2.39-1.682-3.884-1.682-2.664 0-4.381 2.01-4.381 4.546 0 2.536 1.717 4.545 4.381 4.545 1.494 0 2.838-.653 3.884-1.682l2.44 2.41c-1.495 1.583-3.56 2.763-6.324 2.763-4.73 0-8.09-3.54-8.09-8.036zm.92 0c0 4.093 3.013 7.333 7.17 7.333 2.19 0 3.834-.703 5.228-2.01l-1.42-1.456c-.895.804-2.314 1.382-3.808 1.382-3.211 0-5.327-2.31-5.327-5.25 0-2.938 2.116-5.248 5.327-5.248 1.419 0 2.788.527 3.859 1.356l1.419-1.381c-1.32-1.357-3.037-2.06-5.278-2.06-4.157 0-7.17 3.24-7.17 7.334zm5.9-6.957c.424-.075.548-.1 1.27-.1v.1h-1.27zm-1.642.502l.323-.125h2.59v.125h-2.913zm-.897.503l.2-.126h3.61v.126h-3.81zm-.722.502l.2-.126h4.331v.05l-.97.076h-3.56zm-.497.502l.124-.125h2.614l-.324.125h-2.414zm-.448.502l.1-.125h2.09l-.174.125h-2.016zm-.349.503l.1-.126h1.842l-.15.126H52.26zm-.299.502l.075-.126h1.693l-.1.126h-1.668zm-.224.502l.05-.125h1.568l-.1.125h-1.518zm-.174.503l.025-.126h1.493l-.074.126h-1.444zm-.15.502l.026-.126h1.418l-.05.126h-1.393zm-.124.502l.025-.125h1.394l-.05.125H51.29zm-.075.502l.025-.125h1.37l-.05.125h-1.345zm-.05.503l.026-.126h1.344l-.025.126h-1.344zm0 .502v-.126h1.345v.126h-1.344zm.026.502l-.025-.125h1.344l.025.125H51.19zm.05.503l-.026-.126h1.345l.05.126h-1.37zm.099.502l-.05-.126h1.37l.05.126h-1.37zm.1.502l-.025-.125h1.394l.05.125h-1.42zm.149.502l-.025-.125h1.444l.074.125h-1.493zm.224.503L51.737 11h1.544l.1.126h-1.57zm.249.502l-.075-.126h1.643l.125.126H52.06zm.299.502l-.075-.125h1.792l.125.125H52.36zm.373.503l-.075-.126h1.992l.15.126h-2.067zm.348.376h2.44l.249.126h-2.564l-.125-.126zm.573.503h3.61c.249 0 .597.025.821.05v.075h-4.282l-.149-.125zm.697.502h3.734v.126h-3.56l-.174-.126zm.871.502h2.863v.126h-2.539l-.324-.126zm1.693.503h1.17v.075h-.05l-1.12-.075zm10.807.552L74.99 0h.647l7.319 15.571h-3.934l-.746-1.557h-5.9l-.722 1.557h-3.933zm1.294-.703h1.967l4.182-9.092h.348l4.133 9.092h2.016L75.314 1.356l-6.298 13.512zm6.05-12.407l.05-.125h.348l.074.125h-.473zm-.25.503l.075-.126h.822l.05.126h-.947zm-.224.502l.05-.126h1.295l.074.126h-1.419zm-.249.502l.075-.125h1.768l.05.125h-1.893zm-.224.502l.05-.125h2.24l.075.125H74.12zm-.224.503l.05-.126h2.714l.05.126h-2.814zm-.249.502l.075-.126h3.162l.074.126h-3.31zm2.266.502l-.075-.125h1.294l.05.125h-1.27zm-2.49 0l.05-.125h1.344l-.074.125h-1.32zm2.714.503l-.075-.126h1.295l.074.126h-1.294zm-2.963 0l.075-.126h1.344l-.074.126h-1.345zm3.187.502l-.075-.126h1.32l.05.126H76.36zm-3.41 0l.05-.126h1.343l-.074.126h-1.32zm3.634.502l-.075-.125h1.32l.074.125h-1.32zm-3.884 0l.075-.125h1.344l-.074.125H72.7zm.847 3.868h3.46l-1.693-3.793h-.05l-1.717 3.793zm3.26-3.366l-.074-.125h1.344l.05.125h-1.32zm-4.33 0l.05-.125h1.343l-.074.125h-1.32zm4.555.503l-.075-.126h1.344l.075.126h-1.344zm-4.805 0l.075-.126h1.344l-.074.126h-1.345zm5.029.502l-.075-.126h1.37l.05.126h-1.345zm-5.253 0l.05-.126h1.344l-.074.126h-1.32zm5.477.502l-.075-.125h1.37l.074.125H77.48zm-5.7 0l.05-.125h1.343l-.074.125h-1.32zm5.85.377h1.393l.05.126h-1.369l-.075-.126zm-6.1.126l.075-.126h1.344l-.074.126H71.53zm6.299.376h1.418l.075.126h-1.419l-.074-.126zm-6.523.126l.05-.126H72.7l-.074.126h-1.32zm6.747.377h1.443l.05.125h-1.419l-.074-.125zM71.057 11l.075-.125h1.344l-.074.125h-1.345zm7.22.377h1.443l.075.125h-1.444l-.074-.125zm-7.444.125l.05-.125h1.37l-.075.125h-1.345zm7.643.377h1.493l.05.126H78.55l-.074-.126zm-7.892.126l.075-.126h1.37l-.075.126h-1.37zm2.067 1.33h5.327l-.573-1.255h-4.207l-.547 1.256zm.771-.828l.05-.126h3.61l.074.126h-3.734zm-.224.502l.05-.125h4.033l.05.125h-4.133zm14.118 2.562V.502h6.248c3.211 0 5.302 1.96 5.302 4.797 0 2.637-1.319 4.119-3.535 4.671l4.033 5.601h-4.58l-3.809-5.626v5.626h-3.66zm.92-.703h1.818v-5.4h1.643l3.66 5.4h2.464l-3.734-5.199v-.226c2.539-.301 3.858-1.582 3.858-3.993 0-2.587-1.892-4.245-4.381-4.245h-5.327v13.663zm1.843-13.26v-.126h3.485l1.17.125h-4.655zm0 .502v-.126h5.601l.2.126h-5.801zm0 .502v-.126h6.348l.124.126H90.08zm-.025 5.123V2.938h3.759c1.518 0 2.39 1.206 2.39 2.361 0 1.331-.921 2.436-2.29 2.436h-3.859zm4.929-4.746H96.9l.1.125h-1.743l-.274-.125zm.722.502h1.518l.05.125H95.88l-.174-.125zm-4.73 3.541h2.938c.821 0 1.369-.854 1.369-1.733 0-.879-.648-1.657-1.469-1.657h-2.838v3.39zm5.178-2.913l-.075-.126h1.37l.05.126h-1.345zm.249.502l-.075-.125h1.27v.125h-1.195zm.025.502v-.125h1.244v.125h-1.244zm.025.503V5.5h1.244v.126h-1.244zm-.125.502l.025-.126h1.295v.126h-1.32zm-.199.502l.075-.125h1.394l-.05.125h-1.419zm-.348.503l.124-.126h1.543l-.074.126H95.78zm-.598.502l.2-.126h1.817l-.1.126h-1.917zm-5.103.502v-.125H96.8l-.124.125h-6.597zm0 .502v-.125h6.074l-.224.125h-5.85zm0 .503v-.126h4.854l-.647.126h-4.207zm2.016.502l-.074-.126h1.767v.126h-1.693zm.324.502l-.075-.125h1.643l.125.125h-1.693zm.348.503l-.074-.126h1.668l.1.126h-1.694zm.324.502l-.075-.126h1.693l.125.126H93.09zm.274.377h1.718l.1.125H93.44l-.075-.125zm.324.502h1.742l.125.125h-1.793l-.074-.125zm.348.502h1.767l.1.126h-1.792l-.075-.126zm.349.502h1.767l.124.126H94.46l-.074-.126zm.348.503h1.792l.1.125h-1.817l-.075-.125zm.349.502h1.792l.124.126h-1.842l-.074-.126zm.348.502h1.817l.075.126h-1.817l-.075-.126zm7.197 1.03L109.897 0h.647l7.319 15.571h-3.933l-.747-1.557h-5.9l-.722 1.557h-3.933zm1.295-.703h1.966l4.182-9.092h.349l4.132 9.092h2.017L110.22 1.356l-6.298 13.512zm6.049-12.407l.05-.125h.348l.075.125h-.473zm-.25.503l.075-.126h.822l.05.126h-.946zm-.223.502l.05-.126h1.294l.075.126h-1.42zm-.25.502h1.893l-.05-.125h-1.768l-.074.125zm-.223.502l.05-.125h2.24l.075.125h-2.365zm-.224.503l.05-.126h2.713l.05.126h-2.813zm-.25.502l.075-.126h3.162l.075.126h-3.311zm2.266.502l-.075-.125h1.295l.05.125h-1.27zm-2.49 0l.05-.125h1.345l-.075.125h-1.32zm2.714.503l-.075-.126h1.295l.075.126h-1.295zm-2.962 0l.074-.126h1.345l-.075.126h-1.344zm3.186.502l-.075-.126h1.32l.05.126h-1.295zm-3.41 0l.05-.126h1.344l-.075.126h-1.32zm3.634.502l-.074-.125h1.319l.075.125h-1.32zm-3.883 0l.074-.125h1.345l-.075.125h-1.344zm.846 3.868h3.46l-1.692-3.793h-.05l-1.718 3.793zm3.261-3.366l-.074-.125h1.344l.05.125h-1.32zm-4.331 0l.05-.125h1.344l-.075.125h-1.32zm4.555.503l-.074-.126h1.344l.075.126h-1.345zm-4.804 0l.075-.126h1.344l-.075.126h-1.344zm5.028.502l-.074-.126h1.369l.05.126h-1.345zm-5.252 0l.05-.126h1.344l-.075.126h-1.32zm5.476.502l-.074-.125h1.369l.075.125h-1.37zm-5.7 0l.05-.125h1.344l-.075.125h-1.32zm5.85.377h1.394l.05.126h-1.37l-.074-.126zm-6.1.126l.075-.126h1.345l-.075.126h-1.344zm6.299.376h1.419l.075.126h-1.42l-.074-.126zm-6.522.126l.05-.126h1.344l-.075.126h-1.32zm6.746.377h1.444l.05.125h-1.42l-.074-.125zm-6.995.125l.075-.125h1.344l-.075.125h-1.344zm7.219.377h1.444l.074.125h-1.443l-.075-.125zm-7.443.125l.05-.125h1.369l-.075.125h-1.344zm7.642.377h1.494l.05.126h-1.47l-.074-.126zm-7.891.126l.075-.126h1.369l-.075.126h-1.37zm2.066 1.33h5.327l-.572-1.255h-4.207l-.548 1.256zm.772-.828l.05-.126h3.61l.074.126h-3.734zm-.224.502l.05-.125h4.032l.05.125h-4.132zm14.54 2.562V3.767h-3.36V.502h10.405v3.265h-3.385v11.804h-3.66zm.921-.703h1.818V3.064h3.385V1.205h-8.563v1.859h3.36v11.804zm-3.111-13.16v-.126h8.065v.126h-8.065zm0 .502v-.125h8.065v.125h-8.065zm0 .502v-.125h8.065v.125h-8.065z" transform="translate(10 59.154)"/>
            <path fill="url(#l)" d="M0 15.571V.502h6.024c2.49 0 4.481 1.859 4.481 4.22 0 1.406-.572 2.285-1.618 3.089v.05c1.543 1.105 2.19 2.16 2.19 3.717 0 2.084-1.642 3.993-4.48 3.993H0zm.921-.703h5.676c2.265 0 3.56-1.582 3.56-3.29 0-1.306-.697-2.612-2.415-3.592v-.2c1.394-.83 1.842-1.859 1.842-3.064 0-1.96-1.593-3.517-3.56-3.517H.921v13.663zM2.713 1.683v-.126h4.033l.448.126h-4.48zm0 .477v-.126h5.178l-.025-.025.2.15H2.713zm0 .502v-.125h5.75l.1.125h-5.85zm0 4.546V3.014h2.664c1.394 0 2.365.904 2.365 2.084 0 1.256-.97 2.11-2.365 2.11H2.713zm3.934-4.17h2.215l.05.126H6.92l-.273-.125zm.846.629l-.124-.126h1.717l.05.126H7.493zM3.634 6.505h1.743c.846 0 1.444-.578 1.444-1.407 0-.778-.598-1.381-1.444-1.381H3.634v2.788zm4.133-2.361l-.05-.1H9.26v.1H7.767zm.174.502l-.025-.125H9.31v.125H7.941zm.05.502v-.125h1.32v.125H7.99zm-.075.503l.05-.126h1.27l-.05.126h-1.27zm-.15.502l.075-.126h1.22l-.074.126h-1.22zm-.348.477l.125-.125h1.244l-.1.125H7.419zm-.522.503l.149-.126h1.344l-.15.126H6.897zm-4.183.502v-.126h5.004l-.174.126h-4.83zm0 .502v-.125h4.705l.175.125h-4.88zm0 .477v-.1h5.402l.125.1H2.713zm0 4.37V8.941H5.85c1.394 0 2.315.929 2.315 2.034 0 1.23-.921 2.01-2.315 2.01H2.713zm4.531-3.993h1.444l.124.126H7.443l-.199-.126zm.573.502h1.319l.1.126H7.94l-.124-.126zm-4.183 2.788H5.85c.846 0 1.394-.502 1.394-1.306 0-.728-.548-1.331-1.394-1.331H3.634v2.637zm4.531-2.285h1.27l.074.125H8.24l-.074-.125zm.224.627l-.025-.125h1.32l.05.125H8.388zm.025.478v-.126h1.419v.126H8.414zm-.075.502l.025-.126h1.544v.126H8.339zm-.224.502l.075-.125h1.693l-.05.125H8.115zm-.398.503l.124-.126h1.917l-.05.126H7.718zm-.747.477l.2-.1h2.364l-.05.1H6.97zm-4.257.502v-.126h6.523l-.125.126H2.713zm0 .502v-.125h6l-.174.125H2.713zm0 .503v-.126h4.93l-1.046.126H2.713zm11.355.979L21.337 0h.647l7.319 15.571h-3.934l-.746-1.557h-5.9L18 15.57h-3.933zm1.294-.703h1.967l4.182-9.092h.348l4.133 9.092h2.016L21.66 1.356l-6.298 13.512zm6.05-12.407l.05-.125h.348l.074.125h-.473zm-.25.503l.075-.126h.822l.05.126h-.947zm-.224.502l.05-.126h1.295l.074.126h-1.419zm-.249.502l.075-.125h1.767l.05.125H20.69zm-.224.502l.05-.125h2.24l.075.125h-2.365zm-.224.503l.05-.126h2.713l.05.126h-2.813zm-.249.502l.075-.126h3.162l.074.126h-3.31zm2.266.502l-.075-.125h1.294l.05.125h-1.27zm-2.49 0l.05-.125h1.344l-.074.125h-1.32zm2.714.503l-.075-.126h1.294l.075.126h-1.294zm-2.963 0l.075-.126h1.344l-.074.126h-1.345zm3.187.502l-.075-.126h1.32l.05.126h-1.295zm-3.41 0l.05-.126h1.343l-.074.126h-1.32zm3.634.502l-.075-.125h1.32l.074.125h-1.32zm-3.884 0l.075-.125h1.344l-.074.125h-1.345zm.847 3.868h3.46L21.66 7.559h-.05l-1.717 3.793zm3.26-3.366l-.074-.125h1.344l.05.125h-1.32zm-4.33 0l.05-.125h1.343l-.074.125h-1.32zm4.555.503l-.075-.126h1.344l.075.126h-1.344zm-4.805 0l.075-.126h1.344l-.074.126h-1.345zm5.029.502l-.075-.126h1.37l.05.126h-1.345zm-5.253 0l.05-.126h1.344l-.074.126h-1.32zm5.477.502l-.075-.125h1.37l.074.125h-1.369zm-5.7 0l.05-.125h1.343l-.074.125h-1.32zm5.85.377h1.393l.05.126H24.05l-.075-.126zm-6.1.126l.075-.126h1.344l-.074.126h-1.345zm6.298.376h1.42l.074.126H24.25l-.075-.126zm-6.522.126l.05-.126h1.344l-.074.126h-1.32zm6.747.377h1.443l.05.125h-1.419l-.074-.125zM17.403 11l.075-.125h1.344l-.074.125h-1.345zm7.22.377h1.443l.075.125h-1.444l-.074-.125zm-7.444.125l.05-.125h1.37l-.075.125h-1.345zm7.643.377h1.493l.05.126h-1.469l-.074-.126zm-7.892.126l.075-.126h1.37l-.075.126h-1.37zm2.067 1.33h5.327l-.573-1.255h-4.207l-.547 1.256zm.771-.828l.05-.126h3.61l.074.126h-3.734zm-.224.502l.05-.125h4.033l.05.125h-4.133zm12.027-4.972C31.57 3.54 34.93 0 39.66 0c2.838 0 4.805 1.08 6.398 2.763l-2.515 2.41c-1.045-1.03-2.39-1.682-3.883-1.682-2.664 0-4.381 2.01-4.381 4.546 0 2.536 1.717 4.545 4.381 4.545 1.494 0 2.838-.653 3.883-1.682l2.44 2.41c-1.494 1.583-3.56 2.763-6.323 2.763-4.73 0-8.09-3.54-8.09-8.036zm.92 0c0 4.093 3.013 7.333 7.17 7.333 2.19 0 3.834-.703 5.228-2.01l-1.42-1.456c-.895.804-2.314 1.382-3.808 1.382-3.211 0-5.327-2.31-5.327-5.25 0-2.938 2.116-5.248 5.327-5.248 1.419 0 2.788.527 3.859 1.356l1.419-1.381C43.619 1.406 41.9.703 39.66.703c-4.157 0-7.17 3.24-7.17 7.334zm5.9-6.957c.424-.075.548-.1 1.27-.1v.1h-1.27zm-1.642.502l.323-.125h2.59v.125h-2.913zm-.897.503l.2-.126h3.61v.126h-3.81zm-.722.502l.2-.126h4.331v.05l-.97.076h-3.56zm-.497.502l.124-.125h2.614l-.324.125h-2.414zm-.449.502l.1-.125h2.091l-.174.125h-2.017zm-.348.503l.1-.126h1.842l-.15.126h-1.792zm-.299.502l.075-.126h1.693l-.1.126h-1.668zm-.224.502l.05-.125h1.568l-.1.125h-1.518zm-.174.503l.025-.126h1.493l-.074.126h-1.444zm-.15.502l.025-.126h1.42l-.05.126H32.99zm-.124.502l.025-.125h1.394l-.05.125h-1.369zm-.075.502l.025-.125h1.37l-.05.125H32.79zm-.05.503l.026-.126h1.344l-.025.126H32.74zm0 .502v-.126h1.345v.126H32.74zm.026.502l-.025-.125h1.344l.025.125h-1.344zm.05.503l-.026-.126h1.345l.05.126h-1.37zm.099.502l-.05-.126h1.37l.049.126h-1.37zm.1.502l-.025-.125h1.394l.05.125h-1.42zm.149.502l-.025-.125h1.444l.074.125h-1.493zm.224.503L33.313 11h1.544l.1.126h-1.57zm.249.502l-.075-.126h1.643l.125.126h-1.693zm.299.502l-.075-.125h1.792l.125.125h-1.842zm.373.503l-.075-.126h1.992l.15.126h-2.067zm.348.376h2.44l.249.126h-2.564l-.125-.126zm.573.503h3.61c.249 0 .597.025.821.05v.075H35.38l-.149-.125zm.697.502h3.734v.126h-3.56l-.174-.126zm.871.502h2.863v.126h-2.54l-.323-.126zm1.693.503h1.17v.075h-.05l-1.12-.075zm11.504-6.982c0-4.496 3.36-8.037 8.09-8.037 2.838 0 4.805 1.08 6.398 2.763l-2.514 2.41c-1.046-1.03-2.39-1.682-3.884-1.682-2.664 0-4.381 2.01-4.381 4.546 0 2.536 1.717 4.545 4.381 4.545 1.494 0 2.838-.653 3.884-1.682l2.44 2.41c-1.495 1.583-3.56 2.763-6.324 2.763-4.73 0-8.09-3.54-8.09-8.036zm.92 0c0 4.093 3.013 7.333 7.17 7.333 2.19 0 3.834-.703 5.228-2.01l-1.42-1.456c-.895.804-2.314 1.382-3.808 1.382-3.211 0-5.327-2.31-5.327-5.25 0-2.938 2.116-5.248 5.327-5.248 1.419 0 2.788.527 3.859 1.356l1.419-1.381c-1.32-1.357-3.037-2.06-5.278-2.06-4.157 0-7.17 3.24-7.17 7.334zm5.9-6.957c.424-.075.548-.1 1.27-.1v.1h-1.27zm-1.642.502l.323-.125h2.59v.125h-2.913zm-.897.503l.2-.126h3.61v.126h-3.81zm-.722.502l.2-.126h4.331v.05l-.97.076h-3.56zm-.497.502l.124-.125h2.614l-.324.125h-2.414zm-.448.502l.1-.125h2.09l-.174.125h-2.016zm-.349.503l.1-.126h1.842l-.15.126H52.26zm-.299.502l.075-.126h1.693l-.1.126h-1.668zm-.224.502l.05-.125h1.568l-.1.125h-1.518zm-.174.503l.025-.126h1.493l-.074.126h-1.444zm-.15.502l.026-.126h1.418l-.05.126h-1.393zm-.124.502l.025-.125h1.394l-.05.125H51.29zm-.075.502l.025-.125h1.37l-.05.125h-1.345zm-.05.503l.026-.126h1.344l-.025.126h-1.344zm0 .502v-.126h1.345v.126h-1.344zm.026.502l-.025-.125h1.344l.025.125H51.19zm.05.503l-.026-.126h1.345l.05.126h-1.37zm.099.502l-.05-.126h1.37l.05.126h-1.37zm.1.502l-.025-.125h1.394l.05.125h-1.42zm.149.502l-.025-.125h1.444l.074.125h-1.493zm.224.503L51.737 11h1.544l.1.126h-1.57zm.249.502l-.075-.126h1.643l.125.126H52.06zm.299.502l-.075-.125h1.792l.125.125H52.36zm.373.503l-.075-.126h1.992l.15.126h-2.067zm.348.376h2.44l.249.126h-2.564l-.125-.126zm.573.503h3.61c.249 0 .597.025.821.05v.075h-4.282l-.149-.125zm.697.502h3.734v.126h-3.56l-.174-.126zm.871.502h2.863v.126h-2.539l-.324-.126zm1.693.503h1.17v.075h-.05l-1.12-.075zm10.807.552L74.99 0h.647l7.319 15.571h-3.934l-.746-1.557h-5.9l-.722 1.557h-3.933zm1.294-.703h1.967l4.182-9.092h.348l4.133 9.092h2.016L75.314 1.356l-6.298 13.512zm6.05-12.407l.05-.125h.348l.074.125h-.473zm-.25.503l.075-.126h.822l.05.126h-.947zm-.224.502l.05-.126h1.295l.074.126h-1.419zm-.249.502l.075-.125h1.768l.05.125h-1.893zm-.224.502l.05-.125h2.24l.075.125H74.12zm-.224.503l.05-.126h2.714l.05.126h-2.814zm-.249.502l.075-.126h3.162l.074.126h-3.31zm2.266.502l-.075-.125h1.294l.05.125h-1.27zm-2.49 0l.05-.125h1.344l-.074.125h-1.32zm2.714.503l-.075-.126h1.295l.074.126h-1.294zm-2.963 0l.075-.126h1.344l-.074.126h-1.345zm3.187.502l-.075-.126h1.32l.05.126H76.36zm-3.41 0l.05-.126h1.343l-.074.126h-1.32zm3.634.502l-.075-.125h1.32l.074.125h-1.32zm-3.884 0l.075-.125h1.344l-.074.125H72.7zm.847 3.868h3.46l-1.693-3.793h-.05l-1.717 3.793zm3.26-3.366l-.074-.125h1.344l.05.125h-1.32zm-4.33 0l.05-.125h1.343l-.074.125h-1.32zm4.555.503l-.075-.126h1.344l.075.126h-1.344zm-4.805 0l.075-.126h1.344l-.074.126h-1.345zm5.029.502l-.075-.126h1.37l.05.126h-1.345zm-5.253 0l.05-.126h1.344l-.074.126h-1.32zm5.477.502l-.075-.125h1.37l.074.125H77.48zm-5.7 0l.05-.125h1.343l-.074.125h-1.32zm5.85.377h1.393l.05.126h-1.369l-.075-.126zm-6.1.126l.075-.126h1.344l-.074.126H71.53zm6.299.376h1.418l.075.126h-1.419l-.074-.126zm-6.523.126l.05-.126H72.7l-.074.126h-1.32zm6.747.377h1.443l.05.125h-1.419l-.074-.125zM71.057 11l.075-.125h1.344l-.074.125h-1.345zm7.22.377h1.443l.075.125h-1.444l-.074-.125zm-7.444.125l.05-.125h1.37l-.075.125h-1.345zm7.643.377h1.493l.05.126H78.55l-.074-.126zm-7.892.126l.075-.126h1.37l-.075.126h-1.37zm2.067 1.33h5.327l-.573-1.255h-4.207l-.547 1.256zm.771-.828l.05-.126h3.61l.074.126h-3.734zm-.224.502l.05-.125h4.033l.05.125h-4.133zm14.118 2.562V.502h6.248c3.211 0 5.302 1.96 5.302 4.797 0 2.637-1.319 4.119-3.535 4.671l4.033 5.601h-4.58l-3.809-5.626v5.626h-3.66zm.92-.703h1.818v-5.4h1.643l3.66 5.4h2.464l-3.734-5.199v-.226c2.539-.301 3.858-1.582 3.858-3.993 0-2.587-1.892-4.245-4.381-4.245h-5.327v13.663zm1.843-13.26v-.126h3.485l1.17.125h-4.655zm0 .502v-.126h5.601l.2.126h-5.801zm0 .502v-.126h6.348l.124.126H90.08zm-.025 5.123V2.938h3.759c1.518 0 2.39 1.206 2.39 2.361 0 1.331-.921 2.436-2.29 2.436h-3.859zm4.929-4.746H96.9l.1.125h-1.743l-.274-.125zm.722.502h1.518l.05.125H95.88l-.174-.125zm-4.73 3.541h2.938c.821 0 1.369-.854 1.369-1.733 0-.879-.648-1.657-1.469-1.657h-2.838v3.39zm5.178-2.913l-.075-.126h1.37l.05.126h-1.345zm.249.502l-.075-.125h1.27v.125h-1.195zm.025.502v-.125h1.244v.125h-1.244zm.025.503V5.5h1.244v.126h-1.244zm-.125.502l.025-.126h1.295v.126h-1.32zm-.199.502l.075-.125h1.394l-.05.125h-1.419zm-.348.503l.124-.126h1.543l-.074.126H95.78zm-.598.502l.2-.126h1.817l-.1.126h-1.917zm-5.103.502v-.125H96.8l-.124.125h-6.597zm0 .502v-.125h6.074l-.224.125h-5.85zm0 .503v-.126h4.854l-.647.126h-4.207zm2.016.502l-.074-.126h1.767v.126h-1.693zm.324.502l-.075-.125h1.643l.125.125h-1.693zm.348.503l-.074-.126h1.668l.1.126h-1.694zm.324.502l-.075-.126h1.693l.125.126H93.09zm.274.377h1.718l.1.125H93.44l-.075-.125zm.324.502h1.742l.125.125h-1.793l-.074-.125zm.348.502h1.767l.1.126h-1.792l-.075-.126zm.349.502h1.767l.124.126H94.46l-.074-.126zm.348.503h1.792l.1.125h-1.817l-.075-.125zm.349.502h1.792l.124.126h-1.842l-.074-.126zm.348.502h1.817l.075.126h-1.817l-.075-.126zm7.197 1.03L109.897 0h.647l7.319 15.571h-3.933l-.747-1.557h-5.9l-.722 1.557h-3.933zm1.295-.703h1.966l4.182-9.092h.349l4.132 9.092h2.017L110.22 1.356l-6.298 13.512zm6.049-12.407l.05-.125h.348l.075.125h-.473zm-.25.503l.075-.126h.822l.05.126h-.946zm-.223.502l.05-.126h1.294l.075.126h-1.42zm-.25.502h1.893l-.05-.125h-1.768l-.074.125zm-.223.502l.05-.125h2.24l.075.125h-2.365zm-.224.503l.05-.126h2.713l.05.126h-2.813zm-.25.502l.075-.126h3.162l.075.126h-3.311zm2.266.502l-.075-.125h1.295l.05.125h-1.27zm-2.49 0l.05-.125h1.345l-.075.125h-1.32zm2.714.503l-.075-.126h1.295l.075.126h-1.295zm-2.962 0l.074-.126h1.345l-.075.126h-1.344zm3.186.502l-.075-.126h1.32l.05.126h-1.295zm-3.41 0l.05-.126h1.344l-.075.126h-1.32zm3.634.502l-.074-.125h1.319l.075.125h-1.32zm-3.883 0l.074-.125h1.345l-.075.125h-1.344zm.846 3.868h3.46l-1.692-3.793h-.05l-1.718 3.793zm3.261-3.366l-.074-.125h1.344l.05.125h-1.32zm-4.331 0l.05-.125h1.344l-.075.125h-1.32zm4.555.503l-.074-.126h1.344l.075.126h-1.345zm-4.804 0l.075-.126h1.344l-.075.126h-1.344zm5.028.502l-.074-.126h1.369l.05.126h-1.345zm-5.252 0l.05-.126h1.344l-.075.126h-1.32zm5.476.502l-.074-.125h1.369l.075.125h-1.37zm-5.7 0l.05-.125h1.344l-.075.125h-1.32zm5.85.377h1.394l.05.126h-1.37l-.074-.126zm-6.1.126l.075-.126h1.345l-.075.126h-1.344zm6.299.376h1.419l.075.126h-1.42l-.074-.126zm-6.522.126l.05-.126h1.344l-.075.126h-1.32zm6.746.377h1.444l.05.125h-1.42l-.074-.125zm-6.995.125l.075-.125h1.344l-.075.125h-1.344zm7.219.377h1.444l.074.125h-1.443l-.075-.125zm-7.443.125l.05-.125h1.369l-.075.125h-1.344zm7.642.377h1.494l.05.126h-1.47l-.074-.126zm-7.891.126l.075-.126h1.369l-.075.126h-1.37zm2.066 1.33h5.327l-.572-1.255h-4.207l-.548 1.256zm.772-.828l.05-.126h3.61l.074.126h-3.734zm-.224.502l.05-.125h4.032l.05.125h-4.132zm14.54 2.562V3.767h-3.36V.502h10.405v3.265h-3.385v11.804h-3.66zm.921-.703h1.818V3.064h3.385V1.205h-8.563v1.859h3.36v11.804zm-3.111-13.16v-.126h8.065v.126h-8.065zm0 .502v-.125h8.065v.125h-8.065zm0 .502v-.125h8.065v.125h-8.065z" style="mix-blend-mode:multiply" transform="translate(10 59.154)"/>
            <path fill="url(#m)" d="M0 15.571V.502h6.024c2.49 0 4.481 1.859 4.481 4.22 0 1.406-.572 2.285-1.618 3.089v.05c1.543 1.105 2.19 2.16 2.19 3.717 0 2.084-1.642 3.993-4.48 3.993H0zm.921-.703h5.676c2.265 0 3.56-1.582 3.56-3.29 0-1.306-.697-2.612-2.415-3.592v-.2c1.394-.83 1.842-1.859 1.842-3.064 0-1.96-1.593-3.517-3.56-3.517H.921v13.663zM2.713 1.683v-.126h4.033l.448.126h-4.48zm0 .477v-.126h5.178l-.025-.025.2.15H2.713zm0 .502v-.125h5.75l.1.125h-5.85zm0 4.546V3.014h2.664c1.394 0 2.365.904 2.365 2.084 0 1.256-.97 2.11-2.365 2.11H2.713zm3.934-4.17h2.215l.05.126H6.92l-.273-.125zm.846.629l-.124-.126h1.717l.05.126H7.493zM3.634 6.505h1.743c.846 0 1.444-.578 1.444-1.407 0-.778-.598-1.381-1.444-1.381H3.634v2.788zm4.133-2.361l-.05-.1H9.26v.1H7.767zm.174.502l-.025-.125H9.31v.125H7.941zm.05.502v-.125h1.32v.125H7.99zm-.075.503l.05-.126h1.27l-.05.126h-1.27zm-.15.502l.075-.126h1.22l-.074.126h-1.22zm-.348.477l.125-.125h1.244l-.1.125H7.419zm-.522.503l.149-.126h1.344l-.15.126H6.897zm-4.183.502v-.126h5.004l-.174.126h-4.83zm0 .502v-.125h4.705l.175.125h-4.88zm0 .477v-.1h5.402l.125.1H2.713zm0 4.37V8.941H5.85c1.394 0 2.315.929 2.315 2.034 0 1.23-.921 2.01-2.315 2.01H2.713zm4.531-3.993h1.444l.124.126H7.443l-.199-.126zm.573.502h1.319l.1.126H7.94l-.124-.126zm-4.183 2.788H5.85c.846 0 1.394-.502 1.394-1.306 0-.728-.548-1.331-1.394-1.331H3.634v2.637zm4.531-2.285h1.27l.074.125H8.24l-.074-.125zm.224.627l-.025-.125h1.32l.05.125H8.388zm.025.478v-.126h1.419v.126H8.414zm-.075.502l.025-.126h1.544v.126H8.339zm-.224.502l.075-.125h1.693l-.05.125H8.115zm-.398.503l.124-.126h1.917l-.05.126H7.718zm-.747.477l.2-.1h2.364l-.05.1H6.97zm-4.257.502v-.126h6.523l-.125.126H2.713zm0 .502v-.125h6l-.174.125H2.713zm0 .503v-.126h4.93l-1.046.126H2.713zm11.355.979L21.337 0h.647l7.319 15.571h-3.934l-.746-1.557h-5.9L18 15.57h-3.933zm1.294-.703h1.967l4.182-9.092h.348l4.133 9.092h2.016L21.66 1.356l-6.298 13.512zm6.05-12.407l.05-.125h.348l.074.125h-.473zm-.25.503l.075-.126h.822l.05.126h-.947zm-.224.502l.05-.126h1.295l.074.126h-1.419zm-.249.502l.075-.125h1.767l.05.125H20.69zm-.224.502l.05-.125h2.24l.075.125h-2.365zm-.224.503l.05-.126h2.713l.05.126h-2.813zm-.249.502l.075-.126h3.162l.074.126h-3.31zm2.266.502l-.075-.125h1.294l.05.125h-1.27zm-2.49 0l.05-.125h1.344l-.074.125h-1.32zm2.714.503l-.075-.126h1.294l.075.126h-1.294zm-2.963 0l.075-.126h1.344l-.074.126h-1.345zm3.187.502l-.075-.126h1.32l.05.126h-1.295zm-3.41 0l.05-.126h1.343l-.074.126h-1.32zm3.634.502l-.075-.125h1.32l.074.125h-1.32zm-3.884 0l.075-.125h1.344l-.074.125h-1.345zm.847 3.868h3.46L21.66 7.559h-.05l-1.717 3.793zm3.26-3.366l-.074-.125h1.344l.05.125h-1.32zm-4.33 0l.05-.125h1.343l-.074.125h-1.32zm4.555.503l-.075-.126h1.344l.075.126h-1.344zm-4.805 0l.075-.126h1.344l-.074.126h-1.345zm5.029.502l-.075-.126h1.37l.05.126h-1.345zm-5.253 0l.05-.126h1.344l-.074.126h-1.32zm5.477.502l-.075-.125h1.37l.074.125h-1.369zm-5.7 0l.05-.125h1.343l-.074.125h-1.32zm5.85.377h1.393l.05.126H24.05l-.075-.126zm-6.1.126l.075-.126h1.344l-.074.126h-1.345zm6.298.376h1.42l.074.126H24.25l-.075-.126zm-6.522.126l.05-.126h1.344l-.074.126h-1.32zm6.747.377h1.443l.05.125h-1.419l-.074-.125zM17.403 11l.075-.125h1.344l-.074.125h-1.345zm7.22.377h1.443l.075.125h-1.444l-.074-.125zm-7.444.125l.05-.125h1.37l-.075.125h-1.345zm7.643.377h1.493l.05.126h-1.469l-.074-.126zm-7.892.126l.075-.126h1.37l-.075.126h-1.37zm2.067 1.33h5.327l-.573-1.255h-4.207l-.547 1.256zm.771-.828l.05-.126h3.61l.074.126h-3.734zm-.224.502l.05-.125h4.033l.05.125h-4.133zm12.027-4.972C31.57 3.54 34.93 0 39.66 0c2.838 0 4.805 1.08 6.398 2.763l-2.515 2.41c-1.045-1.03-2.39-1.682-3.883-1.682-2.664 0-4.381 2.01-4.381 4.546 0 2.536 1.717 4.545 4.381 4.545 1.494 0 2.838-.653 3.883-1.682l2.44 2.41c-1.494 1.583-3.56 2.763-6.323 2.763-4.73 0-8.09-3.54-8.09-8.036zm.92 0c0 4.093 3.013 7.333 7.17 7.333 2.19 0 3.834-.703 5.228-2.01l-1.42-1.456c-.895.804-2.314 1.382-3.808 1.382-3.211 0-5.327-2.31-5.327-5.25 0-2.938 2.116-5.248 5.327-5.248 1.419 0 2.788.527 3.859 1.356l1.419-1.381C43.619 1.406 41.9.703 39.66.703c-4.157 0-7.17 3.24-7.17 7.334zm5.9-6.957c.424-.075.548-.1 1.27-.1v.1h-1.27zm-1.642.502l.323-.125h2.59v.125h-2.913zm-.897.503l.2-.126h3.61v.126h-3.81zm-.722.502l.2-.126h4.331v.05l-.97.076h-3.56zm-.497.502l.124-.125h2.614l-.324.125h-2.414zm-.449.502l.1-.125h2.091l-.174.125h-2.017zm-.348.503l.1-.126h1.842l-.15.126h-1.792zm-.299.502l.075-.126h1.693l-.1.126h-1.668zm-.224.502l.05-.125h1.568l-.1.125h-1.518zm-.174.503l.025-.126h1.493l-.074.126h-1.444zm-.15.502l.025-.126h1.42l-.05.126H32.99zm-.124.502l.025-.125h1.394l-.05.125h-1.369zm-.075.502l.025-.125h1.37l-.05.125H32.79zm-.05.503l.026-.126h1.344l-.025.126H32.74zm0 .502v-.126h1.345v.126H32.74zm.026.502l-.025-.125h1.344l.025.125h-1.344zm.05.503l-.026-.126h1.345l.05.126h-1.37zm.099.502l-.05-.126h1.37l.049.126h-1.37zm.1.502l-.025-.125h1.394l.05.125h-1.42zm.149.502l-.025-.125h1.444l.074.125h-1.493zm.224.503L33.313 11h1.544l.1.126h-1.57zm.249.502l-.075-.126h1.643l.125.126h-1.693zm.299.502l-.075-.125h1.792l.125.125h-1.842zm.373.503l-.075-.126h1.992l.15.126h-2.067zm.348.376h2.44l.249.126h-2.564l-.125-.126zm.573.503h3.61c.249 0 .597.025.821.05v.075H35.38l-.149-.125zm.697.502h3.734v.126h-3.56l-.174-.126zm.871.502h2.863v.126h-2.54l-.323-.126zm1.693.503h1.17v.075h-.05l-1.12-.075zm11.504-6.982c0-4.496 3.36-8.037 8.09-8.037 2.838 0 4.805 1.08 6.398 2.763l-2.514 2.41c-1.046-1.03-2.39-1.682-3.884-1.682-2.664 0-4.381 2.01-4.381 4.546 0 2.536 1.717 4.545 4.381 4.545 1.494 0 2.838-.653 3.884-1.682l2.44 2.41c-1.495 1.583-3.56 2.763-6.324 2.763-4.73 0-8.09-3.54-8.09-8.036zm.92 0c0 4.093 3.013 7.333 7.17 7.333 2.19 0 3.834-.703 5.228-2.01l-1.42-1.456c-.895.804-2.314 1.382-3.808 1.382-3.211 0-5.327-2.31-5.327-5.25 0-2.938 2.116-5.248 5.327-5.248 1.419 0 2.788.527 3.859 1.356l1.419-1.381c-1.32-1.357-3.037-2.06-5.278-2.06-4.157 0-7.17 3.24-7.17 7.334zm5.9-6.957c.424-.075.548-.1 1.27-.1v.1h-1.27zm-1.642.502l.323-.125h2.59v.125h-2.913zm-.897.503l.2-.126h3.61v.126h-3.81zm-.722.502l.2-.126h4.331v.05l-.97.076h-3.56zm-.497.502l.124-.125h2.614l-.324.125h-2.414zm-.448.502l.1-.125h2.09l-.174.125h-2.016zm-.349.503l.1-.126h1.842l-.15.126H52.26zm-.299.502l.075-.126h1.693l-.1.126h-1.668zm-.224.502l.05-.125h1.568l-.1.125h-1.518zm-.174.503l.025-.126h1.493l-.074.126h-1.444zm-.15.502l.026-.126h1.418l-.05.126h-1.393zm-.124.502l.025-.125h1.394l-.05.125H51.29zm-.075.502l.025-.125h1.37l-.05.125h-1.345zm-.05.503l.026-.126h1.344l-.025.126h-1.344zm0 .502v-.126h1.345v.126h-1.344zm.026.502l-.025-.125h1.344l.025.125H51.19zm.05.503l-.026-.126h1.345l.05.126h-1.37zm.099.502l-.05-.126h1.37l.05.126h-1.37zm.1.502l-.025-.125h1.394l.05.125h-1.42zm.149.502l-.025-.125h1.444l.074.125h-1.493zm.224.503L51.737 11h1.544l.1.126h-1.57zm.249.502l-.075-.126h1.643l.125.126H52.06zm.299.502l-.075-.125h1.792l.125.125H52.36zm.373.503l-.075-.126h1.992l.15.126h-2.067zm.348.376h2.44l.249.126h-2.564l-.125-.126zm.573.503h3.61c.249 0 .597.025.821.05v.075h-4.282l-.149-.125zm.697.502h3.734v.126h-3.56l-.174-.126zm.871.502h2.863v.126h-2.539l-.324-.126zm1.693.503h1.17v.075h-.05l-1.12-.075zm10.807.552L74.99 0h.647l7.319 15.571h-3.934l-.746-1.557h-5.9l-.722 1.557h-3.933zm1.294-.703h1.967l4.182-9.092h.348l4.133 9.092h2.016L75.314 1.356l-6.298 13.512zm6.05-12.407l.05-.125h.348l.074.125h-.473zm-.25.503l.075-.126h.822l.05.126h-.947zm-.224.502l.05-.126h1.295l.074.126h-1.419zm-.249.502l.075-.125h1.768l.05.125h-1.893zm-.224.502l.05-.125h2.24l.075.125H74.12zm-.224.503l.05-.126h2.714l.05.126h-2.814zm-.249.502l.075-.126h3.162l.074.126h-3.31zm2.266.502l-.075-.125h1.294l.05.125h-1.27zm-2.49 0l.05-.125h1.344l-.074.125h-1.32zm2.714.503l-.075-.126h1.295l.074.126h-1.294zm-2.963 0l.075-.126h1.344l-.074.126h-1.345zm3.187.502l-.075-.126h1.32l.05.126H76.36zm-3.41 0l.05-.126h1.343l-.074.126h-1.32zm3.634.502l-.075-.125h1.32l.074.125h-1.32zm-3.884 0l.075-.125h1.344l-.074.125H72.7zm.847 3.868h3.46l-1.693-3.793h-.05l-1.717 3.793zm3.26-3.366l-.074-.125h1.344l.05.125h-1.32zm-4.33 0l.05-.125h1.343l-.074.125h-1.32zm4.555.503l-.075-.126h1.344l.075.126h-1.344zm-4.805 0l.075-.126h1.344l-.074.126h-1.345zm5.029.502l-.075-.126h1.37l.05.126h-1.345zm-5.253 0l.05-.126h1.344l-.074.126h-1.32zm5.477.502l-.075-.125h1.37l.074.125H77.48zm-5.7 0l.05-.125h1.343l-.074.125h-1.32zm5.85.377h1.393l.05.126h-1.369l-.075-.126zm-6.1.126l.075-.126h1.344l-.074.126H71.53zm6.299.376h1.418l.075.126h-1.419l-.074-.126zm-6.523.126l.05-.126H72.7l-.074.126h-1.32zm6.747.377h1.443l.05.125h-1.419l-.074-.125zM71.057 11l.075-.125h1.344l-.074.125h-1.345zm7.22.377h1.443l.075.125h-1.444l-.074-.125zm-7.444.125l.05-.125h1.37l-.075.125h-1.345zm7.643.377h1.493l.05.126H78.55l-.074-.126zm-7.892.126l.075-.126h1.37l-.075.126h-1.37zm2.067 1.33h5.327l-.573-1.255h-4.207l-.547 1.256zm.771-.828l.05-.126h3.61l.074.126h-3.734zm-.224.502l.05-.125h4.033l.05.125h-4.133zm14.118 2.562V.502h6.248c3.211 0 5.302 1.96 5.302 4.797 0 2.637-1.319 4.119-3.535 4.671l4.033 5.601h-4.58l-3.809-5.626v5.626h-3.66zm.92-.703h1.818v-5.4h1.643l3.66 5.4h2.464l-3.734-5.199v-.226c2.539-.301 3.858-1.582 3.858-3.993 0-2.587-1.892-4.245-4.381-4.245h-5.327v13.663zm1.843-13.26v-.126h3.485l1.17.125h-4.655zm0 .502v-.126h5.601l.2.126h-5.801zm0 .502v-.126h6.348l.124.126H90.08zm-.025 5.123V2.938h3.759c1.518 0 2.39 1.206 2.39 2.361 0 1.331-.921 2.436-2.29 2.436h-3.859zm4.929-4.746H96.9l.1.125h-1.743l-.274-.125zm.722.502h1.518l.05.125H95.88l-.174-.125zm-4.73 3.541h2.938c.821 0 1.369-.854 1.369-1.733 0-.879-.648-1.657-1.469-1.657h-2.838v3.39zm5.178-2.913l-.075-.126h1.37l.05.126h-1.345zm.249.502l-.075-.125h1.27v.125h-1.195zm.025.502v-.125h1.244v.125h-1.244zm.025.503V5.5h1.244v.126h-1.244zm-.125.502l.025-.126h1.295v.126h-1.32zm-.199.502l.075-.125h1.394l-.05.125h-1.419zm-.348.503l.124-.126h1.543l-.074.126H95.78zm-.598.502l.2-.126h1.817l-.1.126h-1.917zm-5.103.502v-.125H96.8l-.124.125h-6.597zm0 .502v-.125h6.074l-.224.125h-5.85zm0 .503v-.126h4.854l-.647.126h-4.207zm2.016.502l-.074-.126h1.767v.126h-1.693zm.324.502l-.075-.125h1.643l.125.125h-1.693zm.348.503l-.074-.126h1.668l.1.126h-1.694zm.324.502l-.075-.126h1.693l.125.126H93.09zm.274.377h1.718l.1.125H93.44l-.075-.125zm.324.502h1.742l.125.125h-1.793l-.074-.125zm.348.502h1.767l.1.126h-1.792l-.075-.126zm.349.502h1.767l.124.126H94.46l-.074-.126zm.348.503h1.792l.1.125h-1.817l-.075-.125zm.349.502h1.792l.124.126h-1.842l-.074-.126zm.348.502h1.817l.075.126h-1.817l-.075-.126zm7.197 1.03L109.897 0h.647l7.319 15.571h-3.933l-.747-1.557h-5.9l-.722 1.557h-3.933zm1.295-.703h1.966l4.182-9.092h.349l4.132 9.092h2.017L110.22 1.356l-6.298 13.512zm6.049-12.407l.05-.125h.348l.075.125h-.473zm-.25.503l.075-.126h.822l.05.126h-.946zm-.223.502l.05-.126h1.294l.075.126h-1.42zm-.25.502h1.893l-.05-.125h-1.768l-.074.125zm-.223.502l.05-.125h2.24l.075.125h-2.365zm-.224.503l.05-.126h2.713l.05.126h-2.813zm-.25.502l.075-.126h3.162l.075.126h-3.311zm2.266.502l-.075-.125h1.295l.05.125h-1.27zm-2.49 0l.05-.125h1.345l-.075.125h-1.32zm2.714.503l-.075-.126h1.295l.075.126h-1.295zm-2.962 0l.074-.126h1.345l-.075.126h-1.344zm3.186.502l-.075-.126h1.32l.05.126h-1.295zm-3.41 0l.05-.126h1.344l-.075.126h-1.32zm3.634.502l-.074-.125h1.319l.075.125h-1.32zm-3.883 0l.074-.125h1.345l-.075.125h-1.344zm.846 3.868h3.46l-1.692-3.793h-.05l-1.718 3.793zm3.261-3.366l-.074-.125h1.344l.05.125h-1.32zm-4.331 0l.05-.125h1.344l-.075.125h-1.32zm4.555.503l-.074-.126h1.344l.075.126h-1.345zm-4.804 0l.075-.126h1.344l-.075.126h-1.344zm5.028.502l-.074-.126h1.369l.05.126h-1.345zm-5.252 0l.05-.126h1.344l-.075.126h-1.32zm5.476.502l-.074-.125h1.369l.075.125h-1.37zm-5.7 0l.05-.125h1.344l-.075.125h-1.32zm5.85.377h1.394l.05.126h-1.37l-.074-.126zm-6.1.126l.075-.126h1.345l-.075.126h-1.344zm6.299.376h1.419l.075.126h-1.42l-.074-.126zm-6.522.126l.05-.126h1.344l-.075.126h-1.32zm6.746.377h1.444l.05.125h-1.42l-.074-.125zm-6.995.125l.075-.125h1.344l-.075.125h-1.344zm7.219.377h1.444l.074.125h-1.443l-.075-.125zm-7.443.125l.05-.125h1.369l-.075.125h-1.344zm7.642.377h1.494l.05.126h-1.47l-.074-.126zm-7.891.126l.075-.126h1.369l-.075.126h-1.37zm2.066 1.33h5.327l-.572-1.255h-4.207l-.548 1.256zm.772-.828l.05-.126h3.61l.074.126h-3.734zm-.224.502l.05-.125h4.032l.05.125h-4.132zm14.54 2.562V3.767h-3.36V.502h10.405v3.265h-3.385v11.804h-3.66zm.921-.703h1.818V3.064h3.385V1.205h-8.563v1.859h3.36v11.804zm-3.111-13.16v-.126h8.065v.126h-8.065zm0 .502v-.125h8.065v.125h-8.065zm0 .502v-.125h8.065v.125h-8.065z" style="mix-blend-mode:soft-light" transform="translate(10 59.154)"/>
            <path fill="#DCAF72" d="M12.688 81.742c1.371 0 1.987.726 2.267 1.42.023.054.031.11.031.157 0 .165-.124.276-.241.315a.518.518 0 0 1-.187.032.34.34 0 0 1-.327-.205c-.234-.568-.624-1.033-1.512-1.033-1.169 0-1.94.954-1.94 2.507 0 1.521.771 2.499 1.94 2.499.935 0 1.38-.568 1.582-1.198a.353.353 0 0 1 .35-.245c.047 0 .102.008.156.024.133.032.273.15.273.315a.405.405 0 0 1-.024.134c-.272.78-.927 1.664-2.314 1.664-1.675 0-2.742-1.238-2.742-3.2 0-1.916 1.067-3.186 2.688-3.186zm8.536 5.992v-3.84c0-.205.148-.307.366-.307.195 0 .351.102.351.307v.174c0 .11-.031.244-.047.37.125-.378.522-.867 1.192-.89.063-.008.117-.008.172-.008.117 0 .202.015.311.04.18.023.25.133.25.283 0 .04-.008.087-.016.134-.031.165-.14.307-.304.307-.023 0-.047 0-.07-.008-.109-.023-.21-.047-.374-.047-.335.008-.592.181-.787.434-.202.252-.32.544-.327.875v2.176c0 .212-.156.315-.35.315-.219 0-.367-.103-.367-.315zm10.29-1.317l.981-2.617c.055-.15.172-.205.304-.205.047 0 .094.008.14.016.148.039.257.15.257.291 0 .04-.007.087-.023.134l-1.839 4.612c-.272.678-.592 1.127-1.355 1.127-.195 0-.382-.031-.561-.102-.156-.055-.218-.166-.218-.284 0-.063.015-.118.039-.181.054-.134.155-.221.288-.221.047 0 .093.008.148.032.109.047.25.102.39.102.334 0 .498-.3.638-.662l.218-.552-1.573-3.863a.36.36 0 0 1-.024-.126c0-.142.117-.26.257-.307a.587.587 0 0 1 .164-.024c.125 0 .242.055.296.197l.982 2.617c.093.253.163.544.233.789.063-.245.172-.544.258-.773zm8.341 1.246v1.734c0 .197-.132.307-.343.307-.218 0-.35-.11-.35-.307v-5.503c0-.205.132-.307.35-.307.195 0 .343.095.343.292v.142c0 .11-.008.3-.031.433.273-.56.701-.93 1.457-.93 1.169 0 1.83.86 1.83 2.262 0 1.404-.7 2.334-1.861 2.334-.725 0-1.169-.363-1.434-.915.031.15.04.316.04.458zm1.325-3.524c-.857 0-1.34.701-1.34 1.671 0 .978.506 1.687 1.324 1.687.787 0 1.231-.678 1.231-1.695 0-1.025-.428-1.663-1.215-1.663zm8.497-.505v-.954c0-.205.133-.315.35-.315.203 0 .351.11.351.315v.954h.998c.194 0 .288.126.288.316 0 .18-.102.307-.288.307h-.998v2.64c0 .387.164.553.452.553a.835.835 0 0 0 .46-.134.315.315 0 0 1 .14-.04c.117 0 .21.087.257.205a.454.454 0 0 1 .031.174.31.31 0 0 1-.163.284c-.226.11-.437.173-.772.173-.638 0-1.106-.323-1.106-1.151v-2.704h-.608c-.187 0-.272-.126-.272-.307 0-.182.085-.316.28-.316h.6zm9.69-.11c1.246 0 1.978.914 1.978 2.286 0 1.372-.748 2.318-1.963 2.318-1.285 0-2.033-.915-2.033-2.318 0-1.364.755-2.286 2.017-2.286zm.023.607c-.842 0-1.325.654-1.325 1.703 0 1 .468 1.687 1.27 1.687.85 0 1.294-.67 1.294-1.719 0-.993-.444-1.671-1.24-1.671zm8.902.993v1.94c0 .18.117.252.289.252h2.789c.202 0 .312.142.312.339 0 .189-.11.347-.312.347h-3.015c-.553 0-.795-.245-.795-.844v-4.446c0-.607.242-.851.795-.851H71.3c.202 0 .311.141.311.339 0 .197-.109.346-.311.346h-2.743c-.187 0-.265.087-.265.276v1.632h2.657c.195 0 .304.142.304.34 0 .18-.117.33-.304.33h-2.657zm12.448-1.277V82.13c0-.213.148-.316.343-.316.218 0 .35.103.35.316v5.605c0 .212-.14.315-.358.315-.226 0-.335-.126-.335-.292v-.165c0-.087.015-.253.023-.363-.265.552-.709.89-1.433.89-1.138 0-1.855-.906-1.855-2.325 0-1.38.71-2.27 1.862-2.27.725 0 1.161.347 1.434.906a7.516 7.516 0 0 1-.031-.583zm-1.309.292c-.787 0-1.239.662-1.239 1.663 0 1.033.452 1.703 1.239 1.703.818 0 1.324-.717 1.324-1.695 0-.962-.467-1.671-1.324-1.671zm8.31 3.595v-3.84c0-.205.133-.307.351-.307.21 0 .358.102.358.307v3.84c0 .212-.148.315-.358.315-.218 0-.35-.103-.35-.315zm.359-5.929a.52.52 0 0 1 .522.529.522.522 0 0 1-.522.536.524.524 0 0 1-.53-.536c0-.3.234-.529.53-.529zm7.118 1.83v-.955c0-.205.133-.315.35-.315.203 0 .351.11.351.315v.954h.998c.194 0 .288.126.288.316 0 .18-.101.307-.288.307h-.998v2.64c0 .387.164.553.452.553a.835.835 0 0 0 .46-.134.315.315 0 0 1 .14-.04c.117 0 .21.087.257.205a.454.454 0 0 1 .031.174.31.31 0 0 1-.163.284c-.226.11-.436.173-.771.173-.64 0-1.107-.323-1.107-1.151v-2.704h-.608c-.187 0-.272-.126-.272-.307 0-.182.085-.316.28-.316h.6zm7.874 4.099v-3.84c0-.205.133-.307.35-.307.211 0 .36.102.36.307v3.84c0 .212-.149.315-.36.315-.217 0-.35-.103-.35-.315zm.359-5.929a.52.52 0 0 1 .522.529.522.522 0 0 1-.522.536.524.524 0 0 1-.53-.536c0-.3.234-.529.53-.529zm8.474 1.719c1.246 0 1.979.914 1.979 2.286 0 1.372-.748 2.318-1.964 2.318-1.285 0-2.033-.915-2.033-2.318 0-1.364.756-2.286 2.018-2.286zm.023.607c-.841 0-1.324.654-1.324 1.703 0 1 .467 1.687 1.27 1.687.849 0 1.293-.67 1.293-1.719 0-.993-.444-1.671-1.239-1.671zm11.637.93v2.673c0 .212-.156.315-.358.315-.21 0-.358-.103-.358-.315V85.21c0-.67-.265-1.049-.85-1.049-.42 0-.771.19-1.036.56-.195.268-.273.497-.273.804v2.208c0 .212-.148.315-.35.315-.218 0-.359-.103-.359-.315v-3.84c0-.205.148-.307.367-.307.202 0 .342.102.342.307v.213c0 .103-.023.182-.03.331.272-.56.74-.914 1.48-.914.927 0 1.425.568 1.425 1.537z"/>
        </g>
    </g>
</svg>
