<svg xmlns="http://www.w3.org/2000/svg" xmlns:xlink="http://www.w3.org/1999/xlink" width="362" height="102" viewBox="0 0 362 102">
    <defs>
        <rect id="a" width="360" height="100" rx="4"/>
        <linearGradient id="c" x1="0%" y1="46.142%" y2="53.858%">
            <stop offset="0%" stop-color="#FFDB9F"/>
            <stop offset="49.987%" stop-color="#9A7B46"/>
            <stop offset="100%" stop-color="#CBAA70"/>
        </linearGradient>
        <rect id="b" width="360" height="100" rx="4"/>
        <filter id="e" width="187%" height="187%" x="-43.5%" y="-43.5%" filterUnits="objectBoundingBox">
            <feGaussianBlur in="SourceGraphic" stdDeviation="29"/>
        </filter>
        <filter id="f" width="265.7%" height="265.7%" x="-82.9%" y="-82.9%" filterUnits="objectBoundingBox">
            <feGaussianBlur in="SourceGraphic" stdDeviation="29"/>
        </filter>
        <linearGradient id="g" x1="56.384%" x2="35.944%" y1="0%" y2="100%">
            <stop offset="0%" stop-color="#FBD249"/>
            <stop offset="100%" stop-color="#F5A623"/>
        </linearGradient>
        <linearGradient id="h" x1="92.922%" x2="-11.062%" y1="93.618%" y2="64.782%">
            <stop offset="0%" stop-color="#FAD961"/>
            <stop offset="100%" stop-color="#F76B1C"/>
        </linearGradient>
        <radialGradient id="i" cx="100%" cy="11.566%" r="116.971%" fx="100%" fy="11.566%" gradientTransform="matrix(.9985 .05455 -.05755 1.04854 .008 -.06)">
            <stop offset="0%" stop-color="#FFBB7B"/>
            <stop offset="35.075%" stop-color="#FFF4F4" stop-opacity=".649"/>
            <stop offset="100%" stop-color="#FFF" stop-opacity="0"/>
        </radialGradient>
        <linearGradient id="j" x1="14.995%" x2="85.005%" y1="0%" y2="100%">
            <stop offset="0%" stop-color="#2A2A2A"/>
            <stop offset="100%" stop-color="#313347"/>
        </linearGradient>
        <path id="l" d="M24.692 12.017c3.853-1.035 7.814 1.257 8.846 5.12 1.033 3.862-1.254 7.832-5.107 8.867-3.854 1.035-7.814-1.257-8.846-5.12-1.033-3.863 1.254-7.833 5.107-8.867zm41.358 5.12c1.032 3.862-1.254 7.832-5.108 8.867-3.853 1.035-7.813-1.257-8.846-5.12-1.032-3.863 1.254-7.833 5.108-8.867 3.853-1.035 7.814 1.257 8.846 5.12zM24.692 53.657c3.853-1.035 7.814 1.257 8.846 5.12 1.033 3.862-1.254 7.832-5.107 8.867-3.853 1.035-7.814-1.257-8.846-5.12-1.033-3.862 1.254-7.832 5.107-8.867zm32.512 0c3.853-1.035 7.814 1.257 8.846 5.12 1.032 3.862-1.254 7.832-5.108 8.867-3.853 1.035-7.813-1.257-8.846-5.12-1.032-3.862 1.254-7.832 5.108-8.867zM33.786 39.831c0 4-3.235 7.242-7.225 7.242-3.99 0-7.224-3.243-7.224-7.242 0-4 3.234-7.242 7.224-7.242s7.225 3.242 7.225 7.242zm25.287-7.242c3.99 0 7.225 3.242 7.225 7.242s-3.235 7.242-7.225 7.242c-3.99 0-7.225-3.243-7.225-7.242 0-4 3.235-7.242 7.225-7.242z"/>
        <filter id="k" width="108.5%" height="107.1%" x="-4.3%" y="-1.8%" filterUnits="objectBoundingBox">
            <feOffset dy="1" in="SourceAlpha" result="shadowOffsetOuter1"/>
            <feGaussianBlur in="shadowOffsetOuter1" result="shadowBlurOuter1" stdDeviation=".5"/>
            <feColorMatrix in="shadowBlurOuter1" values="0 0 0 0 0 0 0 0 0 0 0 0 0 0 0 0 0 0 0.5 0"/>
        </filter>
        <filter id="m" width="110.6%" height="108.9%" x="-5.3%" y="-2.7%" filterUnits="objectBoundingBox">
            <feGaussianBlur in="SourceAlpha" result="shadowBlurInner1" stdDeviation="1"/>
            <feOffset dy="1" in="shadowBlurInner1" result="shadowOffsetInner1"/>
            <feComposite in="shadowOffsetInner1" in2="SourceAlpha" k2="-1" k3="1" operator="arithmetic" result="shadowInnerInner1"/>
            <feColorMatrix in="shadowInnerInner1" values="0 0 0 0 0 0 0 0 0 0 0 0 0 0 0 0 0 0 0.859658062 0"/>
        </filter>
        <path id="o" d="M24.692 12.017c3.853-1.035 7.814 1.257 8.846 5.12 1.033 3.862-1.254 7.832-5.107 8.867-3.854 1.035-7.814-1.257-8.846-5.12-1.033-3.863 1.254-7.833 5.107-8.867zm41.358 5.12c1.032 3.862-1.254 7.832-5.108 8.867-3.853 1.035-7.813-1.257-8.846-5.12-1.032-3.863 1.254-7.833 5.108-8.867 3.853-1.035 7.814 1.257 8.846 5.12zM24.692 53.657c3.853-1.035 7.814 1.257 8.846 5.12 1.033 3.862-1.254 7.832-5.107 8.867-3.853 1.035-7.814-1.257-8.846-5.12-1.033-3.862 1.254-7.832 5.107-8.867zm32.512 0c3.853-1.035 7.814 1.257 8.846 5.12 1.032 3.862-1.254 7.832-5.108 8.867-3.853 1.035-7.813-1.257-8.846-5.12-1.032-3.862 1.254-7.832 5.108-8.867zM33.786 39.831c0 4-3.235 7.242-7.225 7.242-3.99 0-7.224-3.243-7.224-7.242 0-4 3.234-7.242 7.224-7.242s7.225 3.242 7.225 7.242zm25.287-7.242c3.99 0 7.225 3.242 7.225 7.242s-3.235 7.242-7.225 7.242c-3.99 0-7.225-3.243-7.225-7.242 0-4 3.235-7.242 7.225-7.242z"/>
        <filter id="n" width="108.5%" height="107.1%" x="-4.3%" y="-1.8%" filterUnits="objectBoundingBox">
            <feOffset dy="1" in="SourceAlpha" result="shadowOffsetOuter1"/>
            <feGaussianBlur in="shadowOffsetOuter1" result="shadowBlurOuter1" stdDeviation=".5"/>
            <feColorMatrix in="shadowBlurOuter1" values="0 0 0 0 0 0 0 0 0 0 0 0 0 0 0 0 0 0 0.5 0"/>
        </filter>
        <filter id="p" width="110.6%" height="108.9%" x="-5.3%" y="-2.7%" filterUnits="objectBoundingBox">
            <feGaussianBlur in="SourceAlpha" result="shadowBlurInner1" stdDeviation="1"/>
            <feOffset dy="1" in="shadowBlurInner1" result="shadowOffsetInner1"/>
            <feComposite in="shadowOffsetInner1" in2="SourceAlpha" k2="-1" k3="1" operator="arithmetic" result="shadowInnerInner1"/>
            <feColorMatrix in="shadowInnerInner1" values="0 0 0 0 0 0 0 0 0 0 0 0 0 0 0 0 0 0 0.859658062 0"/>
        </filter>
        <path id="r" d="M24.692 12.017c3.853-1.035 7.814 1.257 8.846 5.12 1.033 3.862-1.254 7.832-5.107 8.867-3.854 1.035-7.814-1.257-8.846-5.12-1.033-3.863 1.254-7.833 5.107-8.867zm41.358 5.12c1.032 3.862-1.254 7.832-5.108 8.867-3.853 1.035-7.813-1.257-8.846-5.12-1.032-3.863 1.254-7.833 5.108-8.867 3.853-1.035 7.814 1.257 8.846 5.12zM24.692 53.657c3.853-1.035 7.814 1.257 8.846 5.12 1.033 3.862-1.254 7.832-5.107 8.867-3.853 1.035-7.814-1.257-8.846-5.12-1.033-3.862 1.254-7.832 5.107-8.867zm32.512 0c3.853-1.035 7.814 1.257 8.846 5.12 1.032 3.862-1.254 7.832-5.108 8.867-3.853 1.035-7.813-1.257-8.846-5.12-1.032-3.862 1.254-7.832 5.108-8.867zM33.786 39.831c0 4-3.235 7.242-7.225 7.242-3.99 0-7.224-3.243-7.224-7.242 0-4 3.234-7.242 7.224-7.242s7.225 3.242 7.225 7.242zm25.287-7.242c3.99 0 7.225 3.242 7.225 7.242s-3.235 7.242-7.225 7.242c-3.99 0-7.225-3.243-7.225-7.242 0-4 3.235-7.242 7.225-7.242z"/>
        <filter id="q" width="108.5%" height="107.1%" x="-4.3%" y="-1.8%" filterUnits="objectBoundingBox">
            <feOffset dy="1" in="SourceAlpha" result="shadowOffsetOuter1"/>
            <feGaussianBlur in="shadowOffsetOuter1" result="shadowBlurOuter1" stdDeviation=".5"/>
            <feColorMatrix in="shadowBlurOuter1" values="0 0 0 0 0 0 0 0 0 0 0 0 0 0 0 0 0 0 0.5 0"/>
        </filter>
        <filter id="s" width="110.6%" height="108.9%" x="-5.3%" y="-2.7%" filterUnits="objectBoundingBox">
            <feGaussianBlur in="SourceAlpha" result="shadowBlurInner1" stdDeviation="1"/>
            <feOffset dy="1" in="shadowBlurInner1" result="shadowOffsetInner1"/>
            <feComposite in="shadowOffsetInner1" in2="SourceAlpha" k2="-1" k3="1" operator="arithmetic" result="shadowInnerInner1"/>
            <feColorMatrix in="shadowInnerInner1" values="0 0 0 0 0 0 0 0 0 0 0 0 0 0 0 0 0 0 0.859658062 0"/>
        </filter>
        <radialGradient id="t" cx="51.204%" r="4591.541%" fx="51.204%" fy="50%" gradientTransform="matrix(.01534 0 0 1 .504 0)">
            <stop offset="0%" stop-color="#FFE864"/>
            <stop offset="36.396%" stop-color="#FFEB80" stop-opacity=".649"/>
            <stop offset="68.475%" stop-color="#332F15" stop-opacity="0"/>
            <stop offset="100%" stop-opacity="0"/>
        </radialGradient>
        <radialGradient id="u" cx="51.204%" r="3907.265%" fx="51.204%" fy="50%" gradientTransform="matrix(.01803 0 0 1 .503 0)">
            <stop offset="0%" stop-color="#FFE864"/>
            <stop offset="36.396%" stop-color="#FFEB80" stop-opacity=".649"/>
            <stop offset="68.475%" stop-color="#332F15" stop-opacity="0"/>
            <stop offset="100%" stop-opacity="0"/>
        </radialGradient>
        <filter id="v" width="111.4%" height="161.8%" x="-5.7%" y="-30.9%" filterUnits="objectBoundingBox">
            <feGaussianBlur in="SourceGraphic" stdDeviation="2"/>
        </filter>
        <filter id="w" width="105.7%" height="130.9%" x="-2.9%" y="-15.4%" filterUnits="objectBoundingBox">
            <feGaussianBlur in="SourceGraphic" stdDeviation="1"/>
        </filter>
    </defs>
    <g fill="none" fill-rule="evenodd" transform="translate(1 1)">
        <use fill="#1B1C1F" xlink:href="#a"/>
        <mask id="d" fill="#fff">
            <use xlink:href="#b"/>
        </mask>
        <rect width="361" height="101" x="-.5" y="-.5" stroke="url(#c)" rx="4"/>
        <g mask="url(#d)" opacity=".377" style="mix-blend-mode:soft-light">
            <g transform="translate(31 -60)">
                <circle cx="100" cy="100" r="100" fill="#1D1D20" filter="url(#e)" style="mix-blend-mode:soft-light"/>
                <circle cx="100" cy="100" r="52.495" fill="#11131A" filter="url(#f)" style="mix-blend-mode:soft-light"/>
            </g>
        </g>
        <g mask="url(#d)">
            <path fill="url(#g)" d="M16.16 0h46.68C71.766 0 79 7.326 79 16.364v47.272C79 72.674 71.765 80 62.84 80H16.16C7.234 80 0 72.674 0 63.636V16.364C0 7.326 7.235 0 16.16 0z" transform="rotate(-45 168.27 -211.938)"/>
            <path fill="#2A2B31" d="M222.872 50.252c1.973-3.444 6.385-4.6 9.853-2.583 3.468 2.017 4.68 6.444 2.707 9.887-1.974 3.444-6.385 4.6-9.854 2.583-3.468-2.018-4.68-6.444-2.706-9.887zm32.706-25.435c3.468 2.017 4.68 6.443 2.706 9.887-1.973 3.443-6.385 4.6-9.853 2.582-3.469-2.017-4.68-6.443-2.707-9.887 1.974-3.443 6.385-4.6 9.854-2.582zm-3.136 55.005c1.973-3.444 6.385-4.6 9.853-2.583 3.469 2.017 4.68 6.444 2.707 9.887-1.974 3.443-6.385 4.6-9.854 2.583-3.468-2.017-4.68-6.444-2.706-9.887zm22.852-22.853c1.974-3.443 6.385-4.6 9.854-2.582 3.468 2.017 4.68 6.443 2.706 9.887-1.973 3.443-6.385 4.6-9.853 2.582-3.469-2.017-4.68-6.443-2.707-9.887zm-26.28 6.642c2.841 2.84 2.87 7.416.065 10.22-2.804 2.805-7.38 2.776-10.22-.064-2.84-2.84-2.87-7.416-.065-10.22 2.805-2.805 7.38-2.777 10.22.064zm12.632-22.917c2.805-2.805 7.381-2.776 10.221.064s2.87 7.417.065 10.221c-2.805 2.805-7.381 2.776-10.221-.064s-2.87-7.416-.065-10.221z"/>
            <g opacity=".65">
                <path fill="url(#h)" d="M16.782 2.56h46.962c8.977 0 16.255 7.296 16.255 16.295v47.073c0 8.999-7.278 16.294-16.255 16.294H16.782C7.804 82.222.526 74.927.526 65.928V18.855c0-9 7.278-16.295 16.256-16.295z" style="mix-blend-mode:screen" transform="rotate(-45 169.811 -208.215)"/>
                <path fill="url(#i)" d="M19.337 0h46.96c8.979 0 16.257 7.295 16.257 16.294v47.073c0 9-7.278 16.295-16.256 16.295H19.337c-8.978 0-16.256-7.295-16.256-16.295V16.294C3.08 7.295 10.359 0 19.337 0z" style="mix-blend-mode:screen" transform="rotate(-45 169.811 -208.215)"/>
            </g>
            <path fill="url(#j)" d="M24.692 12.017c3.853-1.035 7.814 1.257 8.846 5.12 1.033 3.862-1.254 7.832-5.107 8.867-3.854 1.035-7.814-1.257-8.846-5.12-1.033-3.863 1.254-7.833 5.107-8.867zm41.358 5.12c1.032 3.862-1.254 7.832-5.108 8.867-3.853 1.035-7.813-1.257-8.846-5.12-1.032-3.863 1.254-7.833 5.108-8.867 3.853-1.035 7.814 1.257 8.846 5.12zM24.692 53.657c3.853-1.035 7.814 1.257 8.846 5.12 1.033 3.862-1.254 7.832-5.107 8.867-3.853 1.035-7.814-1.257-8.846-5.12-1.033-3.862 1.254-7.832 5.107-8.867zm32.512 0c3.853-1.035 7.814 1.257 8.846 5.12 1.032 3.862-1.254 7.832-5.108 8.867-3.853 1.035-7.813-1.257-8.846-5.12-1.032-3.862 1.254-7.832 5.108-8.867zM33.786 39.831c0 4-3.235 7.242-7.225 7.242-3.99 0-7.224-3.243-7.224-7.242 0-4 3.234-7.242 7.224-7.242s7.225 3.242 7.225 7.242zm25.287-7.242c3.99 0 7.225 3.242 7.225 7.242s-3.235 7.242-7.225 7.242c-3.99 0-7.225-3.243-7.225-7.242 0-4 3.235-7.242 7.225-7.242z" transform="rotate(-45 169.811 -208.215)"/>
            <g transform="rotate(-45 169.811 -208.215)">
                <use fill="#000" filter="url(#k)" xlink:href="#l"/>
                <use fill="url(#j)" xlink:href="#l"/>
                <use fill="#000" filter="url(#m)" xlink:href="#l"/>
            </g>
            <g opacity=".533">
                <path fill="url(#g)" d="M16.16 0h46.68C71.766 0 79 7.326 79 16.364v47.272C79 72.674 71.765 80 62.84 80H16.16C7.234 80 0 72.674 0 63.636V16.364C0 7.326 7.235 0 16.16 0z" transform="rotate(-45 123.468 -319.37)"/>
                <path fill="#2A2B31" d="M285.715-12.893c1.973-3.444 6.385-4.6 9.853-2.583 3.469 2.017 4.68 6.444 2.707 9.887-1.974 3.443-6.385 4.6-9.854 2.583-3.468-2.018-4.68-6.444-2.706-9.887zm32.706-25.435c3.468 2.017 4.68 6.443 2.706 9.887-1.973 3.443-6.385 4.6-9.853 2.582-3.469-2.017-4.68-6.443-2.707-9.887 1.974-3.443 6.385-4.6 9.854-2.582zm-3.136 55.005c1.973-3.444 6.385-4.6 9.853-2.583 3.469 2.017 4.68 6.444 2.707 9.887-1.974 3.443-6.385 4.6-9.854 2.583-3.468-2.017-4.68-6.444-2.706-9.887zm22.852-22.853c1.974-3.443 6.385-4.6 9.854-2.582 3.468 2.017 4.68 6.443 2.706 9.887-1.973 3.443-6.385 4.6-9.853 2.582-3.468-2.017-4.68-6.443-2.707-9.887zM311.858.465c2.84 2.84 2.869 7.417.064 10.222-2.804 2.804-7.38 2.775-10.22-.065-2.84-2.84-2.87-7.416-.065-10.22 2.805-2.805 7.38-2.777 10.221.063zM324.49-22.45c2.804-2.805 7.38-2.776 10.22.064 2.84 2.84 2.87 7.417.065 10.221-2.805 2.805-7.381 2.776-10.221-.064s-2.87-7.416-.064-10.221z"/>
                <g>
                    <g opacity=".65">
                        <path fill="url(#h)" d="M16.782 2.56h46.962c8.977 0 16.255 7.296 16.255 16.295v47.073c0 8.999-7.278 16.294-16.255 16.294H16.782C7.804 82.222.526 74.927.526 65.928V18.855c0-9 7.278-16.295 16.256-16.295z" style="mix-blend-mode:screen" transform="rotate(-45 125.01 -315.646)"/>
                        <path fill="url(#i)" d="M19.337 0h46.96c8.979 0 16.257 7.295 16.257 16.294v47.073c0 9-7.278 16.295-16.256 16.295H19.337c-8.978 0-16.256-7.295-16.256-16.295V16.294C3.08 7.295 10.359 0 19.337 0z" style="mix-blend-mode:screen" transform="rotate(-45 125.01 -315.646)"/>
                    </g>
                    <path fill="url(#j)" d="M24.692 12.017c3.853-1.035 7.814 1.257 8.846 5.12 1.033 3.862-1.254 7.832-5.107 8.867-3.854 1.035-7.814-1.257-8.846-5.12-1.033-3.863 1.254-7.833 5.107-8.867zm41.358 5.12c1.032 3.862-1.254 7.832-5.108 8.867-3.853 1.035-7.813-1.257-8.846-5.12-1.032-3.863 1.254-7.833 5.108-8.867 3.853-1.035 7.814 1.257 8.846 5.12zM24.692 53.657c3.853-1.035 7.814 1.257 8.846 5.12 1.033 3.862-1.254 7.832-5.107 8.867-3.853 1.035-7.814-1.257-8.846-5.12-1.033-3.862 1.254-7.832 5.107-8.867zm32.512 0c3.853-1.035 7.814 1.257 8.846 5.12 1.032 3.862-1.254 7.832-5.108 8.867-3.853 1.035-7.813-1.257-8.846-5.12-1.032-3.862 1.254-7.832 5.108-8.867zM33.786 39.831c0 4-3.235 7.242-7.225 7.242-3.99 0-7.224-3.243-7.224-7.242 0-4 3.234-7.242 7.224-7.242s7.225 3.242 7.225 7.242zm25.287-7.242c3.99 0 7.225 3.242 7.225 7.242s-3.235 7.242-7.225 7.242c-3.99 0-7.225-3.243-7.225-7.242 0-4 3.235-7.242 7.225-7.242z" transform="rotate(-45 125.01 -315.646)"/>
                    <g transform="rotate(-45 125.01 -315.646)">
                        <use fill="#000" filter="url(#n)" xlink:href="#o"/>
                        <use fill="url(#j)" xlink:href="#o"/>
                        <use fill="#000" filter="url(#p)" xlink:href="#o"/>
                    </g>
                </g>
            </g>
            <g opacity=".533">
                <path fill="url(#g)" d="M16.16 0h46.68C71.766 0 79 7.326 79 16.364v47.272C79 72.674 71.765 80 62.84 80H16.16C7.234 80 0 72.674 0 63.636V16.364C0 7.326 7.235 0 16.16 0z" transform="rotate(-45 268.871 -284.597)"/>
                <path fill="#2A2B31" d="M303.715 100.107c1.973-3.444 6.385-4.6 9.853-2.583 3.469 2.017 4.68 6.444 2.707 9.887-1.974 3.443-6.385 4.6-9.854 2.583-3.468-2.018-4.68-6.444-2.706-9.887zm32.706-25.435c3.468 2.017 4.68 6.443 2.706 9.887-1.973 3.443-6.385 4.6-9.853 2.582-3.469-2.017-4.68-6.443-2.707-9.887 1.974-3.443 6.385-4.6 9.854-2.582zm-3.136 55.005c1.973-3.444 6.385-4.6 9.853-2.583 3.469 2.017 4.68 6.444 2.707 9.887-1.974 3.443-6.385 4.6-9.854 2.583-3.468-2.017-4.68-6.444-2.706-9.887zm22.852-22.853c1.974-3.443 6.385-4.6 9.854-2.582 3.468 2.017 4.68 6.443 2.706 9.887-1.973 3.443-6.385 4.6-9.853 2.582-3.468-2.017-4.68-6.443-2.707-9.887zm-26.279 6.641c2.84 2.84 2.869 7.417.064 10.222-2.804 2.804-7.38 2.775-10.22-.065-2.84-2.84-2.87-7.416-.065-10.22 2.805-2.805 7.38-2.777 10.221.063zM342.49 90.55c2.804-2.805 7.38-2.776 10.22.064 2.84 2.84 2.87 7.417.065 10.221-2.805 2.805-7.381 2.776-10.221-.064s-2.87-7.416-.064-10.221z"/>
                <g>
                    <g opacity=".65">
                        <path fill="url(#h)" d="M16.782 2.56h46.962c8.977 0 16.255 7.296 16.255 16.295v47.073c0 8.999-7.278 16.294-16.255 16.294H16.782C7.804 82.222.526 74.927.526 65.928V18.855c0-9 7.278-16.295 16.256-16.295z" style="mix-blend-mode:screen" transform="rotate(-45 270.413 -280.874)"/>
                        <path fill="url(#i)" d="M19.337 0h46.96c8.979 0 16.257 7.295 16.257 16.294v47.073c0 9-7.278 16.295-16.256 16.295H19.337c-8.978 0-16.256-7.295-16.256-16.295V16.294C3.08 7.295 10.359 0 19.337 0z" style="mix-blend-mode:screen" transform="rotate(-45 270.413 -280.874)"/>
                    </g>
                    <path fill="url(#j)" d="M24.692 12.017c3.853-1.035 7.814 1.257 8.846 5.12 1.033 3.862-1.254 7.832-5.107 8.867-3.854 1.035-7.814-1.257-8.846-5.12-1.033-3.863 1.254-7.833 5.107-8.867zm41.358 5.12c1.032 3.862-1.254 7.832-5.108 8.867-3.853 1.035-7.813-1.257-8.846-5.12-1.032-3.863 1.254-7.833 5.108-8.867 3.853-1.035 7.814 1.257 8.846 5.12zM24.692 53.657c3.853-1.035 7.814 1.257 8.846 5.12 1.033 3.862-1.254 7.832-5.107 8.867-3.853 1.035-7.814-1.257-8.846-5.12-1.033-3.862 1.254-7.832 5.107-8.867zm32.512 0c3.853-1.035 7.814 1.257 8.846 5.12 1.032 3.862-1.254 7.832-5.108 8.867-3.853 1.035-7.813-1.257-8.846-5.12-1.032-3.862 1.254-7.832 5.108-8.867zM33.786 39.831c0 4-3.235 7.242-7.225 7.242-3.99 0-7.224-3.243-7.224-7.242 0-4 3.234-7.242 7.224-7.242s7.225 3.242 7.225 7.242zm25.287-7.242c3.99 0 7.225 3.242 7.225 7.242s-3.235 7.242-7.225 7.242c-3.99 0-7.225-3.243-7.225-7.242 0-4 3.235-7.242 7.225-7.242z" transform="rotate(-45 270.413 -280.874)"/>
                    <g transform="rotate(-45 270.413 -280.874)">
                        <use fill="#000" filter="url(#q)" xlink:href="#r"/>
                        <use fill="url(#j)" xlink:href="#r"/>
                        <use fill="#000" filter="url(#s)" xlink:href="#r"/>
                    </g>
                </g>
            </g>
            <g>
                <path fill="url(#t)" d="M.147 44.629h104.185v1.598H.147z" style="mix-blend-mode:normal" transform="rotate(44 122.246 235.262)"/>
                <path fill="url(#u)" d="M9.106 43.881h88.448v1.595H9.106z" opacity=".466" style="mix-blend-mode:normal" transform="rotate(134 128.004 79.69)"/>
            </g>
        </g>
        <g mask="url(#d)">
            <path fill="#96A5FF" d="M47.021 3.087a9.528 9.528 0 0 1 1.823 2.98 9.954 9.954 0 0 1 .658 3.618 9.954 9.954 0 0 1-.658 3.618 9.353 9.353 0 0 1-1.824 2.968 8.548 8.548 0 0 1-2.804 2.01c-1.083.488-2.277.736-3.548.736h-6.694c-.324 0-.6-.107-.82-.319-.226-.216-.344-.517-.344-.871v-1.235c-.001-.875 1.119-.873 1.12 0v1.235l6.738.044c1.111 0 2.156-.216 3.1-.644a7.518 7.518 0 0 0 2.454-1.768 8.341 8.341 0 0 0 1.61-2.604 8.669 8.669 0 0 0 .578-3.17 8.838 8.838 0 0 0-.579-3.215 8.098 8.098 0 0 0-1.607-2.602 7.4 7.4 0 0 0-2.452-1.737c-.945-.42-1.99-.632-3.104-.632h-6.694l-.044 13.036 6.738.044c.712 0 1.354-.128 1.907-.38a4.235 4.235 0 0 0 1.418-1.03c.388-.431.687-.947.89-1.535a5.95 5.95 0 0 0 .31-1.949c0-.72-.105-1.392-.31-1.996a4.47 4.47 0 0 0-.889-1.547 4.097 4.097 0 0 0-1.413-1.013c-.556-.244-1.2-.367-1.913-.367h-3.333l-.014 8.362a.592.592 0 0 1-.173.45.553.553 0 0 1-.414.137c-.324-.024-.534-.255-.534-.587V4.777c0-.709.424-1.132 1.135-1.132h3.333c.869 0 1.656.153 2.34.456a4.94 4.94 0 0 1 1.75 1.284 5.87 5.87 0 0 1 1.088 1.913c.253.724.38 1.526.38 2.387 0 .822-.127 1.605-.38 2.328a6.068 6.068 0 0 1-1.086 1.925c-.474.557-1.061 1-1.748 1.314-.685.315-1.474.473-2.344.473h-6.694a1.13 1.13 0 0 1-.83-.342 1.184 1.184 0 0 1-.334-.848V1.485c0-.334.118-.626.342-.841.223-.213.498-.32.822-.32h6.694c1.27 0 2.465.248 3.55.737a8.429 8.429 0 0 1 2.803 2.026zM26.776 1.163l5.44 16.43c.204.483.055.828-.107 1.028-.148.18-.424.395-.894.395h-2.442c-.579 0-.997-.332-1.176-.936l-.714-2.101a.776.776 0 0 0-.045-.103 1.652 1.652 0 0 0-.105-.003h-5.458c-.065 0-.128.012-.196.148l-.64 2.065c-.124.588-.565.93-1.233.93h-2.413c-.509 0-.774-.224-.91-.415-.135-.191-.261-.524-.09-1.014l4.28-13.016c.18-.56.628-.867 1.26-.867h1.953c.567 0 .99.29 1.22.84l2.548 8.096h-6.13l1.733-5.478a.558.558 0 0 1 .264-.352.523.523 0 0 1 .428-.033.52.52 0 0 1 .327.277c.07.144.07.311.003.498l-1.222 3.883h3.064l-2.06-6.546c-.03-.07-.07-.097-.175-.097h-1.954c-.15 0-.158.034-.168.073l-4.32 13 2.362.007c.15 0 .158-.036.168-.075l.637-2.192c.271-.593.702-.878 1.264-.878h5.458c.62 0 1.047.313 1.207.883l.687 2.162c.018.076.024.1.146.1h2.366L25.723 1.573c-.018-.076-.04-.1-.04-.1a.238.238 0 0 0-.128-.033h-3.131a.301.301 0 0 0-.13.044l-.021.126-.46 1.293a.567.567 0 0 1-.263.365.522.522 0 0 1-.423.038c-.312-.098-.457-.386-.374-.735l.438-1.377c.242-.58.664-.87 1.233-.87h3.131c.57 0 .99.29 1.221.84zM12.844 7.55a5.826 5.826 0 0 1 1.965 2.134c.525.972.791 2.03.791 3.147 0 .867-.15 1.684-.442 2.43a5.976 5.976 0 0 1-1.256 1.973 5.827 5.827 0 0 1-1.896 1.315 5.944 5.944 0 0 1-2.367.469H1.164c-.74 0-1.164-.434-1.164-1.19V4.746c0-.365.098-.663.29-.888.206-.24.499-.362.874-.362h6.464c.652 0 1.196.22 1.619.653.422.43.636.988.636 1.655 0 .326-.063.635-.19.918-.119.263-.264.506-.435.723l-.188.196H4.525l-.043 1.897 4.697.043c.941 0 1.69.29 2.228.862.533.568.803 1.322.803 2.239 0 .921-.277 1.67-.823 2.23-.547.559-1.29.841-2.208.841H4.525c-.74 0-1.164-.423-1.164-1.16v-2.646c0-.36.226-.603.56-.603.335 0 .56.243.56.603v2.645l4.698.044c.614 0 1.075-.169 1.41-.52.337-.354.5-.823.5-1.434 0-1.351-.588-1.954-1.91-1.954H4.525c-.35 0-.636-.119-.85-.35a1.21 1.21 0 0 1-.314-.84V7.686c0-.738.424-1.161 1.164-1.161h4.044c.149-.226.222-.463.222-.72 0-.347-.099-.61-.301-.803-.212-.201-.493-.3-.862-.3H1.164L1.12 17.827l8.519.044c.697 0 1.35-.127 1.945-.382a4.803 4.803 0 0 0 1.551-1.053c.431-.441.772-.98 1.011-1.595.24-.619.362-1.295.362-2.01 0-.987-.234-1.886-.695-2.677a5.198 5.198 0 0 0-1.963-1.91l-.595-.225.235-.38a5.59 5.59 0 0 0 .499-1.006c.108-.298.164-.655.164-1.062 0-.574-.111-1.116-.328-1.614a3.674 3.674 0 0 0-.928-1.283C10.096 1.89 9 1.499 7.627 1.499H1.165l-.044.984c0 .32-.23.544-.56.544-.329 0-.56-.223-.56-.544v-.997C0 1.155.1.877.297.66.501.438.793.323 1.164.323h6.464c.807 0 1.565.137 2.254.407.69.27 1.288.64 1.78 1.1a5.123 5.123 0 0 1 1.192 1.68c.278.633.42 1.326.42 2.06a4.64 4.64 0 0 1-.43 1.98zm91.766 7.371c.178.222.269.52.269.88v2.057c0 .726-.425 1.16-1.136 1.16h-8.964c-.738 0-1.164-.423-1.164-1.16V1.544c0-.757.426-1.19 1.164-1.19h8.877c.693 0 1.106.445 1.106 1.19V3.66c0 .32-.094.603-.283.835a1.016 1.016 0 0 1-.823.383h-5.559v5.719c0 .014 0 .029.002.042l.043.002h4.882c.008-.005.023-.01.043-.02V8.57l-.001-.021-4.15.004c-.352 0-.589-.229-.589-.571 0-.344.237-.573.589-.573h4.108c.135 0 .28.026.431.077a.895.895 0 0 1 .38.243c.1.07.208.191.277.398.051.162.077.304.077.443v2.028c0 .354-.113.65-.336.876-.044.069-.194.205-.454.25a2.222 2.222 0 0 1-.375.035h-4.882c-.338 0-.61-.09-.81-.266-.206-.21-.296-.496-.296-.895V3.704h6.62l.015-2.16-8.892-.044-.043 16.357 9.007.044.014-2.102c0-.073-.012-.1-.012-.1l-6.71.027v-3.132c0-.872 1.062-.872 1.062 0v1.956h5.646c.474 0 .734.201.867.37zm-12.33-3.34c.784 0 .981.437 1.027.699.06.322.032.666-.083 1.02a9.09 9.09 0 0 1-1.396 2.582 8.938 8.938 0 0 1-2.036 1.915A9.552 9.552 0 0 1 87.272 19a9.522 9.522 0 0 1-2.835.428 9.114 9.114 0 0 1-3.72-.765 9.634 9.634 0 0 1-2.984-2.062 9.626 9.626 0 0 1-2.003-3.071A9.868 9.868 0 0 1 75 9.744c0-1.758.318-3.26.946-4.465.63-1.207 1.45-2.147 2.436-2.795a6.995 6.995 0 0 1 3.281-1.13 8.465 8.465 0 0 1 3.462.414 8.087 8.087 0 0 1 3.035 1.875c.842.813 1.481 1.821 1.904 3h2.141c.002-.018.002-.036.002-.056-.181-.695-.53-1.374-1.04-2.02a10.558 10.558 0 0 0-1.694-1.735 8.382 8.382 0 0 0-2.335-1.25 8.256 8.256 0 0 0-2.701-.436c-.329 0-.56-.223-.56-.543 0-.284.172-.503.46-.588l.1-.015c1.05 0 2.07.17 3.03.504.96.335 1.85.803 2.64 1.389.794.59 1.453 1.25 1.96 1.962.512.718.911 1.577 1.19 2.553.112.374.08.677-.098.896-.118.198-.277.34-.46.397-.129.04-.27.059-.419.059h-2.993l-.194-.641c-.377-1.08-.963-2.003-1.739-2.734a7.027 7.027 0 0 0-2.624-1.58 7.181 7.181 0 0 0-2.988-.323 6.124 6.124 0 0 0-2.785.986c-.833.551-1.527 1.35-2.06 2.377-.536 1.03-.806 2.34-.806 3.899a8.569 8.569 0 0 0 2.423 6.031 8.355 8.355 0 0 0 2.645 1.817c1.744.76 3.891.868 5.79.295a8.217 8.217 0 0 0 2.217-1.044 7.95 7.95 0 0 0 1.787-1.659 7.555 7.555 0 0 0 1.218-2.24l.04-.158h-2.315c-.07 0-.133.012-.199.14-.12.236-.23.436-.33.599a5.03 5.03 0 0 1-2.136 1.931 6.467 6.467 0 0 1-2.794.622c-1.332 0-2.464-.318-3.363-.945a6.003 6.003 0 0 1-2.017-2.347 6.972 6.972 0 0 1-.668-3.028c0-1.08.226-2.098.668-3.027a5.989 5.989 0 0 1 2.017-2.346c.9-.629 2.031-.946 3.363-.946.464 0 .646.273.646.544 0 .27-.182.543-.589.543-1.166 0-2.093.256-2.814.76a4.874 4.874 0 0 0-1.646 1.915 5.77 5.77 0 0 0-.553 2.513c0 .9.185 1.745.553 2.513a4.886 4.886 0 0 0 1.646 1.917c.721.502 1.648.758 2.757.758.791 0 1.559-.153 2.277-.457a3.521 3.521 0 0 0 1.646-1.376c.067-.102.128-.221.187-.357.076-.176.16-.34.257-.492.11-.178.25-.326.412-.44a1.15 1.15 0 0 1 .68-.2h2.384zM66.83 3.1a9.336 9.336 0 0 1 1.826 2.983 10.18 10.18 0 0 1 .656 3.66c0 1.278-.221 2.49-.658 3.606a9.232 9.232 0 0 1-1.825 2.939 8.655 8.655 0 0 1-2.803 1.993c-1.083.49-2.287.736-3.577.736h-6.695c-.302 0-.56-.097-.76-.288-.21-.2-.318-.494-.318-.873V4.894c0-.373.104-.669.308-.876.2-.206.467-.315.77-.315h6.695c.87 0 1.66.155 2.353.456a5.176 5.176 0 0 1 1.788 1.28c.492.542.87 1.193 1.125 1.934.252.732.38 1.53.38 2.37a7.03 7.03 0 0 1-.381 2.329 5.431 5.431 0 0 1-1.125 1.906 5.424 5.424 0 0 1-1.784 1.275c-.692.313-1.485.472-2.356.472h-3.275c-.322 0-.61-.117-.829-.342-.223-.227-.335-.524-.335-.878V6.217c0-.337.23-.574.56-.574.335 0 .56.231.56.574v8.288l3.32.044c.694 0 1.334-.123 1.898-.367a4.28 4.28 0 0 0 1.447-1.004c.395-.422.702-.929.915-1.506a5.61 5.61 0 0 0 .321-1.928c0-.718-.109-1.38-.323-1.974a4.367 4.367 0 0 0-.913-1.52 4.302 4.302 0 0 0-1.447-1.003 4.773 4.773 0 0 0-1.899-.368h-6.68v12.977l6.68.044c1.15 0 2.208-.216 3.143-.644a7.651 7.651 0 0 0 2.442-1.754 7.975 7.975 0 0 0 1.593-2.585c.374-.98.565-2.05.565-3.173a9.09 9.09 0 0 0-.565-3.217 8.105 8.105 0 0 0-1.594-2.616 7.54 7.54 0 0 0-2.44-1.768c-.936-.426-1.995-.644-3.144-.644h-6.695l.015 1.337c0 .834-1.093.832-1.093 0V1.543c0-.373.104-.669.308-.877.2-.205.467-.313.77-.313h6.695c1.29 0 2.494.248 3.578.737A8.532 8.532 0 0 1 66.83 3.1zm6.46-2.747c.74 0 1.164.434 1.164 1.19v16.313c0 .738-.424 1.161-1.163 1.161h-2.213c-.71 0-1.134-.435-1.134-1.16v-1.705c0-.832 1.063-.832 1.063 0v1.704l2.284.045.014-16.357c0-.055-.009-.074-.009-.075l-2.218.03-.071 12.919.33.044c.406 0 .589.273.589.543s-.183.544-.59.544h-.258c-.71 0-1.134-.423-1.134-1.131V1.544c0-.757.413-1.19 1.134-1.19h2.213z" filter="url(#v)" transform="translate(10 52)"/>
            <path fill="#252D4A" d="M47.021 3.087a9.528 9.528 0 0 1 1.823 2.98 9.954 9.954 0 0 1 .658 3.618 9.954 9.954 0 0 1-.658 3.618 9.353 9.353 0 0 1-1.824 2.968 8.548 8.548 0 0 1-2.804 2.01c-1.083.488-2.277.736-3.548.736h-6.694c-.324 0-.6-.107-.82-.319-.226-.216-.344-.517-.344-.871v-1.235c-.001-.875 1.119-.873 1.12 0v1.235l6.738.044c1.111 0 2.156-.216 3.1-.644a7.518 7.518 0 0 0 2.454-1.768 8.341 8.341 0 0 0 1.61-2.604 8.669 8.669 0 0 0 .578-3.17 8.838 8.838 0 0 0-.579-3.215 8.098 8.098 0 0 0-1.607-2.602 7.4 7.4 0 0 0-2.452-1.737c-.945-.42-1.99-.632-3.104-.632h-6.694l-.044 13.036 6.738.044c.712 0 1.354-.128 1.907-.38a4.235 4.235 0 0 0 1.418-1.03c.388-.431.687-.947.89-1.535a5.95 5.95 0 0 0 .31-1.949c0-.72-.105-1.392-.31-1.996a4.47 4.47 0 0 0-.889-1.547 4.097 4.097 0 0 0-1.413-1.013c-.556-.244-1.2-.367-1.913-.367h-3.333l-.014 8.362a.592.592 0 0 1-.173.45.553.553 0 0 1-.414.137c-.324-.024-.534-.255-.534-.587V4.777c0-.709.424-1.132 1.135-1.132h3.333c.869 0 1.656.153 2.34.456a4.94 4.94 0 0 1 1.75 1.284 5.87 5.87 0 0 1 1.088 1.913c.253.724.38 1.526.38 2.387 0 .822-.127 1.605-.38 2.328a6.068 6.068 0 0 1-1.086 1.925c-.474.557-1.061 1-1.748 1.314-.685.315-1.474.473-2.344.473h-6.694a1.13 1.13 0 0 1-.83-.342 1.184 1.184 0 0 1-.334-.848V1.485c0-.334.118-.626.342-.841.223-.213.498-.32.822-.32h6.694c1.27 0 2.465.248 3.55.737a8.429 8.429 0 0 1 2.803 2.026zM26.776 1.163l5.44 16.43c.204.483.055.828-.107 1.028-.148.18-.424.395-.894.395h-2.442c-.579 0-.997-.332-1.176-.936l-.714-2.101a.776.776 0 0 0-.045-.103 1.652 1.652 0 0 0-.105-.003h-5.458c-.065 0-.128.012-.196.148l-.64 2.065c-.124.588-.565.93-1.233.93h-2.413c-.509 0-.774-.224-.91-.415-.135-.191-.261-.524-.09-1.014l4.28-13.016c.18-.56.628-.867 1.26-.867h1.953c.567 0 .99.29 1.22.84l2.548 8.096h-6.13l1.733-5.478a.558.558 0 0 1 .264-.352.523.523 0 0 1 .428-.033.52.52 0 0 1 .327.277c.07.144.07.311.003.498l-1.222 3.883h3.064l-2.06-6.546c-.03-.07-.07-.097-.175-.097h-1.954c-.15 0-.158.034-.168.073l-4.32 13 2.362.007c.15 0 .158-.036.168-.075l.637-2.192c.271-.593.702-.878 1.264-.878h5.458c.62 0 1.047.313 1.207.883l.687 2.162c.018.076.024.1.146.1h2.366L25.723 1.573c-.018-.076-.04-.1-.04-.1a.238.238 0 0 0-.128-.033h-3.131a.301.301 0 0 0-.13.044l-.021.126-.46 1.293a.567.567 0 0 1-.263.365.522.522 0 0 1-.423.038c-.312-.098-.457-.386-.374-.735l.438-1.377c.242-.58.664-.87 1.233-.87h3.131c.57 0 .99.29 1.221.84zM12.844 7.55a5.826 5.826 0 0 1 1.965 2.134c.525.972.791 2.03.791 3.147 0 .867-.15 1.684-.442 2.43a5.976 5.976 0 0 1-1.256 1.973 5.827 5.827 0 0 1-1.896 1.315 5.944 5.944 0 0 1-2.367.469H1.164c-.74 0-1.164-.434-1.164-1.19V4.746c0-.365.098-.663.29-.888.206-.24.499-.362.874-.362h6.464c.652 0 1.196.22 1.619.653.422.43.636.988.636 1.655 0 .326-.063.635-.19.918-.119.263-.264.506-.435.723l-.188.196H4.525l-.043 1.897 4.697.043c.941 0 1.69.29 2.228.862.533.568.803 1.322.803 2.239 0 .921-.277 1.67-.823 2.23-.547.559-1.29.841-2.208.841H4.525c-.74 0-1.164-.423-1.164-1.16v-2.646c0-.36.226-.603.56-.603.335 0 .56.243.56.603v2.645l4.698.044c.614 0 1.075-.169 1.41-.52.337-.354.5-.823.5-1.434 0-1.351-.588-1.954-1.91-1.954H4.525c-.35 0-.636-.119-.85-.35a1.21 1.21 0 0 1-.314-.84V7.686c0-.738.424-1.161 1.164-1.161h4.044c.149-.226.222-.463.222-.72 0-.347-.099-.61-.301-.803-.212-.201-.493-.3-.862-.3H1.164L1.12 17.827l8.519.044c.697 0 1.35-.127 1.945-.382a4.803 4.803 0 0 0 1.551-1.053c.431-.441.772-.98 1.011-1.595.24-.619.362-1.295.362-2.01 0-.987-.234-1.886-.695-2.677a5.198 5.198 0 0 0-1.963-1.91l-.595-.225.235-.38a5.59 5.59 0 0 0 .499-1.006c.108-.298.164-.655.164-1.062 0-.574-.111-1.116-.328-1.614a3.674 3.674 0 0 0-.928-1.283C10.096 1.89 9 1.499 7.627 1.499H1.165l-.044.984c0 .32-.23.544-.56.544-.329 0-.56-.223-.56-.544v-.997C0 1.155.1.877.297.66.501.438.793.323 1.164.323h6.464c.807 0 1.565.137 2.254.407.69.27 1.288.64 1.78 1.1a5.123 5.123 0 0 1 1.192 1.68c.278.633.42 1.326.42 2.06a4.64 4.64 0 0 1-.43 1.98zm91.766 7.371c.178.222.269.52.269.88v2.057c0 .726-.425 1.16-1.136 1.16h-8.964c-.738 0-1.164-.423-1.164-1.16V1.544c0-.757.426-1.19 1.164-1.19h8.877c.693 0 1.106.445 1.106 1.19V3.66c0 .32-.094.603-.283.835a1.016 1.016 0 0 1-.823.383h-5.559v5.719c0 .014 0 .029.002.042l.043.002h4.882c.008-.005.023-.01.043-.02V8.57l-.001-.021-4.15.004c-.352 0-.589-.229-.589-.571 0-.344.237-.573.589-.573h4.108c.135 0 .28.026.431.077a.895.895 0 0 1 .38.243c.1.07.208.191.277.398.051.162.077.304.077.443v2.028c0 .354-.113.65-.336.876-.044.069-.194.205-.454.25a2.222 2.222 0 0 1-.375.035h-4.882c-.338 0-.61-.09-.81-.266-.206-.21-.296-.496-.296-.895V3.704h6.62l.015-2.16-8.892-.044-.043 16.357 9.007.044.014-2.102c0-.073-.012-.1-.012-.1l-6.71.027v-3.132c0-.872 1.062-.872 1.062 0v1.956h5.646c.474 0 .734.201.867.37zm-12.33-3.34c.784 0 .981.437 1.027.699.06.322.032.666-.083 1.02a9.09 9.09 0 0 1-1.396 2.582 8.938 8.938 0 0 1-2.036 1.915A9.552 9.552 0 0 1 87.272 19a9.522 9.522 0 0 1-2.835.428 9.114 9.114 0 0 1-3.72-.765 9.634 9.634 0 0 1-2.984-2.062 9.626 9.626 0 0 1-2.003-3.071A9.868 9.868 0 0 1 75 9.744c0-1.758.318-3.26.946-4.465.63-1.207 1.45-2.147 2.436-2.795a6.995 6.995 0 0 1 3.281-1.13 8.465 8.465 0 0 1 3.462.414 8.087 8.087 0 0 1 3.035 1.875c.842.813 1.481 1.821 1.904 3h2.141c.002-.018.002-.036.002-.056-.181-.695-.53-1.374-1.04-2.02a10.558 10.558 0 0 0-1.694-1.735 8.382 8.382 0 0 0-2.335-1.25 8.256 8.256 0 0 0-2.701-.436c-.329 0-.56-.223-.56-.543 0-.284.172-.503.46-.588l.1-.015c1.05 0 2.07.17 3.03.504.96.335 1.85.803 2.64 1.389.794.59 1.453 1.25 1.96 1.962.512.718.911 1.577 1.19 2.553.112.374.08.677-.098.896-.118.198-.277.34-.46.397-.129.04-.27.059-.419.059h-2.993l-.194-.641c-.377-1.08-.963-2.003-1.739-2.734a7.027 7.027 0 0 0-2.624-1.58 7.181 7.181 0 0 0-2.988-.323 6.124 6.124 0 0 0-2.785.986c-.833.551-1.527 1.35-2.06 2.377-.536 1.03-.806 2.34-.806 3.899a8.569 8.569 0 0 0 2.423 6.031 8.355 8.355 0 0 0 2.645 1.817c1.744.76 3.891.868 5.79.295a8.217 8.217 0 0 0 2.217-1.044 7.95 7.95 0 0 0 1.787-1.659 7.555 7.555 0 0 0 1.218-2.24l.04-.158h-2.315c-.07 0-.133.012-.199.14-.12.236-.23.436-.33.599a5.03 5.03 0 0 1-2.136 1.931 6.467 6.467 0 0 1-2.794.622c-1.332 0-2.464-.318-3.363-.945a6.003 6.003 0 0 1-2.017-2.347 6.972 6.972 0 0 1-.668-3.028c0-1.08.226-2.098.668-3.027a5.989 5.989 0 0 1 2.017-2.346c.9-.629 2.031-.946 3.363-.946.464 0 .646.273.646.544 0 .27-.182.543-.589.543-1.166 0-2.093.256-2.814.76a4.874 4.874 0 0 0-1.646 1.915 5.77 5.77 0 0 0-.553 2.513c0 .9.185 1.745.553 2.513a4.886 4.886 0 0 0 1.646 1.917c.721.502 1.648.758 2.757.758.791 0 1.559-.153 2.277-.457a3.521 3.521 0 0 0 1.646-1.376c.067-.102.128-.221.187-.357.076-.176.16-.34.257-.492.11-.178.25-.326.412-.44a1.15 1.15 0 0 1 .68-.2h2.384zM66.83 3.1a9.336 9.336 0 0 1 1.826 2.983 10.18 10.18 0 0 1 .656 3.66c0 1.278-.221 2.49-.658 3.606a9.232 9.232 0 0 1-1.825 2.939 8.655 8.655 0 0 1-2.803 1.993c-1.083.49-2.287.736-3.577.736h-6.695c-.302 0-.56-.097-.76-.288-.21-.2-.318-.494-.318-.873V4.894c0-.373.104-.669.308-.876.2-.206.467-.315.77-.315h6.695c.87 0 1.66.155 2.353.456a5.176 5.176 0 0 1 1.788 1.28c.492.542.87 1.193 1.125 1.934.252.732.38 1.53.38 2.37a7.03 7.03 0 0 1-.381 2.329 5.431 5.431 0 0 1-1.125 1.906 5.424 5.424 0 0 1-1.784 1.275c-.692.313-1.485.472-2.356.472h-3.275c-.322 0-.61-.117-.829-.342-.223-.227-.335-.524-.335-.878V6.217c0-.337.23-.574.56-.574.335 0 .56.231.56.574v8.288l3.32.044c.694 0 1.334-.123 1.898-.367a4.28 4.28 0 0 0 1.447-1.004c.395-.422.702-.929.915-1.506a5.61 5.61 0 0 0 .321-1.928c0-.718-.109-1.38-.323-1.974a4.367 4.367 0 0 0-.913-1.52 4.302 4.302 0 0 0-1.447-1.003 4.773 4.773 0 0 0-1.899-.368h-6.68v12.977l6.68.044c1.15 0 2.208-.216 3.143-.644a7.651 7.651 0 0 0 2.442-1.754 7.975 7.975 0 0 0 1.593-2.585c.374-.98.565-2.05.565-3.173a9.09 9.09 0 0 0-.565-3.217 8.105 8.105 0 0 0-1.594-2.616 7.54 7.54 0 0 0-2.44-1.768c-.936-.426-1.995-.644-3.144-.644h-6.695l.015 1.337c0 .834-1.093.832-1.093 0V1.543c0-.373.104-.669.308-.877.2-.205.467-.313.77-.313h6.695c1.29 0 2.494.248 3.578.737A8.532 8.532 0 0 1 66.83 3.1zm6.46-2.747c.74 0 1.164.434 1.164 1.19v16.313c0 .738-.424 1.161-1.163 1.161h-2.213c-.71 0-1.134-.435-1.134-1.16v-1.705c0-.832 1.063-.832 1.063 0v1.704l2.284.045.014-16.357c0-.055-.009-.074-.009-.075l-2.218.03-.071 12.919.33.044c.406 0 .589.273.589.543s-.183.544-.59.544h-.258c-.71 0-1.134-.423-1.134-1.131V1.544c0-.757.413-1.19 1.134-1.19h2.213z" filter="url(#w)" transform="translate(10 52)"/>
            <path fill="#FFE4A9" d="M57.021 55.087a9.528 9.528 0 0 1 1.823 2.98 9.954 9.954 0 0 1 .658 3.618 9.954 9.954 0 0 1-.658 3.618 9.353 9.353 0 0 1-1.824 2.968 8.548 8.548 0 0 1-2.804 2.01c-1.083.488-2.277.736-3.548.736h-6.694c-.324 0-.6-.107-.82-.319-.226-.216-.344-.517-.344-.871v-1.235c-.001-.875 1.119-.873 1.12 0v1.235l6.738.044c1.111 0 2.156-.216 3.1-.644a7.518 7.518 0 0 0 2.454-1.768 8.341 8.341 0 0 0 1.61-2.604 8.669 8.669 0 0 0 .578-3.17 8.838 8.838 0 0 0-.579-3.215 8.098 8.098 0 0 0-1.607-2.602 7.4 7.4 0 0 0-2.452-1.737c-.945-.42-1.99-.632-3.104-.632h-6.694l-.044 13.036 6.738.044c.712 0 1.354-.128 1.907-.38a4.235 4.235 0 0 0 1.418-1.03c.388-.431.687-.947.89-1.535a5.95 5.95 0 0 0 .31-1.949c0-.72-.105-1.392-.31-1.996a4.47 4.47 0 0 0-.889-1.547 4.097 4.097 0 0 0-1.413-1.013c-.556-.244-1.2-.367-1.913-.367h-3.333l-.014 8.362a.592.592 0 0 1-.173.45.553.553 0 0 1-.414.137c-.324-.024-.534-.255-.534-.587v-8.347c0-.709.424-1.132 1.135-1.132h3.333c.869 0 1.656.153 2.34.456a4.94 4.94 0 0 1 1.75 1.284 5.87 5.87 0 0 1 1.088 1.913c.253.724.38 1.526.38 2.387 0 .822-.127 1.605-.38 2.328a6.068 6.068 0 0 1-1.086 1.925c-.474.557-1.061 1-1.748 1.314-.685.315-1.474.473-2.344.473h-6.694a1.13 1.13 0 0 1-.83-.342 1.184 1.184 0 0 1-.334-.848v-13.05c0-.334.118-.626.342-.841.223-.213.498-.32.822-.32h6.694c1.27 0 2.465.248 3.55.737a8.429 8.429 0 0 1 2.803 2.026zm-20.245-1.924l5.44 16.43c.204.483.055.828-.107 1.028-.148.18-.424.395-.894.395h-2.442c-.579 0-.997-.332-1.176-.936l-.714-2.101a.776.776 0 0 0-.045-.103 1.652 1.652 0 0 0-.105-.003h-5.458c-.065 0-.128.012-.196.148l-.64 2.065c-.124.588-.565.93-1.233.93h-2.413c-.509 0-.774-.224-.91-.415-.135-.191-.261-.524-.09-1.014l4.28-13.016c.18-.56.628-.867 1.26-.867h1.953c.567 0 .99.29 1.22.84l2.548 8.096h-6.13l1.733-5.478a.558.558 0 0 1 .264-.352.523.523 0 0 1 .428-.033.52.52 0 0 1 .327.277c.07.144.07.311.003.498l-1.222 3.883h3.064l-2.06-6.546c-.03-.07-.07-.097-.175-.097h-1.954c-.15 0-.158.034-.168.073l-4.32 13 2.362.007c.15 0 .158-.036.168-.075l.637-2.192c.271-.593.702-.878 1.264-.878h5.458c.62 0 1.047.313 1.207.883l.687 2.162c.018.076.024.1.146.1h2.366l-5.416-16.299c-.018-.076-.04-.1-.04-.1a.238.238 0 0 0-.128-.033h-3.131a.301.301 0 0 0-.13.044l-.021.126-.46 1.293a.567.567 0 0 1-.263.365.522.522 0 0 1-.423.038c-.312-.098-.457-.386-.374-.735l.438-1.377c.242-.58.664-.87 1.233-.87h3.131c.57 0 .99.29 1.221.84zM22.844 59.55a5.826 5.826 0 0 1 1.965 2.134c.525.972.791 2.03.791 3.147 0 .867-.15 1.684-.442 2.43a5.976 5.976 0 0 1-1.256 1.973 5.827 5.827 0 0 1-1.896 1.315 5.944 5.944 0 0 1-2.367.469h-8.475c-.74 0-1.164-.434-1.164-1.19v-13.08c0-.365.098-.663.29-.888.206-.24.499-.362.874-.362h6.464c.652 0 1.196.22 1.619.653.422.43.636.988.636 1.655 0 .326-.063.635-.19.918-.119.263-.264.506-.435.723l-.188.196h-4.545l-.043 1.897 4.697.043c.941 0 1.69.29 2.228.862.533.568.803 1.322.803 2.239 0 .921-.277 1.67-.823 2.23-.547.559-1.29.841-2.208.841h-4.654c-.74 0-1.164-.423-1.164-1.16v-2.646c0-.36.226-.603.56-.603.335 0 .56.243.56.603v2.645l4.698.044c.614 0 1.075-.169 1.41-.52.337-.354.5-.823.5-1.434 0-1.351-.588-1.954-1.91-1.954h-4.654c-.35 0-.636-.119-.85-.35a1.21 1.21 0 0 1-.314-.84v-1.853c0-.738.424-1.161 1.164-1.161h4.044c.149-.226.222-.463.222-.72 0-.347-.099-.61-.301-.803-.212-.201-.493-.3-.862-.3h-6.464l-.044 13.124 8.519.044c.697 0 1.35-.127 1.945-.382a4.803 4.803 0 0 0 1.551-1.053c.431-.441.772-.98 1.011-1.595.24-.619.362-1.295.362-2.01 0-.987-.234-1.886-.695-2.677a5.198 5.198 0 0 0-1.963-1.91l-.595-.225.235-.38a5.59 5.59 0 0 0 .499-1.006c.108-.298.164-.655.164-1.062 0-.574-.111-1.116-.328-1.614a3.674 3.674 0 0 0-.928-1.283c-.801-.783-1.897-1.174-3.27-1.174h-6.463l-.044.984c0 .32-.23.544-.56.544-.329 0-.56-.223-.56-.544v-.997c0-.331.1-.609.297-.825.204-.223.496-.338.867-.338h6.464c.807 0 1.565.137 2.254.407.69.27 1.288.64 1.78 1.1a5.123 5.123 0 0 1 1.192 1.68c.278.633.42 1.326.42 2.06a4.64 4.64 0 0 1-.43 1.98z"/>
            <path fill="#FFF" d="M114.61 66.92c.178.222.269.52.269.88v2.057c0 .726-.425 1.16-1.136 1.16h-8.964c-.738 0-1.164-.423-1.164-1.16V53.544c0-.757.426-1.19 1.164-1.19h8.877c.693 0 1.106.445 1.106 1.19v2.116c0 .32-.094.603-.283.835a1.016 1.016 0 0 1-.823.383h-5.559v5.719c0 .014 0 .029.002.042l.043.002h4.882c.008-.005.023-.01.043-.02V60.57l-.001-.021-4.15.004c-.352 0-.589-.229-.589-.571 0-.344.237-.573.589-.573h4.108c.135 0 .28.026.431.077a.895.895 0 0 1 .38.243c.1.07.208.191.277.398.051.162.077.304.077.443v2.028c0 .354-.113.65-.336.876-.044.069-.194.205-.454.25a2.222 2.222 0 0 1-.375.035h-4.882c-.338 0-.61-.09-.81-.266-.206-.21-.296-.496-.296-.895v-6.893h6.62l.015-2.16-8.892-.044-.043 16.357 9.007.044.014-2.102c0-.073-.012-.1-.012-.1l-6.71.027v-3.132c0-.872 1.062-.872 1.062 0v1.956h5.646c.474 0 .734.201.867.37zm-12.33-3.34c.784 0 .981.437 1.027.699.06.322.032.666-.083 1.02a9.09 9.09 0 0 1-1.396 2.582 8.938 8.938 0 0 1-2.036 1.915A9.552 9.552 0 0 1 97.272 71a9.522 9.522 0 0 1-2.835.428 9.114 9.114 0 0 1-3.72-.765 9.634 9.634 0 0 1-2.984-2.062 9.626 9.626 0 0 1-2.003-3.071 9.868 9.868 0 0 1-.73-3.787c0-1.758.318-3.26.946-4.465.63-1.207 1.45-2.147 2.436-2.795a6.995 6.995 0 0 1 3.281-1.13 8.465 8.465 0 0 1 3.462.414 8.087 8.087 0 0 1 3.035 1.875c.842.813 1.481 1.821 1.904 3h2.141c.002-.018.002-.036.002-.056-.181-.695-.53-1.374-1.04-2.02a10.558 10.558 0 0 0-1.694-1.735 8.382 8.382 0 0 0-2.335-1.25 8.256 8.256 0 0 0-2.701-.436c-.329 0-.56-.223-.56-.543 0-.284.172-.503.46-.588l.1-.015c1.05 0 2.07.17 3.03.504.96.335 1.85.803 2.64 1.389.794.59 1.453 1.25 1.96 1.962.512.718.911 1.577 1.19 2.553.112.374.08.677-.098.896-.118.198-.277.34-.46.397-.129.04-.27.059-.419.059h-2.993l-.194-.641c-.377-1.08-.963-2.003-1.739-2.734a7.027 7.027 0 0 0-2.624-1.58 7.181 7.181 0 0 0-2.988-.323 6.124 6.124 0 0 0-2.785.986c-.833.551-1.527 1.35-2.06 2.377-.536 1.03-.806 2.34-.806 3.899a8.569 8.569 0 0 0 2.423 6.031 8.355 8.355 0 0 0 2.645 1.817c1.744.76 3.891.868 5.79.295a8.217 8.217 0 0 0 2.217-1.044 7.95 7.95 0 0 0 1.787-1.659 7.555 7.555 0 0 0 1.218-2.24l.04-.158h-2.315c-.07 0-.133.012-.199.14-.12.236-.23.436-.33.599a5.03 5.03 0 0 1-2.136 1.931 6.467 6.467 0 0 1-2.794.622c-1.332 0-2.464-.318-3.363-.945a6.003 6.003 0 0 1-2.017-2.347 6.972 6.972 0 0 1-.668-3.028c0-1.08.226-2.098.668-3.027a5.989 5.989 0 0 1 2.017-2.346c.9-.629 2.031-.946 3.363-.946.464 0 .646.273.646.544 0 .27-.182.543-.589.543-1.166 0-2.093.256-2.814.76a4.874 4.874 0 0 0-1.646 1.915 5.77 5.77 0 0 0-.553 2.513c0 .9.185 1.745.553 2.513a4.886 4.886 0 0 0 1.646 1.917c.721.502 1.648.758 2.757.758.791 0 1.559-.153 2.277-.457a3.521 3.521 0 0 0 1.646-1.376c.067-.102.128-.221.187-.357.076-.176.16-.34.257-.492.11-.178.25-.326.412-.44a1.15 1.15 0 0 1 .68-.2h2.384zM76.83 55.1a9.336 9.336 0 0 1 1.826 2.983 10.18 10.18 0 0 1 .656 3.66c0 1.278-.221 2.49-.658 3.606a9.232 9.232 0 0 1-1.825 2.939 8.655 8.655 0 0 1-2.803 1.993c-1.083.49-2.287.736-3.577.736h-6.695c-.302 0-.56-.097-.76-.288-.21-.2-.318-.494-.318-.873V56.894c0-.373.104-.669.308-.876.2-.206.467-.315.77-.315h6.695c.87 0 1.66.155 2.353.456a5.176 5.176 0 0 1 1.788 1.28c.492.542.87 1.193 1.125 1.934.252.732.38 1.53.38 2.37a7.03 7.03 0 0 1-.381 2.329 5.431 5.431 0 0 1-1.125 1.906 5.424 5.424 0 0 1-1.784 1.275c-.692.313-1.485.472-2.356.472h-3.275c-.322 0-.61-.117-.829-.342-.223-.227-.335-.524-.335-.878v-8.288c0-.337.23-.574.56-.574.335 0 .56.231.56.574v8.288l3.32.044c.694 0 1.334-.123 1.898-.367a4.28 4.28 0 0 0 1.447-1.004c.395-.422.702-.929.915-1.506a5.61 5.61 0 0 0 .321-1.928c0-.718-.109-1.38-.323-1.974a4.367 4.367 0 0 0-.913-1.52 4.302 4.302 0 0 0-1.447-1.003 4.773 4.773 0 0 0-1.899-.368h-6.68v12.977l6.68.044c1.15 0 2.208-.216 3.143-.644a7.651 7.651 0 0 0 2.442-1.754 7.975 7.975 0 0 0 1.593-2.585c.374-.98.565-2.05.565-3.173a9.09 9.09 0 0 0-.565-3.217 8.105 8.105 0 0 0-1.594-2.616 7.54 7.54 0 0 0-2.44-1.768c-.936-.426-1.995-.644-3.144-.644h-6.695l.015 1.337c0 .834-1.093.832-1.093 0v-1.293c0-.373.104-.669.308-.877.2-.205.467-.313.77-.313h6.695c1.29 0 2.494.248 3.578.737a8.532 8.532 0 0 1 2.803 2.01zm6.46-2.747c.74 0 1.164.434 1.164 1.19v16.313c0 .738-.424 1.161-1.163 1.161h-2.213c-.71 0-1.134-.435-1.134-1.16v-1.705c0-.832 1.063-.832 1.063 0v1.704l2.284.045.014-16.357c0-.055-.009-.074-.009-.075l-2.218.03-.071 12.919.33.044c.406 0 .589.273.589.543s-.183.544-.59.544h-.258c-.71 0-1.134-.423-1.134-1.131V53.544c0-.757.413-1.19 1.134-1.19h2.213zM11.003 89.113v-5.51h4.618v5.422h-1.907v-.697h1.226V84.3h-3.256v.912h2.674v.697h-2.674v.874h2.674v.696h-2.674v1.634h-.681zm4.618-11.058v3.294h.347v1.735h-.681v-1.039H11.35v1.166h-.681v-1.862h.334v-3.294h4.618zm-.681.697h-3.256v.861H13.9v1.736h1.04v-2.597zm-3.256 1.558v1.039h1.535V80.31h-1.535zm9.546.671h.705v.697H20.55v-2.926h-3.034v2.964h-.68v-3.66h4.395v2.925zm.148 4.522l-1.77 1.571 2.253 2.04h-1.028l-1.745-1.571-1.758 1.57h-1.04l2.29-2.039-1.746-1.57v-1.9h.681v1.583l1.573 1.418 1.61-1.418v-2.103h-3.864v-.697h4.544v3.116zM37.4 83.185v.722h-4.903v5.257h-3.603v-.722h2.897v-4.535H25.96v-.722h5.831v-1.634l3.9-2.748h-8.914v-.722h9.954v.861l-4.234 2.99v1.253H37.4zm10.648-4.319l-1.077 1.558h.433v9.031h-.743v-8.613a123.627 123.627 0 0 1-4.569 6.017h-.965c2.31-2.838 4.317-5.502 6.017-7.993h-5.745v-.76h11.49v.76h-4.841zm.247 2.559L53 85.643v1.013l-4.705-4.218v-1.013zm10.784-.178v6.828h1.461v.696h-3.603v-.696h1.461v-6.828h-1.46v-.696h1.46v-2.635h.681v2.635h1.461v.696h-1.46zm5.881-2.508l-.334.684v9.956h-.681v-8.537l-2.947 6.118h-.755l3.95-8.22H60.91v-.697h7.231v.696h-3.182zm1.028 1.736l2.699 6.675h-.743l-2.7-6.675h.744zm17.816 7.79h9.15v.696H81.697v-.696h1.424v-5.89h-1.424v-.697h2.105v6.587zm8.63-10.172v.697H85.45v-.697h6.982zm-7.206 7.993l1.659-3.711h-1.944v-.697h8.01v.697H87.63l-1.585 3.546h5.88l-1.114-2.723h.743l1.177 2.888v.532h-7.503v-.532zm-1.412-5.117h-.693l-.52-3.192h.693l.52 3.192zm24.54-2.255v.697h-11.02V77.65h.743v1.064h10.276zm-1.177 2.065v.696h-9.843v-.696h9.843zm.012 7.752h1.325v.696h-2.067V83.54H97.1v-.697h10.09v5.688zm12.047-9.665l-1.077 1.558h.433v9.031h-.743v-8.613a123.626 123.626 0 0 1-4.568 6.017h-.966c2.311-2.838 4.317-5.502 6.017-7.993h-5.744v-.76h11.49v.76h-4.842zm.248 2.559l4.705 4.218v1.013l-4.705-4.218v-1.013zm9.607-.051v1.09h-.68v-1.787h1.758l-.496-1.444h.718l.496 1.444h2.439l-.496-1.444h.73l.496 1.444h2.773l.496-1.444h.718l-.495 1.444h1.659v1.786h-.681v-1.089h-9.435zm10.09-3.306v.697h-10.746v-.697h10.747zm.174 5.637h-8.22l-.62.975h8.382v1.799l-3.442.937 3.875 1.013v.722l-5.224-1.355-5.398 1.47v-.71l4.048-1.115-2.538-.658v-.722l3.9 1.013 4.098-1.127v-.57h-8.147l-1.399 2.14h-.83c.769-1.14 1.594-2.41 2.477-3.812h-2.055v-.697h2.5c.075-.11.178-.274.31-.494l.31-.494h.805c-.132.22-.339.549-.62.988h7.788v.697z"/>
        </g>
    </g>
</svg>
