<svg xmlns="http://www.w3.org/2000/svg" xmlns:xlink="http://www.w3.org/1999/xlink" width="362" height="102" viewBox="0 0 362 102">
    <defs>
        <rect id="a" width="360" height="100" rx="4"/>
        <linearGradient id="c" x1="0%" y1="46.142%" y2="53.858%">
            <stop offset="0%" stop-color="#FFDB9F"/>
            <stop offset="49.987%" stop-color="#9A7B46"/>
            <stop offset="100%" stop-color="#CBAA70"/>
        </linearGradient>
        <rect id="b" width="360" height="100" rx="4"/>
        <filter id="d" width="179.5%" height="179.5%" x="-39.7%" y="-39.7%" filterUnits="objectBoundingBox">
            <feGaussianBlur in="SourceGraphic" stdDeviation="29"/>
        </filter>
        <filter id="f" width="251.3%" height="251.3%" x="-75.7%" y="-75.7%" filterUnits="objectBoundingBox">
            <feGaussianBlur in="SourceGraphic" stdDeviation="29"/>
        </filter>
        <linearGradient id="g" x1="56.546%" x2="35.586%" y1="46.467%" y2="53.533%">
            <stop offset="0%" stop-color="#FBD249"/>
            <stop offset="100%" stop-color="#F5A623"/>
        </linearGradient>
        <linearGradient id="h" x1="56.546%" x2="35.586%" y1="0%" y2="100%">
            <stop offset="0%" stop-color="#FBD249"/>
            <stop offset="100%" stop-color="#F5A623"/>
        </linearGradient>
        <linearGradient id="i" x1="50%" x2="50%" y1="0%" y2="100%">
            <stop offset="0%" stop-color="#21242E"/>
            <stop offset="100%" stop-color="#1D2029"/>
        </linearGradient>
        <linearGradient id="j" x1="4.953%" y1="0%" y2="100%">
            <stop offset="0%" stop-color="#252633"/>
            <stop offset="100%" stop-color="#1D1E1E"/>
        </linearGradient>
        <linearGradient id="k" x1="50%" x2="104.712%" y1="100%" y2="17.783%">
            <stop offset="0%" stop-color="#1D1D20"/>
            <stop offset="100%"/>
        </linearGradient>
        <linearGradient id="l" x1="50%" x2="104.712%" y1="100%" y2="17.783%">
            <stop offset="0%" stop-color="#7195F7"/>
            <stop offset="100%" stop-color="#3C52D6"/>
        </linearGradient>
        <linearGradient id="m" x1="50%" x2="50%" y1="0%" y2="100%">
            <stop offset="0%" stop-color="#23242A"/>
            <stop offset="100%" stop-opacity=".5"/>
        </linearGradient>
        <linearGradient id="n" x1="69.186%" x2="-.895%" y1="26.813%" y2="86.686%">
            <stop offset="0%" stop-color="#B0EEDD"/>
            <stop offset="100%" stop-color="#2D253A"/>
        </linearGradient>
    </defs>
    <g fill="none" fill-rule="evenodd" transform="translate(1 1)">
        <use fill="#1B1C1F" xlink:href="#a"/>
        <mask id="e" fill="#fff">
            <use xlink:href="#b"/>
        </mask>
        <rect width="361" height="101" x="-.5" y="-.5" stroke="url(#c)" rx="4"/>
        <circle cx="178.5" cy="51.5" r="109.5" fill="#1D1D20" filter="url(#d)" mask="url(#e)" opacity=".377" style="mix-blend-mode:soft-light"/>
        <circle cx="178.5" cy="51.5" r="57.5" fill="#11131A" filter="url(#f)" mask="url(#e)" opacity=".377" style="mix-blend-mode:soft-light"/>
        <g mask="url(#e)">
            <path fill="#F3F3F3" fill-rule="nonzero" d="M11.63 80.642h-1.57v-.611h3.822v.61H12.29v2.876h1.354v.612h-1.354v2.983a26.38 26.38 0 0 0 1.653-.683v.66c-1.066.503-2.324.97-3.762 1.401l-.18-.647a54.818 54.818 0 0 0 1.63-.503v-3.211h-1.402v-.612h1.402v-2.875zm4.158 3.235h-1.69v-.635h6.387v.635h-1.798v4.745c0 .383.156.587.48.587h.443c.168 0 .3-.048.383-.132.144-.143.24-.743.276-1.809l.611.192c-.072 1.126-.192 1.81-.36 2.049-.143.191-.407.3-.766.311h-.78c-.31 0-.55-.096-.706-.287a1.148 1.148 0 0 1-.252-.755v-4.901h-1.593v.85c-.048 2.373-1.079 4.11-3.116 5.213l-.491-.431c1.941-.995 2.936-2.589 2.972-4.781v-.851zm-1.27-4.038h5.571v.623h-5.572v-.623zm18.233 3.475v-3.355h.647v3.978h-3.69v4.601h3.606v-3.343h.635v4.721h-.635v-.743H25.43v.743h-.636v-4.721h.636v3.343h3.606v-4.601h-3.69v-3.978h.647v3.355h3.043v-4.266h.671v4.266h3.044zm6.706-.252a15.105 15.105 0 0 1-1.45 1.821l-.215-.683a14.144 14.144 0 0 0 2.875-5.176l.6.276c-.312.958-.707 1.869-1.163 2.708V90h-.647v-6.938zm7.441.767a36.035 36.035 0 0 1 1.69 4.613l-.587.264c-.504-1.774-1.067-3.331-1.69-4.685l.587-.192zm-4.026-2.6a15.104 15.104 0 0 1-1.39 2.624l-.551-.348c.923-1.33 1.594-2.827 2.025-4.505l.623.132c-.144.515-.3 1.006-.467 1.474h5.176v.431a13.804 13.804 0 0 1-.779 2.205l-.623-.18a8.382 8.382 0 0 0 .743-1.833h-4.757zm1.582 8.675h-1.582l-.144-.611c.528.024 1.03.048 1.51.048.312 0 .468-.156.468-.467v-6.519h.623v6.674c0 .576-.3.875-.875.875zm-1.702-5.991l.588.156c-.456 1.69-1.031 3.163-1.726 4.433l-.623-.227c.67-1.139 1.258-2.589 1.761-4.362zm13.333-2.708v8.052h-.623v-.73h-2.42v1.066h-.624v-8.388h1.079c.251-.683.431-1.402.539-2.145l.659.084a10.59 10.59 0 0 1-.575 2.06h1.965zm-3.044 6.722h2.42v-2.84h-2.42v2.84zm0-3.427h2.42v-2.672h-2.42V84.5zm5.081-.587c.91 1.006 1.606 1.881 2.085 2.636l-.515.371c-.504-.814-1.21-1.701-2.097-2.672l.527-.335zm4.17-2.696c0 3.87-.06 6.267-.168 7.177-.12.959-.67 1.438-1.665 1.438-.228 0-.623-.012-1.175-.024l-.155-.599c.479.024.898.036 1.258.036.647 0 1.018-.36 1.114-1.066.096-.72.144-2.828.168-6.315h-3.535a9.688 9.688 0 0 1-1.21 2.097l-.384-.503c.863-1.199 1.45-2.673 1.762-4.41l.635.072c-.144.743-.324 1.45-.551 2.097h3.906zm6.694-1.115c.935 0 1.678.228 2.229.683.563.456.887 1.127.959 2.013h-.731c-.096-.67-.348-1.174-.755-1.521-.408-.348-.983-.516-1.726-.516-.695 0-1.234.12-1.63.36-.455.264-.67.67-.67 1.21 0 .48.263.85.802 1.138.252.12.803.312 1.642.552 1.09.311 1.821.575 2.205.815.707.419 1.066 1.018 1.066 1.797 0 .73-.311 1.318-.922 1.75-.588.407-1.366.61-2.337.61-.983 0-1.761-.227-2.325-.67-.647-.516-1.006-1.295-1.078-2.325h.719c.084.803.36 1.402.839 1.797.431.348 1.042.527 1.833.527.755 0 1.366-.155 1.833-.443.456-.3.695-.707.695-1.21 0-.587-.3-1.043-.874-1.366-.288-.168-.911-.396-1.882-.66-1.018-.287-1.677-.514-1.965-.682-.659-.372-.982-.91-.982-1.606 0-.743.3-1.306.922-1.701.552-.372 1.27-.552 2.133-.552zm6 .168h7.01v.647h-3.14v7.909h-.731v-7.909h-3.14v-.647zm9.282 0h.899l2.911 4.35 2.9-4.35h.899l-3.44 5.033v3.523h-.73v-3.523l-3.439-5.033zm10.54 0h.732v7.909h5.14v.647H94.81V80.27zm9.02 0h6.003v.647h-5.273v3.152h4.985v.659h-4.985v3.45h5.476v.648h-6.206V80.27z"/>
            <path fill="url(#g)" d="M.03 0h8.855c4.326 0 7.328 1.852 9.005 5.556.407 1.03.61 2.14.61 3.325 0 2.47-.982 4.628-2.947 6.475-1.21 1.05-2.694 1.76-4.45 2.13-.586.087-1.27.13-2.054.13l-4.718.088V21H0v-7.452h8.706c1.538 0 2.665-.282 3.379-.846.913-.574 1.568-1.497 1.965-2.77.08-.37.119-.667.119-.89v-.438c0-1.098-.481-2.168-1.444-3.208-1.002-.865-2.113-1.298-3.334-1.298H.03V0zM37 0L26.362 10.5 36.94 21h-6.247l-10.65-10.5L30.6 0H37zm11.418 0v21H43.53V6H42V0h6.418zm19.938 21c-2.94 0-5.448-1.025-7.527-3.075-2.078-2.05-3.117-4.525-3.117-7.425 0-2.9 1.04-5.375 3.117-7.425C62.908 1.025 65.416 0 68.356 0c2.94 0 5.449 1.025 7.527 3.075C77.96 5.125 79 7.6 79 10.5c0 2.9-1.039 5.375-3.117 7.425C73.805 19.975 71.296 21 68.356 21zm0-4.5c1.676 0 3.109-.587 4.298-1.76 1.19-1.173 1.784-2.587 1.784-4.24s-.594-3.067-1.784-4.24-2.622-1.76-4.298-1.76c-1.676 0-3.109.587-4.298 1.76-1.19 1.173-1.784 2.587-1.784 4.24s.595 3.067 1.784 4.24c1.19 1.173 2.622 1.76 4.298 1.76z" transform="translate(10 48)"/>
        </g>
        <g mask="url(#e)">
            <g transform="translate(188 -35)">
                <circle cx="83" cy="83" r="83" fill="#141417"/>
                <path fill="url(#h)" d="M71.5 143C32.075 143 0 110.925 0 71.5 0 32.074 32.075 0 71.5 0S143 32.075 143 71.5 110.925 143 71.5 143" transform="translate(11 11)"/>
                <path fill="url(#i)" d="M71.5 140.4c-37.992 0-68.9-30.908-68.9-68.9 0-37.992 30.908-68.9 68.9-68.9 37.991 0 68.9 30.908 68.9 68.9 0 37.991-30.908 68.9-68.9 68.9" transform="translate(11 11)"/>
                <path fill="url(#j)" d="M71.5 19.5c28.719 0 52 23.281 52 52s-23.281 52-52 52-52-23.281-52-52 23.281-52 52-52" transform="translate(11 11)"/>
                <g fill-rule="nonzero" transform="translate(24 24)">
                    <circle cx="58.5" cy="58.5" r="58.5" fill="url(#k)"/>
                    <circle cx="58.5" cy="58.5" r="50.7" fill="url(#l)" opacity=".2"/>
                    <circle cx="58.5" cy="58.5" r="42.9" fill="url(#m)"/>
                </g>
                <path fill="#EE0060" d="M81.99 68.508c7.548 0 13.668 6.345 13.668 14.173s-6.12 14.174-13.668 14.174c-7.548 0-13.668-6.346-13.668-14.174 0-7.828 6.12-14.173 13.668-14.173"/>
                <path fill="url(#h)" d="M69.924 69.64l-8.909-12.262A19.449 19.449 0 0 0 65.052 45.5c0-.165-.008-.327-.013-.491l14.43-4.689c.256 1.69.39 3.42.39 5.18 0 9.4-3.796 17.93-9.935 24.14zM45.5 79.86a34.15 34.15 0 0 1-15.419-3.66l8.911-12.264a19.466 19.466 0 0 0 6.508 1.117c2.28 0 4.47-.396 6.508-1.117l8.91 12.264A34.147 34.147 0 0 1 45.5 79.86zm-34.358-34.36c0-1.76.133-3.49.39-5.18l14.429 4.69c-.004.163-.013.326-.013.49 0 4.466 1.508 8.584 4.037 11.879l-8.91 12.262c-6.137-6.21-9.933-14.74-9.933-24.14zm28.787-33.904V26.76a19.626 19.626 0 0 0-10.522 7.653l-14.425-4.687c4.906-9.454 14.077-16.352 24.947-18.132zM37.09 45.5c0-4.638 3.773-8.41 8.411-8.41s8.41 3.772 8.41 8.41c0 4.637-3.772 8.41-8.41 8.41s-8.41-3.772-8.41-8.41zm38.929-15.773l-14.425 4.687a19.626 19.626 0 0 0-10.523-7.653V11.595c10.871 1.78 20.042 8.678 24.948 18.132zM45.5 0C20.411 0 0 20.411 0 45.5 0 60.462 7.26 73.76 18.441 82.057c.102.086.204.174.315.253.124.09.25.175.38.254A45.252 45.252 0 0 0 45.5 91c9.82 0 18.92-3.127 26.364-8.436a5.84 5.84 0 0 0 .38-.254c.11-.08.212-.167.315-.253C83.739 73.759 91 60.462 91 45.5 91 20.411 70.589 0 45.5 0z" transform="translate(37 37)"/>
                <path fill="url(#n)" d="M52.245 11.596c10.627 1.78 19.592 8.678 24.388 18.131l-14.101 4.688c-2.45-3.627-6.064-6.367-10.287-7.653V11.596zM80.007 40.32c.25 1.69.381 3.42.381 5.18 0 9.4-3.71 17.93-9.711 24.14l-8.71-12.262A19.738 19.738 0 0 0 65.913 45.5c0-.165-.008-.328-.012-.492l14.106-4.688zM55.022 45.5c0 4.637-3.688 8.41-8.222 8.41v11.141c2.23 0 4.37-.396 6.362-1.118L61.873 76.2A32.776 32.776 0 0 1 46.8 79.86V91c9.599 0 18.497-3.127 25.773-8.437.126-.078.25-.162.372-.253.108-.08.207-.167.307-.253C84.182 73.759 91.28 60.462 91.28 45.5 91.28 20.412 71.326 0 46.8 0v37.09c4.534 0 8.222 3.773 8.222 8.41z" style="mix-blend-mode:soft-light" transform="translate(37 37)"/>
            </g>
        </g>
    </g>
</svg>
