<svg xmlns="http://www.w3.org/2000/svg" width="60" height="80" viewBox="0 0 60 80">
  <defs>
    <linearGradient id="club01-a" x1="50%" x2="50%" y1="0%" y2="97.426%">
      <stop offset="0%" stop-color="#1D2129"/>
      <stop offset="100%" stop-color="#393B46"/>
    </linearGradient>
  </defs>
  <g fill="none" fill-rule="evenodd">
    <rect width="59" height="79" x=".5" y=".5" fill="#FFF" stroke="url(#club01-a)" rx="6"/>
    <path fill="#2A2B31" d="M25.6856983,12.9149012 C22.9114975,12.7556793 20.4832923,14.2858329 19.3185659,16.5691722 C19.0614618,17.0733747 18.63281,17.469399 18.0955452,17.6470372 C18.0888747,17.6492124 18.0822042,17.6515325 18.0755337,17.6535627 C17.6187498,17.8040839 17.162256,17.41473 17.2338913,16.9389497 C17.3912279,15.8940022 17.6383263,14.8784918 17.9660506,13.8995242 C18.1439788,13.3680598 18.5330426,12.9412931 19.0328947,12.6876693 C21.3226146,11.5254081 22.8579885,9.09372267 22.6986217,6.31488152 C22.5037272,2.9177145 19.6776126,0.142643627 16.2778353,0.00560846134 C12.4457811,-0.148973006 9.29063699,2.91191407 9.29063699,6.7096008 C9.29063699,9.32573989 10.7907733,11.5863126 12.9757954,12.6917296 C13.4711521,12.9423082 13.8555756,13.3660296 14.0320537,13.8924187 C14.3607931,14.8735615 14.6089065,15.891537 14.7666782,16.9389497 C14.8381685,17.414585 14.3818197,17.8040839 13.9250358,17.6535627 C13.9182203,17.6513875 13.9112598,17.6490674 13.9044443,17.6467472 C13.3676144,17.469109 12.9392527,17.0733747 12.6822936,16.5696073 C11.5178572,14.2859779 9.08950707,12.7555343 6.31487123,12.9147561 C2.9177042,13.1096506 0.142633332,15.9357653 0.00559816634,19.3355425 C-0.148838291,23.1675968 2.91204878,26.3227408 6.70959051,26.3227408 C9.31731897,26.3227408 11.5715112,24.8323203 12.6808435,22.659044 C12.9389626,22.1533915 13.3693546,21.7563521 13.9082145,21.5781338 C13.91445,21.5761037 13.9206855,21.5739285 13.9269209,21.5718984 C14.3839948,21.4213772 14.8391836,21.8111661 14.7685634,22.2870914 C14.2948132,25.4745729 12.9882663,28.3897242 11.0773145,30.8057484 C10.6950662,31.2890693 11.0490374,32.000347 11.6653332,32.000347 L20.3346563,32.000347 C20.950952,32.000347 21.3049233,31.2890693 20.9226749,30.8057484 C19.0117232,28.3897242 17.7051762,25.4745729 17.2314261,22.2870914 C17.1606608,21.8110211 17.6158496,21.4213772 18.0730685,21.5718984 C18.079304,21.5739285 18.0855394,21.5761037 18.0917749,21.5781338 C18.6307799,21.7563521 19.0610268,22.1535365 19.319146,22.659044 C20.4284783,24.8324653 22.6826705,26.3227408 25.2903989,26.3227408 C29.0882307,26.3227408 32.1489728,23.1674517 31.9943913,19.3355425 C31.8579362,15.9359103 29.0828653,13.1097956 25.6856983,12.9149012 Z" transform="translate(23 43)"/>
    <g fill="#2A2B31" transform="translate(5 5)">
      <path d="M9.63213685,4.84308793 C8.59181155,4.78337975 7.68123462,5.35718732 7.24446222,6.21343959 C7.14804819,6.40251549 6.98730377,6.55102464 6.78582945,6.61763895 C6.78332801,6.61845464 6.78082657,6.6193247 6.77832514,6.62008601 C6.60703118,6.67653145 6.43584598,6.53052374 6.46270922,6.35210613 C6.52171048,5.96025081 6.61437235,5.57943443 6.73726897,5.21232157 C6.80399204,5.01302241 6.94989099,4.85298492 7.13733552,4.75787599 C7.99598047,4.32202803 8.57174569,3.410146 8.51198313,2.36808057 C8.43889771,1.09414294 7.37910471,0.0534913603 6.10418825,0.002103173 C4.6671679,-0.0558648774 3.48398887,1.09196778 3.48398887,2.5161003 C3.48398887,3.49715246 4.04653998,4.34486722 4.86592327,4.7593986 C5.05168205,4.85336557 5.19584087,5.01226111 5.26202015,5.209657 C5.38529742,5.57758555 5.47833995,5.95932637 5.53750434,6.35210613 C5.5643132,6.53046936 5.39318238,6.67653145 5.22188842,6.62008601 C5.21933261,6.61927032 5.21672241,6.61840026 5.2141666,6.6175302 C5.01285542,6.55091588 4.85221975,6.40251549 4.7558601,6.21360273 C4.31919646,5.3572417 3.40856515,4.78332537 2.36807671,4.84303355 C1.09413908,4.91611897 0.0534874997,5.97591197 0.00209931238,7.25082843 C-0.055814359,8.68784878 1.09201829,9.87102781 2.51609644,9.87102781 C3.49399461,9.87102781 4.3393167,9.3121201 4.75531631,8.49714151 C4.85211099,8.30752182 5.01350796,8.15863202 5.21558045,8.09180019 C5.21791875,8.09103888 5.22025705,8.0902232 5.22259535,8.08946189 C5.39399807,8.03301645 5.56469385,8.1791873 5.53821126,8.35765929 C5.36055496,9.55296484 4.87059986,10.6461466 4.15399295,11.5521557 C4.01064982,11.733401 4.14338904,12.0001301 4.37449993,12.0001301 L7.62549611,12.0001301 C7.85660701,12.0001301 7.98934623,11.733401 7.8460031,11.5521557 C7.12939618,10.6461466 6.63944109,9.55296484 6.46178478,8.35765929 C6.43524781,8.17913292 6.6059436,8.03301645 6.7774007,8.08946189 C6.77973899,8.0902232 6.78207729,8.09103888 6.78441559,8.09180019 C6.98654246,8.15863202 7.14788506,8.3075762 7.24467974,8.49714151 C7.66067935,9.31217448 8.50600143,9.87102781 9.4838996,9.87102781 C10.9080865,9.87102781 12.0558648,8.68779441 11.9978967,7.25082843 C11.9467261,5.97596635 10.9060745,4.91617335 9.63213685,4.84308793 Z" transform="translate(0 22)"/>
      <text font-family="ToppanBunkyuMidashiGothicStdN-ExtraBold, Toppan Bunkyu Midashi Gothic" font-size="18" font-weight="600">
        <tspan x="0" y="16">1</tspan>
      </text>
    </g>
  </g>
</svg>
