<svg xmlns="http://www.w3.org/2000/svg" width="60" height="80" viewBox="0 0 60 80">
  <defs>
    <linearGradient id="diamond09-a" x1="50%" x2="50%" y1="0%" y2="97.426%">
      <stop offset="0%" stop-color="#1D2129"/>
      <stop offset="100%" stop-color="#393B46"/>
    </linearGradient>
  </defs>
  <g fill="none" fill-rule="evenodd">
    <rect width="59" height="79" x=".5" y=".5" fill="#FFF" stroke="url(#diamond09-a)" rx="6"/>
    <path fill="#E04E4B" d="M17.1524579,0.442916931 C20.9921652,5.40848857 26.8468561,11.2631859 31.8124139,15.1029523 C32.4025287,15.5592619 32.4025287,16.4411381 31.8124139,16.8974477 C26.8468561,20.7372141 20.9921652,26.5917772 17.1524579,31.5574831 C16.6960756,32.1477723 15.8137901,32.1477723 15.3575421,31.5574831 C11.5178348,26.5919114 5.66314387,20.7372141 0.697586116,16.8974477 C0.107471295,16.4411381 0.107471295,15.5592619 0.697586116,15.1029523 C5.6630096,11.2631859 11.5177005,5.40848857 15.3574078,0.442916931 C15.8137901,-0.14737231 16.6959413,-0.14737231 17.1524579,0.442916931 Z" transform="translate(23 43)"/>
    <g fill="#E04E4B" transform="translate(5 5)">
      <path d="M6.43217171,0.166093849 C7.87206195,2.02818321 10.067571,4.22369471 11.9296552,5.66360711 C12.1509483,5.8347232 12.1509483,6.1654268 11.9296552,6.33654289 C10.067571,7.77645529 7.87206195,9.97191644 6.43217171,11.8340562 C6.26102834,12.0554146 5.93017131,12.0554146 5.75907829,11.8340562 C4.31918805,9.97196679 2.12367895,7.77645529 0.261594794,6.33654289 C0.0403017355,6.1654268 0.0403017355,5.8347232 0.261594794,5.66360711 C2.1236286,4.22369471 4.3191377,2.02818321 5.75902794,0.166093849 C5.93017131,-0.0552646164 6.26097799,-0.0552646164 6.43217171,0.166093849 Z" transform="translate(0 22)"/>
      <text font-family="ToppanBunkyuMidashiGothicStdN-ExtraBold, Toppan Bunkyu Midashi Gothic" font-size="18" font-weight="600">
        <tspan x="0" y="16">9</tspan>
      </text>
    </g>
  </g>
</svg>
