<svg xmlns="http://www.w3.org/2000/svg" width="60" height="80" viewBox="0 0 60 80">
  <defs>
    <linearGradient id="heart08-a" x1="50%" x2="50%" y1="0%" y2="97.426%">
      <stop offset="0%" stop-color="#1D2129"/>
      <stop offset="100%" stop-color="#393B46"/>
    </linearGradient>
  </defs>
  <g fill="none" fill-rule="evenodd">
    <rect width="59" height="79" x=".5" y=".5" fill="#FFF" stroke="url(#heart08-a)" rx="6"/>
    <path fill="#E04E4B" d="M0,10.7669021 C0,6.14595778 3.92838375,2.4 8.77423628,2.4 C11.1761082,2.4 13.3507044,3.32151857 14.9342443,4.81305408 C15.5215359,5.36601809 16.4786036,5.36601809 17.0657557,4.81305408 C18.6494351,3.32165076 20.8240313,2.4 23.2257637,2.4 C28.0716162,2.4 32,6.14595778 32,10.7669021 L32,10.7669021 C32,19.4082373 20.263232,27.2695006 16.8941138,29.3479737 C16.3494887,29.6840088 15.6503719,29.6840088 15.1057468,29.3479737 C11.7369075,27.2695006 0,19.4083695 0,10.7669021" transform="translate(23 43)"/>
    <g fill="#E04E4B" transform="translate(5 5)">
      <path d="M0,4.0375883 C0,2.30473417 1.47314391,0.9 3.2903386,0.9 C4.19104056,0.9 5.00651413,1.24556946 5.60034161,1.80489528 C5.82057595,2.01225679 6.17947634,2.01225679 6.39965839,1.80489528 C6.99353815,1.24561904 7.80901173,0.9 8.7096614,0.9 C10.5268561,0.9 12,2.30473417 12,4.0375883 L12,4.0375883 C12,7.27808898 7.59871199,10.2260627 6.33529266,11.0054901 C6.13105825,11.1315033 5.86888946,11.1315033 5.66465506,11.0054901 C4.4013403,10.2260627 0,7.27813855 0,4.0375883" transform="translate(0 22)"/>
      <text font-family="ToppanBunkyuMidashiGothicStdN-ExtraBold, Toppan Bunkyu Midashi Gothic" font-size="18" font-weight="600">
        <tspan x="0" y="16">8</tspan>
      </text>
    </g>
  </g>
</svg>
