<svg xmlns="http://www.w3.org/2000/svg" width="60" height="80" viewBox="0 0 60 80">
  <defs>
    <linearGradient id="spade06-a" x1="50%" x2="50%" y1="0%" y2="97.426%">
      <stop offset="0%" stop-color="#1D2129"/>
      <stop offset="100%" stop-color="#393B46"/>
    </linearGradient>
  </defs>
  <g fill="none" fill-rule="evenodd">
    <rect width="59" height="79" x=".5" y=".5" fill="#FFF" stroke="url(#spade06-a)" rx="6"/>
    <path fill="#2A2B31" d="M16.5923845,0.164204483 C16.2261736,-0.0547348276 15.7735622,-0.0547348276 15.4074834,0.164204483 C12.603301,1.84075394 0.8,9.4140343 0.8,18.1085532 C0.8,22.6274295 4.531996,26.2906169 9.13552649,26.2906169 C10.6423815,26.2906169 12.0545131,25.8971476 13.2732345,25.210033 C13.6226674,25.0129746 14.0312859,25.3612578 13.894155,25.735565 C13.243906,27.5106436 12.3232263,29.1574142 11.17994,30.6259001 C10.7433141,31.1867784 11.1626335,32 11.877881,32 L20.210369,32 C20.9258807,32 21.3442753,31.1863899 20.9073852,30.6252528 C19.7770458,29.1733394 18.864557,27.547414 18.2157612,25.7953816 C18.0779697,25.4232755 18.4807753,25.074345 18.8313972,25.2657065 C20.0259424,25.9178634 21.4001582,26.2906169 22.8644735,26.2906169 C27.4681361,26.2906169 31.2,22.6274295 31.2,18.1085532 C31.2,9.4140343 19.396699,1.84075394 16.5923845,0.164204483 Z" transform="translate(23 43)"/>
    <g fill="#2A2B31" transform="translate(5 5)">
      <path d="M6.22214419,0.0615766811 C6.08481509,-0.0205255604 5.91508583,-0.0205255604 5.77780627,0.0615766811 C4.72623789,0.690282727 0.3,3.53026286 0.3,6.79070746 C0.3,8.48528607 1.6994985,9.85898135 3.42582243,9.85898135 C3.99089305,9.85898135 4.5204424,9.71143037 4.97746295,9.45376236 C5.10850028,9.37986549 5.26173222,9.51047166 5.21030811,9.65083687 C4.96646473,10.3164914 4.62120986,10.9340303 4.19247751,11.4847125 C4.02874278,11.6950419 4.18598757,12 4.45420538,12 L7.57888836,12 C7.84720525,12 8.00410325,11.6948962 7.84026944,11.4844698 C7.41639216,10.9400023 7.07420886,10.3302803 6.83091043,9.67326812 C6.77923863,9.53372829 6.93029073,9.40287936 7.06177393,9.47463993 C7.50972839,9.71919876 8.02505932,9.85898135 8.57417757,9.85898135 C10.300551,9.85898135 11.7,8.48528607 11.7,6.79070746 C11.7,3.53026286 7.27376211,0.690282727 6.22214419,0.0615766811 Z" transform="translate(0 22)"/>
      <text font-family="ToppanBunkyuMidashiGothicStdN-ExtraBold, Toppan Bunkyu Midashi Gothic" font-size="18" font-weight="600">
        <tspan x="0" y="16">6</tspan>
      </text>
    </g>
  </g>
</svg>
