<svg xmlns="http://www.w3.org/2000/svg" width="110" height="26" viewBox="0 0 110 26">
    <defs>
        <linearGradient id="a" x1="56.546%" x2="35.586%" y1="32.986%" y2="67.014%">
            <stop offset="0%" stop-color="#FBD249"/>
            <stop offset="100%" stop-color="#F5A623"/>
        </linearGradient>
        <linearGradient id="b" x1="56.546%" x2="35.586%" y1="31.474%" y2="68.526%">
            <stop offset="0%" stop-color="#FBD249"/>
            <stop offset="100%" stop-color="#F5A623"/>
        </linearGradient>
    </defs>
    <g fill="none" fill-rule="evenodd">
        <path fill="url(#a)" d="M.02 0h5.743c2.806 0 4.753 1.235 5.841 3.704A6.13 6.13 0 0 1 12 5.921c0 1.646-.637 3.085-1.912 4.317-.785.7-1.747 1.173-2.886 1.419-.38.058-.824.087-1.333.087l-3.06.059V14H0V9.032h5.647c.998 0 1.729-.188 2.192-.564.592-.382 1.017-.998 1.274-1.847.052-.246.078-.444.078-.593v-.292c0-.732-.313-1.445-.937-2.139-.65-.577-1.37-.865-2.163-.865H.02V0zM24 0l-6.9 7 6.86 7h-4.052L13 7l6.85-7H24z" transform="translate(30 6)"/>
        <path fill="url(#b)" d="M31.22 0v14h-3.213V4H27V0h4.22zM43 14c-1.933 0-3.583-.683-4.95-2.05C36.683 10.583 36 8.933 36 7c0-1.933.683-3.583 2.05-4.95C39.417.683 41.067 0 43 0c1.933 0 3.583.683 4.95 2.05C49.317 3.417 50 5.067 50 7c0 1.933-.683 3.583-2.05 4.95C46.583 13.317 44.933 14 43 14zm0-3c1.102 0 2.044-.391 2.827-1.173C46.609 9.044 47 8.102 47 7c0-1.102-.391-2.044-1.173-2.827C45.044 3.391 44.102 3 43 3c-1.102 0-2.044.391-2.827 1.173C39.391 4.956 39 5.898 39 7c0 1.102.391 2.044 1.173 2.827C40.956 10.609 41.898 11 43 11z" transform="translate(30 6)"/>
    </g>
</svg>
