<svg xmlns="http://www.w3.org/2000/svg" width="40" height="40" viewBox="0 0 40 40">
    <defs>
        <linearGradient id="a" x1="-5.578%" x2="91.633%" y1="85.661%" y2="4.232%">
            <stop offset="0%" stop-color="#FFF9B4"/>
            <stop offset="100%" stop-color="#FBEE54"/>
        </linearGradient>
    </defs>
    <g fill="none" fill-rule="evenodd">
        <path fill="#FF4B00" d="M26.154 24.157h-3.077l-1.539 3.894 1.539 4.758 3.421-1.71a.77.77 0 0 0 .425-.689v-5.484a.769.769 0 0 0-.77-.769z"/>
        <path fill="#FF7816" d="M13.846 24.157a.769.769 0 0 0-.77.77v5.483a.77.77 0 0 0 .426.688l3.421 1.71 1.539-4.35-1.539-4.3h-3.077z"/>
        <path fill="#FF9F00" d="M23.077 24.159v8.651l-2.739 1.37a.839.839 0 0 1-.338.076.839.839 0 0 1-.338-.077l-2.739-1.369V24.16h6.154z"/>
        <path fill="#FF7816" d="M20 24.159h3.077v8.651l-2.739 1.37a.839.839 0 0 1-.338.076V24.16z"/>
        <path fill="#FFE470" d="M20 8c-5.508 0-10 4.543-10 10.051s4.492 10 10 10 10-4.492 10-10S25.508 8 20 8z"/>
        <path fill="#FF9F00" d="M20 11.128c-3.815 0-6.923 3.108-6.923 6.923 0 3.816 3.108 6.923 6.923 6.923s6.923-3.107 6.923-6.923c0-3.815-3.108-6.923-6.923-6.923z"/>
        <path fill="#FF9F00" d="M26.923 18.051c0 3.816-3.108 6.923-6.923 6.923V11.128c3.815 0 6.923 3.108 6.923 6.923z"/>
        <path fill="url(#a)" d="M13.939 8.913c-.093-.277-.324-.493-.616-.523l-1.815-.277-.816-1.646c-.138-.262-.415-.385-.692-.385-.277 0-.554.123-.692.385l-.816 1.646-1.815.277c-.292.03-.523.246-.616.523a.773.773 0 0 0 .185.785l1.323 1.276-.307 1.816a.73.73 0 0 0 .307.754c.231.169.539.2.8.061L10 12.744l1.63.861c.247.139.57.108.8-.061a.73.73 0 0 0 .309-.754l-.308-1.816 1.323-1.276c.2-.2.277-.508.185-.785z" transform="translate(10 8)"/>
    </g>
</svg>
