<svg xmlns="http://www.w3.org/2000/svg" xmlns:xlink="http://www.w3.org/1999/xlink" width="47" height="47" viewBox="0 0 47 47">
    <defs>
        <linearGradient id="a" x1="0%" y1="100%" y2="100%">
            <stop offset="0%" stop-color="#FFDB9F"/>
            <stop offset="49.987%" stop-color="#9A7B46"/>
            <stop offset="100%" stop-color="#CBAA70"/>
        </linearGradient>
        <linearGradient id="b" x1="4.953%" y1="0%" y2="100%">
            <stop offset="0%" stop-color="#252633"/>
            <stop offset="100%" stop-color="#1D1E1E"/>
        </linearGradient>
        <path id="c" d="M7.334 8.577C3.988 12.21 1.999 16.88 1.779 21.621h3.782c.204-3.846 1.742-7.49 4.398-10.42L7.334 8.578zM21.621 1.78C16.88 2 12.21 3.988 8.577 7.334l2.625 2.625c2.929-2.656 6.573-4.194 10.42-4.398V1.779zm14.802 5.555C32.79 3.988 28.12 1.999 23.379 1.779v3.782c3.846.204 7.49 1.742 10.42 4.398l2.624-2.625zm6.798 14.287C43 16.88 41.012 12.21 37.666 8.577l-2.625 2.625c2.656 2.929 4.194 6.573 4.398 10.42h3.782zm-5.555 14.802c3.346-3.632 5.335-8.31 5.555-13.053h-3.782c-.204 3.846-1.742 7.5-4.398 10.428l2.625 2.625zM23.379 43.22c4.742-.22 9.412-2.209 13.044-5.555l-2.625-2.625c-2.929 2.656-6.573 4.194-10.42 4.398v3.782zM8.577 37.666c3.632 3.346 8.302 5.335 13.044 5.555v-3.782c-3.846-.204-7.49-1.742-10.42-4.398l-2.624 2.625zM22.5 7.295c-8.245 0-15.205 6.974-15.205 15.205 0 8.245 6.974 15.205 15.205 15.205 8.245 0 15.205-6.974 15.205-15.205 0-8.245-6.974-15.205-15.205-15.205zM5.56 23.379H1.78C2 28.12 3.987 32.79 7.333 36.423l2.625-2.625c-2.656-2.929-4.194-6.573-4.398-10.42zM22.5 45C10.337 45 0 34.61 0 22.5 0 10.339 10.389 0 22.5 0 34.663 0 45 10.39 45 22.5 45 34.661 34.611 45 22.5 45zm.008-34.19c-6.45 0-11.697 5.248-11.697 11.698s5.247 11.698 11.697 11.698c6.45 0 11.698-5.248 11.698-11.698s-5.248-11.697-11.698-11.697zm0 25.066c-7.37 0-13.367-5.997-13.367-13.368 0-7.37 5.996-13.367 13.367-13.367s13.368 5.996 13.368 13.367-5.997 13.368-13.368 13.368z"/>
        <linearGradient id="d" x1="50%" x2="50%" y1="1.544%" y2="100%">
            <stop offset="0%" stop-color="#21242E" stop-opacity=".39"/>
            <stop offset="100%" stop-color="#1D2029" stop-opacity=".8"/>
        </linearGradient>
    </defs>
    <g fill="none" fill-rule="evenodd">
        <g transform="translate(1 1)">
            <circle cx="22.5" cy="22.5" r="22.148" fill="#FFF"/>
            <path fill="#7428FF" d="M11.22 11.093L7.296 7.287C11.182 3.277 16.548.702 22.373.611l.086 5.537c-4.36.067-8.354 1.97-11.238 4.945zm22.571 22.72l3.867 3.867c-3.95 3.949-9.355 6.441-15.18 6.441v-5.537c4.361 0 8.383-1.84 11.313-4.77zM44.1 22.5h-5.537c0-4.361-1.84-8.383-4.77-11.313l3.866-3.867c3.949 3.95 6.441 9.355 6.441 15.18zM11.11 33.557l-3.806 3.926C3.294 33.595.719 28.229.628 22.405l5.537-.086c.067 4.36 1.97 8.353 4.945 11.238z"/>
            <path fill="url(#a)" d="M22.5 38.848c-9.029 0-16.348-7.32-16.348-16.348 0-9.029 7.32-16.348 16.348-16.348 9.029 0 16.348 7.32 16.348 16.348 0 9.029-7.32 16.348-16.348 16.348zm0-4.57c6.504 0 11.777-5.274 11.777-11.778 0-6.504-5.273-11.777-11.777-11.777S10.723 15.996 10.723 22.5 15.996 34.277 22.5 34.277z"/>
            <use fill="url(#b)" xlink:href="#c"/>
            <use fill="url(#a)" xlink:href="#c"/>
            <path fill="url(#b)" d="M7.334 8.577C3.988 12.21 1.999 16.88 1.779 21.621h3.782c.204-3.846 1.742-7.49 4.398-10.42L7.334 8.578zM21.621 1.78C16.88 2 12.21 3.988 8.577 7.334l2.625 2.625c2.929-2.656 6.573-4.194 10.42-4.398V1.779zm14.802 5.555C32.79 3.988 28.12 1.999 23.379 1.779v3.782c3.846.204 7.49 1.742 10.42 4.398l2.624-2.625zm6.798 14.287C43 16.88 41.012 12.21 37.666 8.577l-2.625 2.625c2.656 2.929 4.194 6.573 4.398 10.42h3.782zm-5.555 14.802c3.346-3.632 5.335-8.31 5.555-13.053h-3.782c-.204 3.846-1.742 7.5-4.398 10.428l2.625 2.625zM23.379 43.22c4.742-.22 9.412-2.209 13.044-5.555l-2.625-2.625c-2.929 2.656-6.573 4.194-10.42 4.398v3.782zM8.577 37.666c3.632 3.346 8.302 5.335 13.044 5.555v-3.782c-3.846-.204-7.49-1.742-10.42-4.398l-2.624 2.625zM22.5 7.295c-8.245 0-15.205 6.974-15.205 15.205 0 8.245 6.974 15.205 15.205 15.205 8.245 0 15.205-6.974 15.205-15.205 0-8.245-6.974-15.205-15.205-15.205zM5.56 23.379H1.78C2 28.12 3.987 32.79 7.333 36.423l2.625-2.625c-2.656-2.929-4.194-6.573-4.398-10.42zM22.5 45C10.337 45 0 34.61 0 22.5 0 10.339 10.389 0 22.5 0 34.663 0 45 10.39 45 22.5 45 34.661 34.611 45 22.5 45zm.008-34.19c-6.45 0-11.697 5.248-11.697 11.698s5.247 11.698 11.697 11.698c6.45 0 11.698-5.248 11.698-11.698s-5.248-11.697-11.698-11.697zm0 25.066c-7.37 0-13.367-5.997-13.367-13.368 0-7.37 5.996-13.367 13.367-13.367s13.368 5.996 13.368 13.367-5.997 13.368-13.368 13.368z"/>
            <path fill="url(#d)" stroke="url(#a)" stroke-width=".2" d="M7.334 8.577C3.988 12.21 1.999 16.88 1.779 21.621h3.782c.204-3.846 1.742-7.49 4.398-10.42L7.334 8.578zM21.621 1.78C16.88 2 12.21 3.988 8.577 7.334l2.625 2.625c2.929-2.656 6.573-4.194 10.42-4.398V1.779zm14.802 5.555C32.79 3.988 28.12 1.999 23.379 1.779v3.782c3.846.204 7.49 1.742 10.42 4.398l2.624-2.625zm6.798 14.287C43 16.88 41.012 12.21 37.666 8.577l-2.625 2.625c2.656 2.929 4.194 6.573 4.398 10.42h3.782zm-5.555 14.802c3.346-3.632 5.335-8.31 5.555-13.053h-3.782c-.204 3.846-1.742 7.5-4.398 10.428l2.625 2.625zM23.379 43.22c4.742-.22 9.412-2.209 13.044-5.555l-2.625-2.625c-2.929 2.656-6.573 4.194-10.42 4.398v3.782zM8.577 37.666c3.632 3.346 8.302 5.335 13.044 5.555v-3.782c-3.846-.204-7.49-1.742-10.42-4.398l-2.624 2.625zM22.5 7.295c-8.245 0-15.205 6.974-15.205 15.205 0 8.245 6.974 15.205 15.205 15.205 8.245 0 15.205-6.974 15.205-15.205 0-8.245-6.974-15.205-15.205-15.205zM5.56 23.379H1.78C2 28.12 3.987 32.79 7.333 36.423l2.625-2.625c-2.656-2.929-4.194-6.573-4.398-10.42zM22.5 45C10.337 45 0 34.61 0 22.5 0 10.339 10.389 0 22.5 0 34.663 0 45 10.39 45 22.5 45 34.661 34.611 45 22.5 45zm.008-34.19c-6.45 0-11.697 5.248-11.697 11.698s5.247 11.698 11.697 11.698c6.45 0 11.698-5.248 11.698-11.698s-5.248-11.697-11.698-11.697zm0 25.066c-7.37 0-13.367-5.997-13.367-13.368 0-7.37 5.996-13.367 13.367-13.367s13.368 5.996 13.368 13.367-5.997 13.368-13.368 13.368z" opacity=".987"/>
        </g>
        <text fill="#2A2B31" font-family="Kankin" font-size="9" transform="translate(1 1)">
            <tspan x="18" y="25.5">50</tspan>
        </text>
    </g>
</svg>
