<svg xmlns="http://www.w3.org/2000/svg" width="110" height="26" viewBox="0 0 110 26">
    <defs>
        <linearGradient id="a" x1="0%" y1="49.245%" y2="50.755%">
            <stop offset="0%" stop-color="#2A2A2A"/>
            <stop offset="100%" stop-color="#313347"/>
        </linearGradient>
        <filter id="b" width="110.9%" height="189%" x="-5.5%" y="-44.5%" filterUnits="objectBoundingBox">
            <feGaussianBlur in="SourceGraphic" stdDeviation="2"/>
        </filter>
        <linearGradient id="c" x1="0%" y1="100%" y2="100%">
            <stop offset="0%" stop-color="#FFDB9F"/>
            <stop offset="49.987%" stop-color="#9A7B46"/>
            <stop offset="100%" stop-color="#CBAA70"/>
        </linearGradient>
        <radialGradient id="d" cx="51.204%" r="573.448%" fx="51.204%" fy="50%" gradientTransform="matrix(.12285 0 0 1 .45 0)">
            <stop offset="0%" stop-color="#FFD1A0"/>
            <stop offset="36.396%" stop-color="#FFF" stop-opacity=".649"/>
            <stop offset="68.475%" stop-color="#FFF3B5" stop-opacity=".757"/>
            <stop offset="100%" stop-opacity="0"/>
        </radialGradient>
        <linearGradient id="e" x1="0%" y1="49.923%" y2="50%">
            <stop offset="0%" stop-color="#B0EEDD"/>
            <stop offset="100%" stop-color="#FCBDBD"/>
        </linearGradient>
    </defs>
    <g fill="none" fill-rule="evenodd">
        <path fill="url(#a)" d="M0 13.06V.42h5.097C7.204.421 8.89 1.98 8.89 3.96c0 1.18-.485 1.917-1.37 2.59v.043c1.307.927 1.854 1.811 1.854 3.117 0 1.749-1.39 3.35-3.791 3.35H0zm.78-.59h4.802c1.917 0 3.012-1.327 3.012-2.76 0-1.095-.59-2.19-2.043-3.012V6.53C7.73 5.835 8.11 4.97 8.11 3.96c0-1.643-1.349-2.949-3.013-2.949H.78V12.47zM2.295 1.41v-.105h3.412l.38.105H2.295zm0 .4v-.105h4.381l-.02-.02.168.125H2.296zm0 .422v-.106h4.866l.084.106h-4.95zm0 3.812V2.528H4.55c1.18 0 2 .758 2 1.748 0 1.053-.82 1.77-2 1.77H2.296zM5.624 2.55h1.875l.042.105H5.856l-.232-.105zm.716.526l-.105-.105h1.453l.042.105H6.34zm-3.265 2.38H4.55c.716 0 1.221-.484 1.221-1.179 0-.653-.505-1.159-1.221-1.159H3.075v2.339zm3.497-1.98l-.042-.084h1.306v.085H6.572zm.147.422L6.7 3.79h1.179v.106H6.719zm.042.421v-.105h1.117v.105H6.76zm-.063.421l.042-.105h1.075l-.042.105H6.698zm-.126.422l.063-.106h1.032l-.063.106H6.572zm-.295.4l.105-.105h1.054l-.085.105H6.277zm-.442.421l.126-.105H7.1l-.127.105H5.835zm-3.539.421v-.105H6.53l-.148.105H2.296zm0 .422v-.106h3.981l.147.106H2.296zm0 .4V7.14h4.57l.106.084H2.296zm0 3.665V7.499H4.95c1.18 0 1.959.78 1.959 1.706 0 1.032-.78 1.685-1.959 1.685H2.296zM6.13 7.54H7.35l.106.106H6.298l-.168-.105zm.484.422H7.73l.085.105H6.719l-.105-.105zM3.075 10.3H4.95c.716 0 1.18-.421 1.18-1.095 0-.611-.464-1.116-1.18-1.116H3.075V10.3zM6.91 8.383h1.074l.063.106H6.972l-.063-.106zm.19.527l-.022-.105h1.117l.042.105H7.099zm.02.4v-.105H8.32v.105h-1.2zm-.063.421l.021-.105h1.306v.105H7.056zm-.19.422l.064-.106h1.432l-.042.106H6.867zm-.336.421l.105-.105h1.622l-.042.105H6.53zm-.632.4l.168-.084h2.001l-.042.084H5.898zm-3.602.422v-.106h5.519l-.106.106H2.296zm0 .42v-.105h5.076l-.147.106H2.296zm0 .422v-.105h4.17l-.884.105H2.296zm9.607.822L18.054 0h.548l6.192 13.06h-3.328l-.632-1.306h-4.992l-.61 1.306h-3.329zM13 12.47h1.664L18.2 4.845h.295l3.497 7.625h1.706L18.328 1.137l-5.33 11.333zm5.118-10.406l.042-.105h.295l.063.105h-.4zm-.21.422l.063-.106h.695l.042.106h-.8zm-.19.42l.042-.105h1.095l.064.106h-1.201zm-.21.422l.063-.105h1.495l.042.105h-1.6zm-.19.421l.042-.105h1.896l.063.105h-2.001zm-.19.422l.042-.106h2.296l.042.106h-2.38zm-.21.42l.063-.104h2.675l.063.105h-2.801zm1.916.422l-.063-.105h1.096l.042.105h-1.075zm-2.106 0l.042-.105h1.138l-.064.105h-1.116zm2.296.421l-.063-.105h1.095l.063.105h-1.095zm-2.507 0l.064-.105h1.137l-.063.105h-1.138zm2.697.422l-.064-.106h1.117l.042.106h-1.095zm-2.886 0l.042-.106h1.137l-.063.106h-1.116zm3.075.421l-.063-.105h1.116l.064.105h-1.117zm-3.286 0l.063-.105h1.138l-.063.105h-1.138zm.716 3.244h2.928l-1.432-3.18h-.042l-1.454 3.18zm2.76-2.823l-.063-.105h1.137l.042.105h-1.116zm-3.665 0l.042-.105h1.137l-.063.105h-1.116zm3.854.422l-.063-.106h1.138l.063.106H19.78zm-4.065 0l.063-.106h1.138l-.064.106h-1.137zm4.255.42l-.063-.104h1.158l.042.105h-1.137zm-4.445 0l.043-.104h1.137l-.063.105h-1.117zm4.634.422l-.063-.105h1.159l.063.105H20.16zm-4.823 0l.042-.105h1.137l-.063.105h-1.116zm4.95.316h1.18l.042.105H20.35l-.063-.105zm-5.16.105l.062-.105h1.138l-.063.105h-1.138zm5.328.316h1.201l.063.106h-1.2l-.064-.106zm-5.518.106l.042-.106h1.137l-.063.106h-1.116zm5.708.316h1.222l.042.105h-1.2l-.064-.105zm-5.919.105l.063-.105h1.138l-.064.105h-1.137zm6.108.316h1.222l.063.105h-1.221l-.064-.105zm-6.298.105l.043-.105h1.158l-.063.105h-1.138zm6.467.316h1.264l.042.106h-1.243l-.063-.106zm-6.677.106l.063-.106h1.158l-.063.106h-1.158zm1.748 1.116h4.508l-.485-1.053h-3.56l-.463 1.053zm.653-.695l.042-.106h3.054l.064.106h-3.16zm-.19.421l.043-.105h3.412l.042.105h-3.497zm10.177-4.17C26.714 2.97 29.557 0 33.559 0c2.402 0 4.066.906 5.414 2.317l-2.128 2.022c-.884-.863-2.022-1.411-3.286-1.411-2.253 0-3.707 1.685-3.707 3.812 0 2.128 1.454 3.813 3.707 3.813 1.264 0 2.402-.548 3.286-1.411l2.065 2.022c-1.264 1.327-3.013 2.317-5.35 2.317-4.003 0-6.846-2.97-6.846-6.74zm.779 0c0 3.433 2.549 6.15 6.066 6.15 1.854 0 3.244-.59 4.424-1.685l-1.2-1.222c-.76.674-1.96 1.159-3.224 1.159-2.717 0-4.507-1.938-4.507-4.403 0-2.464 1.79-4.402 4.507-4.402 1.201 0 2.36.442 3.265 1.138l1.2-1.159C36.91 1.18 35.456.59 33.56.59c-3.517 0-6.066 2.717-6.066 6.15zM32.485.905C32.843.843 32.95.82 33.56.82v.085h-1.074zm-1.39.421l.274-.105h2.19v.105h-2.464zm-.758.421l.168-.105h3.054v.105h-3.222zm-.611.422l.168-.106h3.665v.042l-.821.064h-3.012zm-.422.42l.106-.104h2.211l-.273.105h-2.044zm-.379.422l.085-.105h1.769l-.148.105h-1.706zm-.295.421l.085-.105h1.558l-.126.105H28.63zm-.252.422l.063-.106h1.432l-.084.106h-1.411zm-.19.421l.042-.105h1.327l-.084.105h-1.285zm-.147.421l.02-.105h1.265l-.064.105h-1.221zm-.127.422l.021-.106h1.201l-.042.106h-1.18zm-.105.42l.021-.105h1.18l-.043.106H27.81zm-.063.422l.02-.105h1.16l-.043.105h-1.137zm-.042.421l.02-.105h1.138l-.02.105h-1.138zm0 .422v-.106h1.137v.106h-1.137zm.02.42l-.02-.104h1.137l.021.105h-1.137zm.043.422l-.021-.105h1.137l.042.105h-1.158zm.084.421l-.042-.105h1.158l.043.105H27.85zm.084.422l-.02-.106h1.179l.042.106h-1.2zm.127.421l-.021-.105h1.221l.064.105h-1.264zm.19.421l-.064-.105h1.306l.084.105h-1.327zm.21.422l-.063-.106h1.39l.105.106h-1.432zm.253.42l-.064-.104h1.517l.105.105h-1.558zm.316.422l-.064-.105h1.686l.126.105H29.03zm.295.316h2.064l.21.105h-2.17l-.104-.105zm.484.421h3.054c.21 0 .506.021.695.042v.064h-3.623l-.126-.106zm.59.422h3.16v.105h-3.013l-.147-.105zm.737.42h2.422v.106h-2.148l-.274-.105zm1.432.422h.99v.063h-.042l-.948-.063zm9.734-5.856c0-3.77 2.844-6.74 6.846-6.74 2.401 0 4.065.906 5.413 2.317l-2.127 2.022c-.885-.863-2.022-1.411-3.286-1.411-2.254 0-3.707 1.685-3.707 3.812 0 2.128 1.453 3.813 3.707 3.813 1.264 0 2.401-.548 3.286-1.411l2.064 2.022c-1.264 1.327-3.012 2.317-5.35 2.317-4.002 0-6.846-2.97-6.846-6.74zm.78 0c0 3.434 2.548 6.151 6.066 6.151 1.854 0 3.244-.59 4.423-1.685l-1.2-1.222c-.759.674-1.96 1.159-3.223 1.159-2.717 0-4.508-1.938-4.508-4.403 0-2.464 1.79-4.402 4.508-4.402 1.2 0 2.36.442 3.265 1.138l1.2-1.159C52.498 1.18 51.044.59 49.15.59c-3.518 0-6.066 2.717-6.066 6.15zM48.075.906c.358-.063.463-.085 1.074-.085v.085h-1.074zm-1.39.421l.273-.105h2.19v.105h-2.464zm-.759.421l.169-.105h3.054v.105h-3.223zm-.61.422l.168-.106h3.665v.042l-.822.064h-3.012zm-.422.42l.105-.104h2.212l-.274.105h-2.043zm-.38.422l.085-.105h1.77l-.148.105h-1.706zm-.294.421l.084-.105h1.559l-.126.105H44.22zm-.253.422l.063-.106h1.433l-.084.106h-1.412zm-.19.421l.043-.105h1.327l-.084.105h-1.285zm-.147.421l.021-.105h1.264l-.063.105H43.63zm-.126.422l.02-.106h1.202l-.043.106h-1.18zm-.105.42l.02-.105h1.18l-.042.106h-1.158zm-.064.422l.021-.105h1.159l-.042.105h-1.138zm-.042.421l.021-.105h1.138l-.021.105h-1.138zm0 .422v-.106h1.138v.106h-1.138zm.021.42l-.02-.104h1.137l.02.105h-1.137zm.042.422l-.02-.105h1.137l.042.105h-1.159zm.085.421l-.042-.105h1.158l.042.105h-1.158zm.084.422l-.021-.106h1.18l.042.106h-1.201zm.126.421l-.02-.105h1.22l.064.105h-1.264zm.19.421l-.063-.105h1.306l.084.105H43.84zm.21.422l-.063-.106h1.39l.106.106H44.05zm.253.42l-.063-.104h1.517l.105.105h-1.559zm.316.422l-.063-.105h1.685l.127.105H44.62zm.295.316h2.064l.211.105h-2.17l-.105-.105zm.485.421h3.054c.21 0 .505.021.695.042v.064h-3.623l-.126-.106zm.59.422h3.159v.105h-3.012l-.148-.105zm.737.42h2.422v.106H47l-.273-.105zm1.432.422h.99v.063h-.042l-.948-.063zm9.144.464L63.453 0h.548l6.193 13.06h-3.328l-.632-1.306h-4.992l-.61 1.306h-3.329zm1.095-.59h1.664l3.54-7.625h.294l3.497 7.625h1.706L63.727 1.137 58.398 12.47zm5.119-10.406l.042-.105h.295l.063.105h-.4zm-.21.422l.062-.106h.695l.043.106h-.8zm-.19.42l.042-.105h1.095l.063.106h-1.2zm-.211.422l.063-.105h1.496l.042.105h-1.601zm-.19.421l.043-.105h1.895l.063.105h-2zm-.19.422l.043-.106h2.296l.042.106h-2.38zm-.21.42l.063-.104h2.675l.064.105h-2.802zm1.917.422l-.063-.105h1.095l.042.105h-1.074zm-2.106 0l.042-.105h1.137l-.063.105h-1.116zm2.296.421l-.064-.105h1.096l.063.105h-1.095zm-2.507 0l.063-.105h1.138l-.064.105h-1.137zm2.696.422l-.063-.106h1.116l.042.106h-1.095zm-2.886 0l.043-.106h1.137l-.063.106h-1.117zm3.076.421l-.063-.105h1.116l.063.105h-1.116zm-3.286 0l.063-.105h1.137l-.063.105h-1.137zm.716 3.244h2.928l-1.433-3.18h-.042l-1.453 3.18zm2.76-2.823l-.064-.105h1.138l.042.105H64.99zm-3.666 0l.042-.105h1.138l-.063.105h-1.117zm3.855.422l-.063-.106h1.137l.063.106h-1.137zm-4.065 0l.063-.106h1.137l-.063.106h-1.137zm4.254.42l-.063-.104h1.159l.042.105H65.37zm-4.444 0l.042-.104h1.138l-.064.105h-1.116zm4.634.422l-.063-.105h1.158l.064.105H65.56zm-4.824 0l.043-.105h1.137l-.063.105h-1.117zm4.95.316h1.18l.042.105H65.75l-.064-.105zm-5.16.105l.063-.105h1.137l-.063.105h-1.137zm5.329.316h1.2l.064.106h-1.2l-.064-.106zm-5.519.106l.042-.106h1.138l-.063.106h-1.117zm5.708.316h1.222l.042.105h-1.2l-.064-.105zm-5.918.105l.063-.105h1.137l-.063.105h-1.137zm6.108.316h1.222l.063.105h-1.222l-.063-.105zm-6.298.105l.042-.105h1.159l-.064.105h-1.137zm6.467.316h1.263l.043.106h-1.243l-.063-.106zm-6.678.106l.064-.106h1.158l-.063.106h-1.159zm1.749 1.116h4.507l-.484-1.053h-3.56l-.463 1.053zm.653-.695l.042-.106h3.054l.063.106h-3.16zm-.19.421l.042-.105h3.412l.043.105h-3.497zm11.946 2.149V.42h5.287c2.717 0 4.486 1.643 4.486 4.023 0 2.212-1.116 3.455-2.99 3.918l3.411 4.698h-3.875L76.979 8.34v4.719h-3.096zm.779-.59H76.2V7.94h1.39l3.096 4.529h2.085l-3.16-4.36v-.19c2.15-.253 3.266-1.327 3.266-3.35 0-2.169-1.601-3.559-3.707-3.559h-4.508V12.47zM76.22 1.348v-.105h2.949l.99.105h-3.94zm0 .421v-.105h4.739l.169.105H76.22zm0 .422v-.106h5.37l.106.106h-5.476zM76.2 6.488V2.464h3.18c1.285 0 2.022 1.012 2.022 1.98 0 1.117-.779 2.044-1.938 2.044H76.2zm4.17-3.981h1.622l.084.105h-1.474l-.232-.105zm.611.42h1.285l.042.106h-1.18l-.147-.105zm-4.002 2.97h2.485c.696 0 1.159-.715 1.159-1.453 0-.737-.548-1.39-1.243-1.39H76.98v2.844zm4.381-2.443l-.063-.105h1.159l.042.105H81.36zm.21.422l-.062-.106h1.074v.106H81.57zm.022.421v-.105h1.053v.105h-1.053zm.021.421v-.105h1.053v.105h-1.053zm-.105.422l.02-.106h1.096v.106h-1.116zm-.169.42l.063-.104h1.18l-.042.105h-1.2zm-.295.422l.106-.105h1.306l-.064.105h-1.348zm-.505.421l.168-.105h1.538l-.084.105h-1.622zm-4.318.422v-.106h5.687l-.105.106H76.22zm0 .421v-.105h5.14l-.19.105h-4.95zm0 .421v-.105h4.107l-.548.105h-3.56zm1.706.422l-.063-.106h1.495v.106h-1.432zm.274.42l-.064-.105h1.39l.106.106h-1.432zm.295.422l-.064-.105h1.412l.084.105h-1.432zm.273.421l-.063-.105h1.433l.105.105h-1.475zm.232.316h1.453l.085.106h-1.475l-.063-.106zm.274.422h1.474l.106.105h-1.517l-.063-.105zm.295.42h1.495l.085.106h-1.517l-.063-.105zm.295.422h1.495l.106.105h-1.538l-.063-.105zm.295.421h1.516l.084.106h-1.537l-.063-.106zm.294.422h1.517l.105.105h-1.558l-.064-.105zm.295.421h1.538l.063.105h-1.537l-.064-.105zm6.09.864L92.99 0h.548l6.193 13.06h-3.328l-.632-1.306h-4.992l-.61 1.306h-3.329zm1.095-.59H89.6l3.538-7.625h.295l3.497 7.625h1.706L93.264 1.137l-5.33 11.333zm5.119-10.406l.042-.105h.295l.063.105h-.4zm-.21.422l.063-.106h.695l.042.106h-.8zm-.19.42l.042-.105h1.095l.063.106h-1.2zm-.21.422h1.6l-.042-.105h-1.496l-.063.105zm-.19.421l.042-.105h1.895l.064.105h-2.001zm-.19.422l.042-.106h2.296l.042.106h-2.38zm-.21.42l.063-.104h2.675l.063.105h-2.802zm1.916.422l-.063-.105h1.095l.042.105H93.77zm-2.106 0l.042-.105h1.137l-.063.105h-1.116zm2.296.421l-.063-.105h1.095l.063.105h-1.095zm-2.507 0l.063-.105h1.138l-.063.105h-1.138zm2.696.422l-.063-.106h1.116l.043.106h-1.096zm-2.885 0l.042-.106h1.137l-.063.106h-1.116zm3.075.421l-.063-.105h1.116l.063.105h-1.116zm-3.286 0l.063-.105h1.138l-.064.105h-1.137zm.716 3.244h2.928l-1.432-3.18h-.043l-1.453 3.18zm2.76-2.823l-.064-.105h1.138l.042.105h-1.117zm-3.666 0l.042-.105h1.138l-.063.105h-1.117zm3.855.422l-.063-.106h1.137l.063.106h-1.137zm-4.065 0l.063-.106h1.137l-.063.106h-1.137zm4.255.42l-.064-.104h1.159l.042.105h-1.137zm-4.445 0l.042-.104h1.138l-.063.105h-1.117zm4.634.422l-.063-.105h1.158l.064.105h-1.159zm-4.823 0l.042-.105h1.137l-.063.105h-1.116zm4.95.316h1.18l.041.105h-1.158l-.063-.105zm-5.161.105l.063-.105h1.138l-.064.105h-1.137zm5.33.316h1.2l.063.106h-1.2l-.064-.106zm-5.52.106l.042-.106h1.138l-.063.106h-1.117zm5.709.316h1.221l.042.105h-1.2l-.063-.105zm-5.92.105l.064-.105h1.137l-.063.105h-1.137zm6.11.316h1.22l.064.105h-1.222l-.063-.105zm-6.299.105l.042-.105h1.159l-.063.105h-1.138zm6.467.316h1.264l.042.106h-1.243l-.063-.106zm-6.678.106l.064-.106h1.158l-.063.106h-1.159zm1.749 1.116h4.507l-.484-1.053h-3.56l-.463 1.053zm.653-.695l.042-.106h3.054l.063.106h-3.16zm-.19.421l.042-.105h3.413l.042.105h-3.497zm12.304 2.149v-9.9h-2.844V.42h8.805V3.16h-2.865v9.9h-3.096zm.78-.59h1.537v-9.9h2.865V1.01h-7.246V2.57h2.843v9.9zm-2.634-11.038v-.105h6.825v.105h-6.825zm0 .422v-.106h6.825v.106h-6.825zm0 .42V2.17h6.825v.105h-6.825z" filter="url(#b)" transform="translate(0 6)"/>
        <path fill="url(#c)" d="M0 13.06V.42h5.097C7.204.421 8.89 1.98 8.89 3.96c0 1.18-.485 1.917-1.37 2.59v.043c1.307.927 1.854 1.811 1.854 3.117 0 1.749-1.39 3.35-3.791 3.35H0zm.78-.59h4.802c1.917 0 3.012-1.327 3.012-2.76 0-1.095-.59-2.19-2.043-3.012V6.53C7.73 5.835 8.11 4.97 8.11 3.96c0-1.643-1.349-2.949-3.013-2.949H.78V12.47zM2.295 1.41v-.105h3.412l.38.105H2.295zm0 .4v-.105h4.381l-.02-.02.168.125H2.296zm0 .422v-.106h4.866l.084.106h-4.95zm0 3.812V2.528H4.55c1.18 0 2 .758 2 1.748 0 1.053-.82 1.77-2 1.77H2.296zM5.624 2.55h1.875l.042.105H5.856l-.232-.105zm.716.526l-.105-.105h1.453l.042.105H6.34zm-3.265 2.38H4.55c.716 0 1.221-.484 1.221-1.179 0-.653-.505-1.159-1.221-1.159H3.075v2.339zm3.497-1.98l-.042-.084h1.306v.085H6.572zm.147.422L6.7 3.79h1.179v.106H6.719zm.042.421v-.105h1.117v.105H6.76zm-.063.421l.042-.105h1.075l-.042.105H6.698zm-.126.422l.063-.106h1.032l-.063.106H6.572zm-.295.4l.105-.105h1.054l-.085.105H6.277zm-.442.421l.126-.105H7.1l-.127.105H5.835zm-3.539.421v-.105H6.53l-.148.105H2.296zm0 .422v-.106h3.981l.147.106H2.296zm0 .4V7.14h4.57l.106.084H2.296zm0 3.665V7.499H4.95c1.18 0 1.959.78 1.959 1.706 0 1.032-.78 1.685-1.959 1.685H2.296zM6.13 7.54H7.35l.106.106H6.298l-.168-.105zm.484.422H7.73l.085.105H6.719l-.105-.105zM3.075 10.3H4.95c.716 0 1.18-.421 1.18-1.095 0-.611-.464-1.116-1.18-1.116H3.075V10.3zM6.91 8.383h1.074l.063.106H6.972l-.063-.106zm.19.527l-.022-.105h1.117l.042.105H7.099zm.02.4v-.105H8.32v.105h-1.2zm-.063.421l.021-.105h1.306v.105H7.056zm-.19.422l.064-.106h1.432l-.042.106H6.867zm-.336.421l.105-.105h1.622l-.042.105H6.53zm-.632.4l.168-.084h2.001l-.042.084H5.898zm-3.602.422v-.106h5.519l-.106.106H2.296zm0 .42v-.105h5.076l-.147.106H2.296zm0 .422v-.105h4.17l-.884.105H2.296zm9.607.822L18.054 0h.548l6.192 13.06h-3.328l-.632-1.306h-4.992l-.61 1.306h-3.329zM13 12.47h1.664L18.2 4.845h.295l3.497 7.625h1.706L18.328 1.137l-5.33 11.333zm5.118-10.406l.042-.105h.295l.063.105h-.4zm-.21.422l.063-.106h.695l.042.106h-.8zm-.19.42l.042-.105h1.095l.064.106h-1.201zm-.21.422l.063-.105h1.495l.042.105h-1.6zm-.19.421l.042-.105h1.896l.063.105h-2.001zm-.19.422l.042-.106h2.296l.042.106h-2.38zm-.21.42l.063-.104h2.675l.063.105h-2.801zm1.916.422l-.063-.105h1.096l.042.105h-1.075zm-2.106 0l.042-.105h1.138l-.064.105h-1.116zm2.296.421l-.063-.105h1.095l.063.105h-1.095zm-2.507 0l.064-.105h1.137l-.063.105h-1.138zm2.697.422l-.064-.106h1.117l.042.106h-1.095zm-2.886 0l.042-.106h1.137l-.063.106h-1.116zm3.075.421l-.063-.105h1.116l.064.105h-1.117zm-3.286 0l.063-.105h1.138l-.063.105h-1.138zm.716 3.244h2.928l-1.432-3.18h-.042l-1.454 3.18zm2.76-2.823l-.063-.105h1.137l.042.105h-1.116zm-3.665 0l.042-.105h1.137l-.063.105h-1.116zm3.854.422l-.063-.106h1.138l.063.106H19.78zm-4.065 0l.063-.106h1.138l-.064.106h-1.137zm4.255.42l-.063-.104h1.158l.042.105h-1.137zm-4.445 0l.043-.104h1.137l-.063.105h-1.117zm4.634.422l-.063-.105h1.159l.063.105H20.16zm-4.823 0l.042-.105h1.137l-.063.105h-1.116zm4.95.316h1.18l.042.105H20.35l-.063-.105zm-5.16.105l.062-.105h1.138l-.063.105h-1.138zm5.328.316h1.201l.063.106h-1.2l-.064-.106zm-5.518.106l.042-.106h1.137l-.063.106h-1.116zm5.708.316h1.222l.042.105h-1.2l-.064-.105zm-5.919.105l.063-.105h1.138l-.064.105h-1.137zm6.108.316h1.222l.063.105h-1.221l-.064-.105zm-6.298.105l.043-.105h1.158l-.063.105h-1.138zm6.467.316h1.264l.042.106h-1.243l-.063-.106zm-6.677.106l.063-.106h1.158l-.063.106h-1.158zm1.748 1.116h4.508l-.485-1.053h-3.56l-.463 1.053zm.653-.695l.042-.106h3.054l.064.106h-3.16zm-.19.421l.043-.105h3.412l.042.105h-3.497zm10.177-4.17C26.714 2.97 29.557 0 33.559 0c2.402 0 4.066.906 5.414 2.317l-2.128 2.022c-.884-.863-2.022-1.411-3.286-1.411-2.253 0-3.707 1.685-3.707 3.812 0 2.128 1.454 3.813 3.707 3.813 1.264 0 2.402-.548 3.286-1.411l2.065 2.022c-1.264 1.327-3.013 2.317-5.35 2.317-4.003 0-6.846-2.97-6.846-6.74zm.779 0c0 3.433 2.549 6.15 6.066 6.15 1.854 0 3.244-.59 4.424-1.685l-1.2-1.222c-.76.674-1.96 1.159-3.224 1.159-2.717 0-4.507-1.938-4.507-4.403 0-2.464 1.79-4.402 4.507-4.402 1.201 0 2.36.442 3.265 1.138l1.2-1.159C36.91 1.18 35.456.59 33.56.59c-3.517 0-6.066 2.717-6.066 6.15zM32.485.905C32.843.843 32.95.82 33.56.82v.085h-1.074zm-1.39.421l.274-.105h2.19v.105h-2.464zm-.758.421l.168-.105h3.054v.105h-3.222zm-.611.422l.168-.106h3.665v.042l-.821.064h-3.012zm-.422.42l.106-.104h2.211l-.273.105h-2.044zm-.379.422l.085-.105h1.769l-.148.105h-1.706zm-.295.421l.085-.105h1.558l-.126.105H28.63zm-.252.422l.063-.106h1.432l-.084.106h-1.411zm-.19.421l.042-.105h1.327l-.084.105h-1.285zm-.147.421l.02-.105h1.265l-.064.105h-1.221zm-.127.422l.021-.106h1.201l-.042.106h-1.18zm-.105.42l.021-.105h1.18l-.043.106H27.81zm-.063.422l.02-.105h1.16l-.043.105h-1.137zm-.042.421l.02-.105h1.138l-.02.105h-1.138zm0 .422v-.106h1.137v.106h-1.137zm.02.42l-.02-.104h1.137l.021.105h-1.137zm.043.422l-.021-.105h1.137l.042.105h-1.158zm.084.421l-.042-.105h1.158l.043.105H27.85zm.084.422l-.02-.106h1.179l.042.106h-1.2zm.127.421l-.021-.105h1.221l.064.105h-1.264zm.19.421l-.064-.105h1.306l.084.105h-1.327zm.21.422l-.063-.106h1.39l.105.106h-1.432zm.253.42l-.064-.104h1.517l.105.105h-1.558zm.316.422l-.064-.105h1.686l.126.105H29.03zm.295.316h2.064l.21.105h-2.17l-.104-.105zm.484.421h3.054c.21 0 .506.021.695.042v.064h-3.623l-.126-.106zm.59.422h3.16v.105h-3.013l-.147-.105zm.737.42h2.422v.106h-2.148l-.274-.105zm1.432.422h.99v.063h-.042l-.948-.063zm9.734-5.856c0-3.77 2.844-6.74 6.846-6.74 2.401 0 4.065.906 5.413 2.317l-2.127 2.022c-.885-.863-2.022-1.411-3.286-1.411-2.254 0-3.707 1.685-3.707 3.812 0 2.128 1.453 3.813 3.707 3.813 1.264 0 2.401-.548 3.286-1.411l2.064 2.022c-1.264 1.327-3.012 2.317-5.35 2.317-4.002 0-6.846-2.97-6.846-6.74zm.78 0c0 3.434 2.548 6.151 6.066 6.151 1.854 0 3.244-.59 4.423-1.685l-1.2-1.222c-.759.674-1.96 1.159-3.223 1.159-2.717 0-4.508-1.938-4.508-4.403 0-2.464 1.79-4.402 4.508-4.402 1.2 0 2.36.442 3.265 1.138l1.2-1.159C52.498 1.18 51.044.59 49.15.59c-3.518 0-6.066 2.717-6.066 6.15zM48.075.906c.358-.063.463-.085 1.074-.085v.085h-1.074zm-1.39.421l.273-.105h2.19v.105h-2.464zm-.759.421l.169-.105h3.054v.105h-3.223zm-.61.422l.168-.106h3.665v.042l-.822.064h-3.012zm-.422.42l.105-.104h2.212l-.274.105h-2.043zm-.38.422l.085-.105h1.77l-.148.105h-1.706zm-.294.421l.084-.105h1.559l-.126.105H44.22zm-.253.422l.063-.106h1.433l-.084.106h-1.412zm-.19.421l.043-.105h1.327l-.084.105h-1.285zm-.147.421l.021-.105h1.264l-.063.105H43.63zm-.126.422l.02-.106h1.202l-.043.106h-1.18zm-.105.42l.02-.105h1.18l-.042.106h-1.158zm-.064.422l.021-.105h1.159l-.042.105h-1.138zm-.042.421l.021-.105h1.138l-.021.105h-1.138zm0 .422v-.106h1.138v.106h-1.138zm.021.42l-.02-.104h1.137l.02.105h-1.137zm.042.422l-.02-.105h1.137l.042.105h-1.159zm.085.421l-.042-.105h1.158l.042.105h-1.158zm.084.422l-.021-.106h1.18l.042.106h-1.201zm.126.421l-.02-.105h1.22l.064.105h-1.264zm.19.421l-.063-.105h1.306l.084.105H43.84zm.21.422l-.063-.106h1.39l.106.106H44.05zm.253.42l-.063-.104h1.517l.105.105h-1.559zm.316.422l-.063-.105h1.685l.127.105H44.62zm.295.316h2.064l.211.105h-2.17l-.105-.105zm.485.421h3.054c.21 0 .505.021.695.042v.064h-3.623l-.126-.106zm.59.422h3.159v.105h-3.012l-.148-.105zm.737.42h2.422v.106H47l-.273-.105zm1.432.422h.99v.063h-.042l-.948-.063zm9.144.464L63.453 0h.548l6.193 13.06h-3.328l-.632-1.306h-4.992l-.61 1.306h-3.329zm1.095-.59h1.664l3.54-7.625h.294l3.497 7.625h1.706L63.727 1.137 58.398 12.47zm5.119-10.406l.042-.105h.295l.063.105h-.4zm-.21.422l.062-.106h.695l.043.106h-.8zm-.19.42l.042-.105h1.095l.063.106h-1.2zm-.211.422l.063-.105h1.496l.042.105h-1.601zm-.19.421l.043-.105h1.895l.063.105h-2zm-.19.422l.043-.106h2.296l.042.106h-2.38zm-.21.42l.063-.104h2.675l.064.105h-2.802zm1.917.422l-.063-.105h1.095l.042.105h-1.074zm-2.106 0l.042-.105h1.137l-.063.105h-1.116zm2.296.421l-.064-.105h1.096l.063.105h-1.095zm-2.507 0l.063-.105h1.138l-.064.105h-1.137zm2.696.422l-.063-.106h1.116l.042.106h-1.095zm-2.886 0l.043-.106h1.137l-.063.106h-1.117zm3.076.421l-.063-.105h1.116l.063.105h-1.116zm-3.286 0l.063-.105h1.137l-.063.105h-1.137zm.716 3.244h2.928l-1.433-3.18h-.042l-1.453 3.18zm2.76-2.823l-.064-.105h1.138l.042.105H64.99zm-3.666 0l.042-.105h1.138l-.063.105h-1.117zm3.855.422l-.063-.106h1.137l.063.106h-1.137zm-4.065 0l.063-.106h1.137l-.063.106h-1.137zm4.254.42l-.063-.104h1.159l.042.105H65.37zm-4.444 0l.042-.104h1.138l-.064.105h-1.116zm4.634.422l-.063-.105h1.158l.064.105H65.56zm-4.824 0l.043-.105h1.137l-.063.105h-1.117zm4.95.316h1.18l.042.105H65.75l-.064-.105zm-5.16.105l.063-.105h1.137l-.063.105h-1.137zm5.329.316h1.2l.064.106h-1.2l-.064-.106zm-5.519.106l.042-.106h1.138l-.063.106h-1.117zm5.708.316h1.222l.042.105h-1.2l-.064-.105zm-5.918.105l.063-.105h1.137l-.063.105h-1.137zm6.108.316h1.222l.063.105h-1.222l-.063-.105zm-6.298.105l.042-.105h1.159l-.064.105h-1.137zm6.467.316h1.263l.043.106h-1.243l-.063-.106zm-6.678.106l.064-.106h1.158l-.063.106h-1.159zm1.749 1.116h4.507l-.484-1.053h-3.56l-.463 1.053zm.653-.695l.042-.106h3.054l.063.106h-3.16zm-.19.421l.042-.105h3.412l.043.105h-3.497zm11.946 2.149V.42h5.287c2.717 0 4.486 1.643 4.486 4.023 0 2.212-1.116 3.455-2.99 3.918l3.411 4.698h-3.875L76.979 8.34v4.719h-3.096zm.779-.59H76.2V7.94h1.39l3.096 4.529h2.085l-3.16-4.36v-.19c2.15-.253 3.266-1.327 3.266-3.35 0-2.169-1.601-3.559-3.707-3.559h-4.508V12.47zM76.22 1.348v-.105h2.949l.99.105h-3.94zm0 .421v-.105h4.739l.169.105H76.22zm0 .422v-.106h5.37l.106.106h-5.476zM76.2 6.488V2.464h3.18c1.285 0 2.022 1.012 2.022 1.98 0 1.117-.779 2.044-1.938 2.044H76.2zm4.17-3.981h1.622l.084.105h-1.474l-.232-.105zm.611.42h1.285l.042.106h-1.18l-.147-.105zm-4.002 2.97h2.485c.696 0 1.159-.715 1.159-1.453 0-.737-.548-1.39-1.243-1.39H76.98v2.844zm4.381-2.443l-.063-.105h1.159l.042.105H81.36zm.21.422l-.062-.106h1.074v.106H81.57zm.022.421v-.105h1.053v.105h-1.053zm.021.421v-.105h1.053v.105h-1.053zm-.105.422l.02-.106h1.096v.106h-1.116zm-.169.42l.063-.104h1.18l-.042.105h-1.2zm-.295.422l.106-.105h1.306l-.064.105h-1.348zm-.505.421l.168-.105h1.538l-.084.105h-1.622zm-4.318.422v-.106h5.687l-.105.106H76.22zm0 .421v-.105h5.14l-.19.105h-4.95zm0 .421v-.105h4.107l-.548.105h-3.56zm1.706.422l-.063-.106h1.495v.106h-1.432zm.274.42l-.064-.105h1.39l.106.106h-1.432zm.295.422l-.064-.105h1.412l.084.105h-1.432zm.273.421l-.063-.105h1.433l.105.105h-1.475zm.232.316h1.453l.085.106h-1.475l-.063-.106zm.274.422h1.474l.106.105h-1.517l-.063-.105zm.295.42h1.495l.085.106h-1.517l-.063-.105zm.295.422h1.495l.106.105h-1.538l-.063-.105zm.295.421h1.516l.084.106h-1.537l-.063-.106zm.294.422h1.517l.105.105h-1.558l-.064-.105zm.295.421h1.538l.063.105h-1.537l-.064-.105zm6.09.864L92.99 0h.548l6.193 13.06h-3.328l-.632-1.306h-4.992l-.61 1.306h-3.329zm1.095-.59H89.6l3.538-7.625h.295l3.497 7.625h1.706L93.264 1.137l-5.33 11.333zm5.119-10.406l.042-.105h.295l.063.105h-.4zm-.21.422l.063-.106h.695l.042.106h-.8zm-.19.42l.042-.105h1.095l.063.106h-1.2zm-.21.422h1.6l-.042-.105h-1.496l-.063.105zm-.19.421l.042-.105h1.895l.064.105h-2.001zm-.19.422l.042-.106h2.296l.042.106h-2.38zm-.21.42l.063-.104h2.675l.063.105h-2.802zm1.916.422l-.063-.105h1.095l.042.105H93.77zm-2.106 0l.042-.105h1.137l-.063.105h-1.116zm2.296.421l-.063-.105h1.095l.063.105h-1.095zm-2.507 0l.063-.105h1.138l-.063.105h-1.138zm2.696.422l-.063-.106h1.116l.043.106h-1.096zm-2.885 0l.042-.106h1.137l-.063.106h-1.116zm3.075.421l-.063-.105h1.116l.063.105h-1.116zm-3.286 0l.063-.105h1.138l-.064.105h-1.137zm.716 3.244h2.928l-1.432-3.18h-.043l-1.453 3.18zm2.76-2.823l-.064-.105h1.138l.042.105h-1.117zm-3.666 0l.042-.105h1.138l-.063.105h-1.117zm3.855.422l-.063-.106h1.137l.063.106h-1.137zm-4.065 0l.063-.106h1.137l-.063.106h-1.137zm4.255.42l-.064-.104h1.159l.042.105h-1.137zm-4.445 0l.042-.104h1.138l-.063.105h-1.117zm4.634.422l-.063-.105h1.158l.064.105h-1.159zm-4.823 0l.042-.105h1.137l-.063.105h-1.116zm4.95.316h1.18l.041.105h-1.158l-.063-.105zm-5.161.105l.063-.105h1.138l-.064.105h-1.137zm5.33.316h1.2l.063.106h-1.2l-.064-.106zm-5.52.106l.042-.106h1.138l-.063.106h-1.117zm5.709.316h1.221l.042.105h-1.2l-.063-.105zm-5.92.105l.064-.105h1.137l-.063.105h-1.137zm6.11.316h1.22l.064.105h-1.222l-.063-.105zm-6.299.105l.042-.105h1.159l-.063.105h-1.138zm6.467.316h1.264l.042.106h-1.243l-.063-.106zm-6.678.106l.064-.106h1.158l-.063.106h-1.159zm1.749 1.116h4.507l-.484-1.053h-3.56l-.463 1.053zm.653-.695l.042-.106h3.054l.063.106h-3.16zm-.19.421l.042-.105h3.413l.042.105h-3.497zm12.304 2.149v-9.9h-2.844V.42h8.805V3.16h-2.865v9.9h-3.096zm.78-.59h1.537v-9.9h2.865V1.01h-7.246V2.57h2.843v9.9zm-2.634-11.038v-.105h6.825v.105h-6.825zm0 .422v-.106h6.825v.106h-6.825zm0 .42V2.17h6.825v.105h-6.825z" transform="translate(0 6)"/>
        <path fill="url(#d)" d="M0 13.06V.42h5.097C7.204.421 8.89 1.98 8.89 3.96c0 1.18-.485 1.917-1.37 2.59v.043c1.307.927 1.854 1.811 1.854 3.117 0 1.749-1.39 3.35-3.791 3.35H0zm.78-.59h4.802c1.917 0 3.012-1.327 3.012-2.76 0-1.095-.59-2.19-2.043-3.012V6.53C7.73 5.835 8.11 4.97 8.11 3.96c0-1.643-1.349-2.949-3.013-2.949H.78V12.47zM2.295 1.41v-.105h3.412l.38.105H2.295zm0 .4v-.105h4.381l-.02-.02.168.125H2.296zm0 .422v-.106h4.866l.084.106h-4.95zm0 3.812V2.528H4.55c1.18 0 2 .758 2 1.748 0 1.053-.82 1.77-2 1.77H2.296zM5.624 2.55h1.875l.042.105H5.856l-.232-.105zm.716.526l-.105-.105h1.453l.042.105H6.34zm-3.265 2.38H4.55c.716 0 1.221-.484 1.221-1.179 0-.653-.505-1.159-1.221-1.159H3.075v2.339zm3.497-1.98l-.042-.084h1.306v.085H6.572zm.147.422L6.7 3.79h1.179v.106H6.719zm.042.421v-.105h1.117v.105H6.76zm-.063.421l.042-.105h1.075l-.042.105H6.698zm-.126.422l.063-.106h1.032l-.063.106H6.572zm-.295.4l.105-.105h1.054l-.085.105H6.277zm-.442.421l.126-.105H7.1l-.127.105H5.835zm-3.539.421v-.105H6.53l-.148.105H2.296zm0 .422v-.106h3.981l.147.106H2.296zm0 .4V7.14h4.57l.106.084H2.296zm0 3.665V7.499H4.95c1.18 0 1.959.78 1.959 1.706 0 1.032-.78 1.685-1.959 1.685H2.296zM6.13 7.54H7.35l.106.106H6.298l-.168-.105zm.484.422H7.73l.085.105H6.719l-.105-.105zM3.075 10.3H4.95c.716 0 1.18-.421 1.18-1.095 0-.611-.464-1.116-1.18-1.116H3.075V10.3zM6.91 8.383h1.074l.063.106H6.972l-.063-.106zm.19.527l-.022-.105h1.117l.042.105H7.099zm.02.4v-.105H8.32v.105h-1.2zm-.063.421l.021-.105h1.306v.105H7.056zm-.19.422l.064-.106h1.432l-.042.106H6.867zm-.336.421l.105-.105h1.622l-.042.105H6.53zm-.632.4l.168-.084h2.001l-.042.084H5.898zm-3.602.422v-.106h5.519l-.106.106H2.296zm0 .42v-.105h5.076l-.147.106H2.296zm0 .422v-.105h4.17l-.884.105H2.296zm9.607.822L18.054 0h.548l6.192 13.06h-3.328l-.632-1.306h-4.992l-.61 1.306h-3.329zM13 12.47h1.664L18.2 4.845h.295l3.497 7.625h1.706L18.328 1.137l-5.33 11.333zm5.118-10.406l.042-.105h.295l.063.105h-.4zm-.21.422l.063-.106h.695l.042.106h-.8zm-.19.42l.042-.105h1.095l.064.106h-1.201zm-.21.422l.063-.105h1.495l.042.105h-1.6zm-.19.421l.042-.105h1.896l.063.105h-2.001zm-.19.422l.042-.106h2.296l.042.106h-2.38zm-.21.42l.063-.104h2.675l.063.105h-2.801zm1.916.422l-.063-.105h1.096l.042.105h-1.075zm-2.106 0l.042-.105h1.138l-.064.105h-1.116zm2.296.421l-.063-.105h1.095l.063.105h-1.095zm-2.507 0l.064-.105h1.137l-.063.105h-1.138zm2.697.422l-.064-.106h1.117l.042.106h-1.095zm-2.886 0l.042-.106h1.137l-.063.106h-1.116zm3.075.421l-.063-.105h1.116l.064.105h-1.117zm-3.286 0l.063-.105h1.138l-.063.105h-1.138zm.716 3.244h2.928l-1.432-3.18h-.042l-1.454 3.18zm2.76-2.823l-.063-.105h1.137l.042.105h-1.116zm-3.665 0l.042-.105h1.137l-.063.105h-1.116zm3.854.422l-.063-.106h1.138l.063.106H19.78zm-4.065 0l.063-.106h1.138l-.064.106h-1.137zm4.255.42l-.063-.104h1.158l.042.105h-1.137zm-4.445 0l.043-.104h1.137l-.063.105h-1.117zm4.634.422l-.063-.105h1.159l.063.105H20.16zm-4.823 0l.042-.105h1.137l-.063.105h-1.116zm4.95.316h1.18l.042.105H20.35l-.063-.105zm-5.16.105l.062-.105h1.138l-.063.105h-1.138zm5.328.316h1.201l.063.106h-1.2l-.064-.106zm-5.518.106l.042-.106h1.137l-.063.106h-1.116zm5.708.316h1.222l.042.105h-1.2l-.064-.105zm-5.919.105l.063-.105h1.138l-.064.105h-1.137zm6.108.316h1.222l.063.105h-1.221l-.064-.105zm-6.298.105l.043-.105h1.158l-.063.105h-1.138zm6.467.316h1.264l.042.106h-1.243l-.063-.106zm-6.677.106l.063-.106h1.158l-.063.106h-1.158zm1.748 1.116h4.508l-.485-1.053h-3.56l-.463 1.053zm.653-.695l.042-.106h3.054l.064.106h-3.16zm-.19.421l.043-.105h3.412l.042.105h-3.497zm10.177-4.17C26.714 2.97 29.557 0 33.559 0c2.402 0 4.066.906 5.414 2.317l-2.128 2.022c-.884-.863-2.022-1.411-3.286-1.411-2.253 0-3.707 1.685-3.707 3.812 0 2.128 1.454 3.813 3.707 3.813 1.264 0 2.402-.548 3.286-1.411l2.065 2.022c-1.264 1.327-3.013 2.317-5.35 2.317-4.003 0-6.846-2.97-6.846-6.74zm.779 0c0 3.433 2.549 6.15 6.066 6.15 1.854 0 3.244-.59 4.424-1.685l-1.2-1.222c-.76.674-1.96 1.159-3.224 1.159-2.717 0-4.507-1.938-4.507-4.403 0-2.464 1.79-4.402 4.507-4.402 1.201 0 2.36.442 3.265 1.138l1.2-1.159C36.91 1.18 35.456.59 33.56.59c-3.517 0-6.066 2.717-6.066 6.15zM32.485.905C32.843.843 32.95.82 33.56.82v.085h-1.074zm-1.39.421l.274-.105h2.19v.105h-2.464zm-.758.421l.168-.105h3.054v.105h-3.222zm-.611.422l.168-.106h3.665v.042l-.821.064h-3.012zm-.422.42l.106-.104h2.211l-.273.105h-2.044zm-.379.422l.085-.105h1.769l-.148.105h-1.706zm-.295.421l.085-.105h1.558l-.126.105H28.63zm-.252.422l.063-.106h1.432l-.084.106h-1.411zm-.19.421l.042-.105h1.327l-.084.105h-1.285zm-.147.421l.02-.105h1.265l-.064.105h-1.221zm-.127.422l.021-.106h1.201l-.042.106h-1.18zm-.105.42l.021-.105h1.18l-.043.106H27.81zm-.063.422l.02-.105h1.16l-.043.105h-1.137zm-.042.421l.02-.105h1.138l-.02.105h-1.138zm0 .422v-.106h1.137v.106h-1.137zm.02.42l-.02-.104h1.137l.021.105h-1.137zm.043.422l-.021-.105h1.137l.042.105h-1.158zm.084.421l-.042-.105h1.158l.043.105H27.85zm.084.422l-.02-.106h1.179l.042.106h-1.2zm.127.421l-.021-.105h1.221l.064.105h-1.264zm.19.421l-.064-.105h1.306l.084.105h-1.327zm.21.422l-.063-.106h1.39l.105.106h-1.432zm.253.42l-.064-.104h1.517l.105.105h-1.558zm.316.422l-.064-.105h1.686l.126.105H29.03zm.295.316h2.064l.21.105h-2.17l-.104-.105zm.484.421h3.054c.21 0 .506.021.695.042v.064h-3.623l-.126-.106zm.59.422h3.16v.105h-3.013l-.147-.105zm.737.42h2.422v.106h-2.148l-.274-.105zm1.432.422h.99v.063h-.042l-.948-.063zm9.734-5.856c0-3.77 2.844-6.74 6.846-6.74 2.401 0 4.065.906 5.413 2.317l-2.127 2.022c-.885-.863-2.022-1.411-3.286-1.411-2.254 0-3.707 1.685-3.707 3.812 0 2.128 1.453 3.813 3.707 3.813 1.264 0 2.401-.548 3.286-1.411l2.064 2.022c-1.264 1.327-3.012 2.317-5.35 2.317-4.002 0-6.846-2.97-6.846-6.74zm.78 0c0 3.434 2.548 6.151 6.066 6.151 1.854 0 3.244-.59 4.423-1.685l-1.2-1.222c-.759.674-1.96 1.159-3.223 1.159-2.717 0-4.508-1.938-4.508-4.403 0-2.464 1.79-4.402 4.508-4.402 1.2 0 2.36.442 3.265 1.138l1.2-1.159C52.498 1.18 51.044.59 49.15.59c-3.518 0-6.066 2.717-6.066 6.15zM48.075.906c.358-.063.463-.085 1.074-.085v.085h-1.074zm-1.39.421l.273-.105h2.19v.105h-2.464zm-.759.421l.169-.105h3.054v.105h-3.223zm-.61.422l.168-.106h3.665v.042l-.822.064h-3.012zm-.422.42l.105-.104h2.212l-.274.105h-2.043zm-.38.422l.085-.105h1.77l-.148.105h-1.706zm-.294.421l.084-.105h1.559l-.126.105H44.22zm-.253.422l.063-.106h1.433l-.084.106h-1.412zm-.19.421l.043-.105h1.327l-.084.105h-1.285zm-.147.421l.021-.105h1.264l-.063.105H43.63zm-.126.422l.02-.106h1.202l-.043.106h-1.18zm-.105.42l.02-.105h1.18l-.042.106h-1.158zm-.064.422l.021-.105h1.159l-.042.105h-1.138zm-.042.421l.021-.105h1.138l-.021.105h-1.138zm0 .422v-.106h1.138v.106h-1.138zm.021.42l-.02-.104h1.137l.02.105h-1.137zm.042.422l-.02-.105h1.137l.042.105h-1.159zm.085.421l-.042-.105h1.158l.042.105h-1.158zm.084.422l-.021-.106h1.18l.042.106h-1.201zm.126.421l-.02-.105h1.22l.064.105h-1.264zm.19.421l-.063-.105h1.306l.084.105H43.84zm.21.422l-.063-.106h1.39l.106.106H44.05zm.253.42l-.063-.104h1.517l.105.105h-1.559zm.316.422l-.063-.105h1.685l.127.105H44.62zm.295.316h2.064l.211.105h-2.17l-.105-.105zm.485.421h3.054c.21 0 .505.021.695.042v.064h-3.623l-.126-.106zm.59.422h3.159v.105h-3.012l-.148-.105zm.737.42h2.422v.106H47l-.273-.105zm1.432.422h.99v.063h-.042l-.948-.063zm9.144.464L63.453 0h.548l6.193 13.06h-3.328l-.632-1.306h-4.992l-.61 1.306h-3.329zm1.095-.59h1.664l3.54-7.625h.294l3.497 7.625h1.706L63.727 1.137 58.398 12.47zm5.119-10.406l.042-.105h.295l.063.105h-.4zm-.21.422l.062-.106h.695l.043.106h-.8zm-.19.42l.042-.105h1.095l.063.106h-1.2zm-.211.422l.063-.105h1.496l.042.105h-1.601zm-.19.421l.043-.105h1.895l.063.105h-2zm-.19.422l.043-.106h2.296l.042.106h-2.38zm-.21.42l.063-.104h2.675l.064.105h-2.802zm1.917.422l-.063-.105h1.095l.042.105h-1.074zm-2.106 0l.042-.105h1.137l-.063.105h-1.116zm2.296.421l-.064-.105h1.096l.063.105h-1.095zm-2.507 0l.063-.105h1.138l-.064.105h-1.137zm2.696.422l-.063-.106h1.116l.042.106h-1.095zm-2.886 0l.043-.106h1.137l-.063.106h-1.117zm3.076.421l-.063-.105h1.116l.063.105h-1.116zm-3.286 0l.063-.105h1.137l-.063.105h-1.137zm.716 3.244h2.928l-1.433-3.18h-.042l-1.453 3.18zm2.76-2.823l-.064-.105h1.138l.042.105H64.99zm-3.666 0l.042-.105h1.138l-.063.105h-1.117zm3.855.422l-.063-.106h1.137l.063.106h-1.137zm-4.065 0l.063-.106h1.137l-.063.106h-1.137zm4.254.42l-.063-.104h1.159l.042.105H65.37zm-4.444 0l.042-.104h1.138l-.064.105h-1.116zm4.634.422l-.063-.105h1.158l.064.105H65.56zm-4.824 0l.043-.105h1.137l-.063.105h-1.117zm4.95.316h1.18l.042.105H65.75l-.064-.105zm-5.16.105l.063-.105h1.137l-.063.105h-1.137zm5.329.316h1.2l.064.106h-1.2l-.064-.106zm-5.519.106l.042-.106h1.138l-.063.106h-1.117zm5.708.316h1.222l.042.105h-1.2l-.064-.105zm-5.918.105l.063-.105h1.137l-.063.105h-1.137zm6.108.316h1.222l.063.105h-1.222l-.063-.105zm-6.298.105l.042-.105h1.159l-.064.105h-1.137zm6.467.316h1.263l.043.106h-1.243l-.063-.106zm-6.678.106l.064-.106h1.158l-.063.106h-1.159zm1.749 1.116h4.507l-.484-1.053h-3.56l-.463 1.053zm.653-.695l.042-.106h3.054l.063.106h-3.16zm-.19.421l.042-.105h3.412l.043.105h-3.497zm11.946 2.149V.42h5.287c2.717 0 4.486 1.643 4.486 4.023 0 2.212-1.116 3.455-2.99 3.918l3.411 4.698h-3.875L76.979 8.34v4.719h-3.096zm.779-.59H76.2V7.94h1.39l3.096 4.529h2.085l-3.16-4.36v-.19c2.15-.253 3.266-1.327 3.266-3.35 0-2.169-1.601-3.559-3.707-3.559h-4.508V12.47zM76.22 1.348v-.105h2.949l.99.105h-3.94zm0 .421v-.105h4.739l.169.105H76.22zm0 .422v-.106h5.37l.106.106h-5.476zM76.2 6.488V2.464h3.18c1.285 0 2.022 1.012 2.022 1.98 0 1.117-.779 2.044-1.938 2.044H76.2zm4.17-3.981h1.622l.084.105h-1.474l-.232-.105zm.611.42h1.285l.042.106h-1.18l-.147-.105zm-4.002 2.97h2.485c.696 0 1.159-.715 1.159-1.453 0-.737-.548-1.39-1.243-1.39H76.98v2.844zm4.381-2.443l-.063-.105h1.159l.042.105H81.36zm.21.422l-.062-.106h1.074v.106H81.57zm.022.421v-.105h1.053v.105h-1.053zm.021.421v-.105h1.053v.105h-1.053zm-.105.422l.02-.106h1.096v.106h-1.116zm-.169.42l.063-.104h1.18l-.042.105h-1.2zm-.295.422l.106-.105h1.306l-.064.105h-1.348zm-.505.421l.168-.105h1.538l-.084.105h-1.622zm-4.318.422v-.106h5.687l-.105.106H76.22zm0 .421v-.105h5.14l-.19.105h-4.95zm0 .421v-.105h4.107l-.548.105h-3.56zm1.706.422l-.063-.106h1.495v.106h-1.432zm.274.42l-.064-.105h1.39l.106.106h-1.432zm.295.422l-.064-.105h1.412l.084.105h-1.432zm.273.421l-.063-.105h1.433l.105.105h-1.475zm.232.316h1.453l.085.106h-1.475l-.063-.106zm.274.422h1.474l.106.105h-1.517l-.063-.105zm.295.42h1.495l.085.106h-1.517l-.063-.105zm.295.422h1.495l.106.105h-1.538l-.063-.105zm.295.421h1.516l.084.106h-1.537l-.063-.106zm.294.422h1.517l.105.105h-1.558l-.064-.105zm.295.421h1.538l.063.105h-1.537l-.064-.105zm6.09.864L92.99 0h.548l6.193 13.06h-3.328l-.632-1.306h-4.992l-.61 1.306h-3.329zm1.095-.59H89.6l3.538-7.625h.295l3.497 7.625h1.706L93.264 1.137l-5.33 11.333zm5.119-10.406l.042-.105h.295l.063.105h-.4zm-.21.422l.063-.106h.695l.042.106h-.8zm-.19.42l.042-.105h1.095l.063.106h-1.2zm-.21.422h1.6l-.042-.105h-1.496l-.063.105zm-.19.421l.042-.105h1.895l.064.105h-2.001zm-.19.422l.042-.106h2.296l.042.106h-2.38zm-.21.42l.063-.104h2.675l.063.105h-2.802zm1.916.422l-.063-.105h1.095l.042.105H93.77zm-2.106 0l.042-.105h1.137l-.063.105h-1.116zm2.296.421l-.063-.105h1.095l.063.105h-1.095zm-2.507 0l.063-.105h1.138l-.063.105h-1.138zm2.696.422l-.063-.106h1.116l.043.106h-1.096zm-2.885 0l.042-.106h1.137l-.063.106h-1.116zm3.075.421l-.063-.105h1.116l.063.105h-1.116zm-3.286 0l.063-.105h1.138l-.064.105h-1.137zm.716 3.244h2.928l-1.432-3.18h-.043l-1.453 3.18zm2.76-2.823l-.064-.105h1.138l.042.105h-1.117zm-3.666 0l.042-.105h1.138l-.063.105h-1.117zm3.855.422l-.063-.106h1.137l.063.106h-1.137zm-4.065 0l.063-.106h1.137l-.063.106h-1.137zm4.255.42l-.064-.104h1.159l.042.105h-1.137zm-4.445 0l.042-.104h1.138l-.063.105h-1.117zm4.634.422l-.063-.105h1.158l.064.105h-1.159zm-4.823 0l.042-.105h1.137l-.063.105h-1.116zm4.95.316h1.18l.041.105h-1.158l-.063-.105zm-5.161.105l.063-.105h1.138l-.064.105h-1.137zm5.33.316h1.2l.063.106h-1.2l-.064-.106zm-5.52.106l.042-.106h1.138l-.063.106h-1.117zm5.709.316h1.221l.042.105h-1.2l-.063-.105zm-5.92.105l.064-.105h1.137l-.063.105h-1.137zm6.11.316h1.22l.064.105h-1.222l-.063-.105zm-6.299.105l.042-.105h1.159l-.063.105h-1.138zm6.467.316h1.264l.042.106h-1.243l-.063-.106zm-6.678.106l.064-.106h1.158l-.063.106h-1.159zm1.749 1.116h4.507l-.484-1.053h-3.56l-.463 1.053zm.653-.695l.042-.106h3.054l.063.106h-3.16zm-.19.421l.042-.105h3.413l.042.105h-3.497zm12.304 2.149v-9.9h-2.844V.42h8.805V3.16h-2.865v9.9h-3.096zm.78-.59h1.537v-9.9h2.865V1.01h-7.246V2.57h2.843v9.9zm-2.634-11.038v-.105h6.825v.105h-6.825zm0 .422v-.106h6.825v.106h-6.825zm0 .42V2.17h6.825v.105h-6.825z" style="mix-blend-mode:multiply" transform="translate(0 6)"/>
        <path fill="url(#e)" d="M0 13.06V.42h5.097C7.204.421 8.89 1.98 8.89 3.96c0 1.18-.485 1.917-1.37 2.59v.043c1.307.927 1.854 1.811 1.854 3.117 0 1.749-1.39 3.35-3.791 3.35H0zm.78-.59h4.802c1.917 0 3.012-1.327 3.012-2.76 0-1.095-.59-2.19-2.043-3.012V6.53C7.73 5.835 8.11 4.97 8.11 3.96c0-1.643-1.349-2.949-3.013-2.949H.78V12.47zM2.295 1.41v-.105h3.412l.38.105H2.295zm0 .4v-.105h4.381l-.02-.02.168.125H2.296zm0 .422v-.106h4.866l.084.106h-4.95zm0 3.812V2.528H4.55c1.18 0 2 .758 2 1.748 0 1.053-.82 1.77-2 1.77H2.296zM5.624 2.55h1.875l.042.105H5.856l-.232-.105zm.716.526l-.105-.105h1.453l.042.105H6.34zm-3.265 2.38H4.55c.716 0 1.221-.484 1.221-1.179 0-.653-.505-1.159-1.221-1.159H3.075v2.339zm3.497-1.98l-.042-.084h1.306v.085H6.572zm.147.422L6.7 3.79h1.179v.106H6.719zm.042.421v-.105h1.117v.105H6.76zm-.063.421l.042-.105h1.075l-.042.105H6.698zm-.126.422l.063-.106h1.032l-.063.106H6.572zm-.295.4l.105-.105h1.054l-.085.105H6.277zm-.442.421l.126-.105H7.1l-.127.105H5.835zm-3.539.421v-.105H6.53l-.148.105H2.296zm0 .422v-.106h3.981l.147.106H2.296zm0 .4V7.14h4.57l.106.084H2.296zm0 3.665V7.499H4.95c1.18 0 1.959.78 1.959 1.706 0 1.032-.78 1.685-1.959 1.685H2.296zM6.13 7.54H7.35l.106.106H6.298l-.168-.105zm.484.422H7.73l.085.105H6.719l-.105-.105zM3.075 10.3H4.95c.716 0 1.18-.421 1.18-1.095 0-.611-.464-1.116-1.18-1.116H3.075V10.3zM6.91 8.383h1.074l.063.106H6.972l-.063-.106zm.19.527l-.022-.105h1.117l.042.105H7.099zm.02.4v-.105H8.32v.105h-1.2zm-.063.421l.021-.105h1.306v.105H7.056zm-.19.422l.064-.106h1.432l-.042.106H6.867zm-.336.421l.105-.105h1.622l-.042.105H6.53zm-.632.4l.168-.084h2.001l-.042.084H5.898zm-3.602.422v-.106h5.519l-.106.106H2.296zm0 .42v-.105h5.076l-.147.106H2.296zm0 .422v-.105h4.17l-.884.105H2.296zm9.607.822L18.054 0h.548l6.192 13.06h-3.328l-.632-1.306h-4.992l-.61 1.306h-3.329zM13 12.47h1.664L18.2 4.845h.295l3.497 7.625h1.706L18.328 1.137l-5.33 11.333zm5.118-10.406l.042-.105h.295l.063.105h-.4zm-.21.422l.063-.106h.695l.042.106h-.8zm-.19.42l.042-.105h1.095l.064.106h-1.201zm-.21.422l.063-.105h1.495l.042.105h-1.6zm-.19.421l.042-.105h1.896l.063.105h-2.001zm-.19.422l.042-.106h2.296l.042.106h-2.38zm-.21.42l.063-.104h2.675l.063.105h-2.801zm1.916.422l-.063-.105h1.096l.042.105h-1.075zm-2.106 0l.042-.105h1.138l-.064.105h-1.116zm2.296.421l-.063-.105h1.095l.063.105h-1.095zm-2.507 0l.064-.105h1.137l-.063.105h-1.138zm2.697.422l-.064-.106h1.117l.042.106h-1.095zm-2.886 0l.042-.106h1.137l-.063.106h-1.116zm3.075.421l-.063-.105h1.116l.064.105h-1.117zm-3.286 0l.063-.105h1.138l-.063.105h-1.138zm.716 3.244h2.928l-1.432-3.18h-.042l-1.454 3.18zm2.76-2.823l-.063-.105h1.137l.042.105h-1.116zm-3.665 0l.042-.105h1.137l-.063.105h-1.116zm3.854.422l-.063-.106h1.138l.063.106H19.78zm-4.065 0l.063-.106h1.138l-.064.106h-1.137zm4.255.42l-.063-.104h1.158l.042.105h-1.137zm-4.445 0l.043-.104h1.137l-.063.105h-1.117zm4.634.422l-.063-.105h1.159l.063.105H20.16zm-4.823 0l.042-.105h1.137l-.063.105h-1.116zm4.95.316h1.18l.042.105H20.35l-.063-.105zm-5.16.105l.062-.105h1.138l-.063.105h-1.138zm5.328.316h1.201l.063.106h-1.2l-.064-.106zm-5.518.106l.042-.106h1.137l-.063.106h-1.116zm5.708.316h1.222l.042.105h-1.2l-.064-.105zm-5.919.105l.063-.105h1.138l-.064.105h-1.137zm6.108.316h1.222l.063.105h-1.221l-.064-.105zm-6.298.105l.043-.105h1.158l-.063.105h-1.138zm6.467.316h1.264l.042.106h-1.243l-.063-.106zm-6.677.106l.063-.106h1.158l-.063.106h-1.158zm1.748 1.116h4.508l-.485-1.053h-3.56l-.463 1.053zm.653-.695l.042-.106h3.054l.064.106h-3.16zm-.19.421l.043-.105h3.412l.042.105h-3.497zm10.177-4.17C26.714 2.97 29.557 0 33.559 0c2.402 0 4.066.906 5.414 2.317l-2.128 2.022c-.884-.863-2.022-1.411-3.286-1.411-2.253 0-3.707 1.685-3.707 3.812 0 2.128 1.454 3.813 3.707 3.813 1.264 0 2.402-.548 3.286-1.411l2.065 2.022c-1.264 1.327-3.013 2.317-5.35 2.317-4.003 0-6.846-2.97-6.846-6.74zm.779 0c0 3.433 2.549 6.15 6.066 6.15 1.854 0 3.244-.59 4.424-1.685l-1.2-1.222c-.76.674-1.96 1.159-3.224 1.159-2.717 0-4.507-1.938-4.507-4.403 0-2.464 1.79-4.402 4.507-4.402 1.201 0 2.36.442 3.265 1.138l1.2-1.159C36.91 1.18 35.456.59 33.56.59c-3.517 0-6.066 2.717-6.066 6.15zM32.485.905C32.843.843 32.95.82 33.56.82v.085h-1.074zm-1.39.421l.274-.105h2.19v.105h-2.464zm-.758.421l.168-.105h3.054v.105h-3.222zm-.611.422l.168-.106h3.665v.042l-.821.064h-3.012zm-.422.42l.106-.104h2.211l-.273.105h-2.044zm-.379.422l.085-.105h1.769l-.148.105h-1.706zm-.295.421l.085-.105h1.558l-.126.105H28.63zm-.252.422l.063-.106h1.432l-.084.106h-1.411zm-.19.421l.042-.105h1.327l-.084.105h-1.285zm-.147.421l.02-.105h1.265l-.064.105h-1.221zm-.127.422l.021-.106h1.201l-.042.106h-1.18zm-.105.42l.021-.105h1.18l-.043.106H27.81zm-.063.422l.02-.105h1.16l-.043.105h-1.137zm-.042.421l.02-.105h1.138l-.02.105h-1.138zm0 .422v-.106h1.137v.106h-1.137zm.02.42l-.02-.104h1.137l.021.105h-1.137zm.043.422l-.021-.105h1.137l.042.105h-1.158zm.084.421l-.042-.105h1.158l.043.105H27.85zm.084.422l-.02-.106h1.179l.042.106h-1.2zm.127.421l-.021-.105h1.221l.064.105h-1.264zm.19.421l-.064-.105h1.306l.084.105h-1.327zm.21.422l-.063-.106h1.39l.105.106h-1.432zm.253.42l-.064-.104h1.517l.105.105h-1.558zm.316.422l-.064-.105h1.686l.126.105H29.03zm.295.316h2.064l.21.105h-2.17l-.104-.105zm.484.421h3.054c.21 0 .506.021.695.042v.064h-3.623l-.126-.106zm.59.422h3.16v.105h-3.013l-.147-.105zm.737.42h2.422v.106h-2.148l-.274-.105zm1.432.422h.99v.063h-.042l-.948-.063zm9.734-5.856c0-3.77 2.844-6.74 6.846-6.74 2.401 0 4.065.906 5.413 2.317l-2.127 2.022c-.885-.863-2.022-1.411-3.286-1.411-2.254 0-3.707 1.685-3.707 3.812 0 2.128 1.453 3.813 3.707 3.813 1.264 0 2.401-.548 3.286-1.411l2.064 2.022c-1.264 1.327-3.012 2.317-5.35 2.317-4.002 0-6.846-2.97-6.846-6.74zm.78 0c0 3.434 2.548 6.151 6.066 6.151 1.854 0 3.244-.59 4.423-1.685l-1.2-1.222c-.759.674-1.96 1.159-3.223 1.159-2.717 0-4.508-1.938-4.508-4.403 0-2.464 1.79-4.402 4.508-4.402 1.2 0 2.36.442 3.265 1.138l1.2-1.159C52.498 1.18 51.044.59 49.15.59c-3.518 0-6.066 2.717-6.066 6.15zM48.075.906c.358-.063.463-.085 1.074-.085v.085h-1.074zm-1.39.421l.273-.105h2.19v.105h-2.464zm-.759.421l.169-.105h3.054v.105h-3.223zm-.61.422l.168-.106h3.665v.042l-.822.064h-3.012zm-.422.42l.105-.104h2.212l-.274.105h-2.043zm-.38.422l.085-.105h1.77l-.148.105h-1.706zm-.294.421l.084-.105h1.559l-.126.105H44.22zm-.253.422l.063-.106h1.433l-.084.106h-1.412zm-.19.421l.043-.105h1.327l-.084.105h-1.285zm-.147.421l.021-.105h1.264l-.063.105H43.63zm-.126.422l.02-.106h1.202l-.043.106h-1.18zm-.105.42l.02-.105h1.18l-.042.106h-1.158zm-.064.422l.021-.105h1.159l-.042.105h-1.138zm-.042.421l.021-.105h1.138l-.021.105h-1.138zm0 .422v-.106h1.138v.106h-1.138zm.021.42l-.02-.104h1.137l.02.105h-1.137zm.042.422l-.02-.105h1.137l.042.105h-1.159zm.085.421l-.042-.105h1.158l.042.105h-1.158zm.084.422l-.021-.106h1.18l.042.106h-1.201zm.126.421l-.02-.105h1.22l.064.105h-1.264zm.19.421l-.063-.105h1.306l.084.105H43.84zm.21.422l-.063-.106h1.39l.106.106H44.05zm.253.42l-.063-.104h1.517l.105.105h-1.559zm.316.422l-.063-.105h1.685l.127.105H44.62zm.295.316h2.064l.211.105h-2.17l-.105-.105zm.485.421h3.054c.21 0 .505.021.695.042v.064h-3.623l-.126-.106zm.59.422h3.159v.105h-3.012l-.148-.105zm.737.42h2.422v.106H47l-.273-.105zm1.432.422h.99v.063h-.042l-.948-.063zm9.144.464L63.453 0h.548l6.193 13.06h-3.328l-.632-1.306h-4.992l-.61 1.306h-3.329zm1.095-.59h1.664l3.54-7.625h.294l3.497 7.625h1.706L63.727 1.137 58.398 12.47zm5.119-10.406l.042-.105h.295l.063.105h-.4zm-.21.422l.062-.106h.695l.043.106h-.8zm-.19.42l.042-.105h1.095l.063.106h-1.2zm-.211.422l.063-.105h1.496l.042.105h-1.601zm-.19.421l.043-.105h1.895l.063.105h-2zm-.19.422l.043-.106h2.296l.042.106h-2.38zm-.21.42l.063-.104h2.675l.064.105h-2.802zm1.917.422l-.063-.105h1.095l.042.105h-1.074zm-2.106 0l.042-.105h1.137l-.063.105h-1.116zm2.296.421l-.064-.105h1.096l.063.105h-1.095zm-2.507 0l.063-.105h1.138l-.064.105h-1.137zm2.696.422l-.063-.106h1.116l.042.106h-1.095zm-2.886 0l.043-.106h1.137l-.063.106h-1.117zm3.076.421l-.063-.105h1.116l.063.105h-1.116zm-3.286 0l.063-.105h1.137l-.063.105h-1.137zm.716 3.244h2.928l-1.433-3.18h-.042l-1.453 3.18zm2.76-2.823l-.064-.105h1.138l.042.105H64.99zm-3.666 0l.042-.105h1.138l-.063.105h-1.117zm3.855.422l-.063-.106h1.137l.063.106h-1.137zm-4.065 0l.063-.106h1.137l-.063.106h-1.137zm4.254.42l-.063-.104h1.159l.042.105H65.37zm-4.444 0l.042-.104h1.138l-.064.105h-1.116zm4.634.422l-.063-.105h1.158l.064.105H65.56zm-4.824 0l.043-.105h1.137l-.063.105h-1.117zm4.95.316h1.18l.042.105H65.75l-.064-.105zm-5.16.105l.063-.105h1.137l-.063.105h-1.137zm5.329.316h1.2l.064.106h-1.2l-.064-.106zm-5.519.106l.042-.106h1.138l-.063.106h-1.117zm5.708.316h1.222l.042.105h-1.2l-.064-.105zm-5.918.105l.063-.105h1.137l-.063.105h-1.137zm6.108.316h1.222l.063.105h-1.222l-.063-.105zm-6.298.105l.042-.105h1.159l-.064.105h-1.137zm6.467.316h1.263l.043.106h-1.243l-.063-.106zm-6.678.106l.064-.106h1.158l-.063.106h-1.159zm1.749 1.116h4.507l-.484-1.053h-3.56l-.463 1.053zm.653-.695l.042-.106h3.054l.063.106h-3.16zm-.19.421l.042-.105h3.412l.043.105h-3.497zm11.946 2.149V.42h5.287c2.717 0 4.486 1.643 4.486 4.023 0 2.212-1.116 3.455-2.99 3.918l3.411 4.698h-3.875L76.979 8.34v4.719h-3.096zm.779-.59H76.2V7.94h1.39l3.096 4.529h2.085l-3.16-4.36v-.19c2.15-.253 3.266-1.327 3.266-3.35 0-2.169-1.601-3.559-3.707-3.559h-4.508V12.47zM76.22 1.348v-.105h2.949l.99.105h-3.94zm0 .421v-.105h4.739l.169.105H76.22zm0 .422v-.106h5.37l.106.106h-5.476zM76.2 6.488V2.464h3.18c1.285 0 2.022 1.012 2.022 1.98 0 1.117-.779 2.044-1.938 2.044H76.2zm4.17-3.981h1.622l.084.105h-1.474l-.232-.105zm.611.42h1.285l.042.106h-1.18l-.147-.105zm-4.002 2.97h2.485c.696 0 1.159-.715 1.159-1.453 0-.737-.548-1.39-1.243-1.39H76.98v2.844zm4.381-2.443l-.063-.105h1.159l.042.105H81.36zm.21.422l-.062-.106h1.074v.106H81.57zm.022.421v-.105h1.053v.105h-1.053zm.021.421v-.105h1.053v.105h-1.053zm-.105.422l.02-.106h1.096v.106h-1.116zm-.169.42l.063-.104h1.18l-.042.105h-1.2zm-.295.422l.106-.105h1.306l-.064.105h-1.348zm-.505.421l.168-.105h1.538l-.084.105h-1.622zm-4.318.422v-.106h5.687l-.105.106H76.22zm0 .421v-.105h5.14l-.19.105h-4.95zm0 .421v-.105h4.107l-.548.105h-3.56zm1.706.422l-.063-.106h1.495v.106h-1.432zm.274.42l-.064-.105h1.39l.106.106h-1.432zm.295.422l-.064-.105h1.412l.084.105h-1.432zm.273.421l-.063-.105h1.433l.105.105h-1.475zm.232.316h1.453l.085.106h-1.475l-.063-.106zm.274.422h1.474l.106.105h-1.517l-.063-.105zm.295.42h1.495l.085.106h-1.517l-.063-.105zm.295.422h1.495l.106.105h-1.538l-.063-.105zm.295.421h1.516l.084.106h-1.537l-.063-.106zm.294.422h1.517l.105.105h-1.558l-.064-.105zm.295.421h1.538l.063.105h-1.537l-.064-.105zm6.09.864L92.99 0h.548l6.193 13.06h-3.328l-.632-1.306h-4.992l-.61 1.306h-3.329zm1.095-.59H89.6l3.538-7.625h.295l3.497 7.625h1.706L93.264 1.137l-5.33 11.333zm5.119-10.406l.042-.105h.295l.063.105h-.4zm-.21.422l.063-.106h.695l.042.106h-.8zm-.19.42l.042-.105h1.095l.063.106h-1.2zm-.21.422h1.6l-.042-.105h-1.496l-.063.105zm-.19.421l.042-.105h1.895l.064.105h-2.001zm-.19.422l.042-.106h2.296l.042.106h-2.38zm-.21.42l.063-.104h2.675l.063.105h-2.802zm1.916.422l-.063-.105h1.095l.042.105H93.77zm-2.106 0l.042-.105h1.137l-.063.105h-1.116zm2.296.421l-.063-.105h1.095l.063.105h-1.095zm-2.507 0l.063-.105h1.138l-.063.105h-1.138zm2.696.422l-.063-.106h1.116l.043.106h-1.096zm-2.885 0l.042-.106h1.137l-.063.106h-1.116zm3.075.421l-.063-.105h1.116l.063.105h-1.116zm-3.286 0l.063-.105h1.138l-.064.105h-1.137zm.716 3.244h2.928l-1.432-3.18h-.043l-1.453 3.18zm2.76-2.823l-.064-.105h1.138l.042.105h-1.117zm-3.666 0l.042-.105h1.138l-.063.105h-1.117zm3.855.422l-.063-.106h1.137l.063.106h-1.137zm-4.065 0l.063-.106h1.137l-.063.106h-1.137zm4.255.42l-.064-.104h1.159l.042.105h-1.137zm-4.445 0l.042-.104h1.138l-.063.105h-1.117zm4.634.422l-.063-.105h1.158l.064.105h-1.159zm-4.823 0l.042-.105h1.137l-.063.105h-1.116zm4.95.316h1.18l.041.105h-1.158l-.063-.105zm-5.161.105l.063-.105h1.138l-.064.105h-1.137zm5.33.316h1.2l.063.106h-1.2l-.064-.106zm-5.52.106l.042-.106h1.138l-.063.106h-1.117zm5.709.316h1.221l.042.105h-1.2l-.063-.105zm-5.92.105l.064-.105h1.137l-.063.105h-1.137zm6.11.316h1.22l.064.105h-1.222l-.063-.105zm-6.299.105l.042-.105h1.159l-.063.105h-1.138zm6.467.316h1.264l.042.106h-1.243l-.063-.106zm-6.678.106l.064-.106h1.158l-.063.106h-1.159zm1.749 1.116h4.507l-.484-1.053h-3.56l-.463 1.053zm.653-.695l.042-.106h3.054l.063.106h-3.16zm-.19.421l.042-.105h3.413l.042.105h-3.497zm12.304 2.149v-9.9h-2.844V.42h8.805V3.16h-2.865v9.9h-3.096zm.78-.59h1.537v-9.9h2.865V1.01h-7.246V2.57h2.843v9.9zm-2.634-11.038v-.105h6.825v.105h-6.825zm0 .422v-.106h6.825v.106h-6.825zm0 .42V2.17h6.825v.105h-6.825z" style="mix-blend-mode:soft-light" transform="translate(0 6)"/>
    </g>
</svg>
