<svg xmlns="http://www.w3.org/2000/svg" xmlns:xlink="http://www.w3.org/1999/xlink" width="84" height="92" viewBox="0 0 84 92">
  <defs>
    <rect id="popup_img-a" width="84" height="92" x="0" y="0"/>
    <linearGradient id="popup_img-c" x1="32.49%" x2="78.248%" y1="16.528%" y2="91.489%">
      <stop offset="0%" stop-color="#FFDB9F"/>
      <stop offset="49.987%" stop-color="#9A7B46"/>
      <stop offset="100%" stop-color="#CBAA70"/>
    </linearGradient>
    <linearGradient id="popup_img-d" x1="2.068%" x2="98.844%" y1="44.987%" y2="49.941%">
      <stop offset="0%" stop-color="#E5316E"/>
      <stop offset="100%" stop-color="#FFD666"/>
    </linearGradient>
  </defs>
  <g fill="none" fill-rule="evenodd">
    <mask id="popup_img-b" fill="#fff">
      <use xlink:href="#popup_img-a"/>
    </mask>
    <g mask="url(#popup_img-b)">
      <g transform="rotate(7 35.184 38.615)">
        <path fill="url(#popup_img-c)" d="M54.2147895,9.00638009 L28.2147895,9.00638009 L47.8296984,2.21382841 C49.7005073,1.56573356 51.7712339,2.48743527 52.4385031,4.26463545 L54.2147895,9.00638009 Z M24.8722733,12.6791174 L40.5159212,82.9840265 L28.7098617,87.6791174 C27.8015276,87.3156242 27.0449338,86.5927961 26.683497,85.6128547 L3.73330965,23.4068429 C3.05557162,21.5692794 4.01536389,19.5376681 5.87787019,18.8690694 L24.8722733,12.6791174 Z"/>
        <path fill="#FFF" d="M24.1741634,38.4338573 L24.1741634,12.6337477 C24.1741634,10.6866185 25.7855092,9.10816826 27.7736112,9.10747785 L74.5720722,9.09142581 C76.5607028,9.0907354 78.1741634,10.6697034 78.1741634,12.6182135 L78.1741634,78.5644653 C78.1741634,80.5124576 76.5614077,82.0914256 74.573482,82.0914256 L27.7748447,82.0914256 C25.786919,82.0914256 24.1741634,80.5124576 24.1741634,78.5644653 L24.1741634,38.4338573 Z"/>
        <path fill="url(#popup_img-d)" d="M50.9571166,32.1100602 C47.1873993,35.9817652 42.3684294,40.927885 42.3250704,40.9641109 C40.7141293,42.439414 39.8223006,44.5037739 39.8714168,46.6328597 C39.9529174,50.2679805 42.7381507,53.3603999 46.4909561,53.9858542 C47.5875258,54.1699023 48.7209778,54.1276674 49.8053135,53.8727127 C50.1257385,53.6622249 50.5271245,53.5595563 50.9515392,53.6217069 C51.2564918,53.6217069 51.5418338,53.7037731 51.7850762,53.8466164 C52.8967587,54.1302427 54.0746491,54.1913631 55.239226,53.9982157 C55.6193822,53.935035 55.9984589,53.8466164 56.3665609,53.731243 C59.5789077,52.7239576 61.7927372,49.8796253 61.8672212,46.6531187 C61.9206554,44.5266082 61.0281069,42.4622483 59.4151868,40.9761289 C59.3757859,40.9433368 54.6516301,35.9870875 50.9571166,32.1100602"/>
        <path fill="#000" d="M60.5198338,55.1553194 C60.2416303,55.2436109 59.9479314,55.3136233 59.6501361,55.3641495 C58.6295817,55.5359041 57.5664595,55.452441 56.5770738,55.1230723 C55.288646,54.6938582 53.9159735,55.0287452 52.9940905,55.9959857 C52.0757695,56.9599497 51.8419147,58.3063954 52.3838951,59.5102296 C52.5669893,59.9177157 52.757564,60.2957137 52.9474264,60.6424994 L49.5724723,60.6424994 C49.7589505,60.3024391 49.9454288,59.9332356 50.1263858,59.5345443 C50.6703253,58.3360559 50.4435948,56.9928866 49.5348916,56.0289226 C48.6199547,55.0577159 47.2479947,54.714724 45.9554704,55.133074 C45.9511959,55.1351434 45.9344538,55.1397994 45.9296449,55.1418687 C44.9618101,55.4476126 43.9266509,55.5203841 42.9331687,55.3520784 C40.0513935,54.864923 37.9148191,52.4569098 37.8528377,49.6241661 C37.8145447,47.965941 38.5006138,46.3566901 39.734897,45.2101074 L39.7334721,45.2080381 C39.9894122,44.9560968 41.385773,43.5072192 51.4162384,33.0541586 C61.2155207,43.4930788 62.5917553,44.9542 62.855354,45.2175225 L62.8533949,45.2195918 C64.0924869,46.3761763 64.7790903,47.9880138 64.73866,49.6445145 C64.6816657,52.1556495 62.984838,54.370525 60.5198338,55.1553194 M53.2112032,29.8491074 C52.7582765,29.3667805 52.1126377,29.087938 51.4385018,29.0839717 L51.4258562,29.0839717 C50.7567073,29.0839717 50.1123153,29.3552267 49.656717,29.8294488 C44.8873613,34.801365 37.7192573,42.2685513 37.2469169,42.7507057 C35.3133847,44.5613717 34.2392199,47.0921653 34.2983515,49.6990069 C34.3964886,54.1697998 37.7714427,57.9737502 42.320836,58.7430246 C43.7693822,58.9887578 45.2756351,58.9087436 46.700493,58.5126389 C45.8621422,60.2162169 44.954864,61.1039605 44.9285041,61.1296547 C44.4109244,61.6152581 44.2488469,62.3569413 44.5172545,63.0049873 C44.7879775,63.6571719 45.4405624,64.0839717 46.1661713,64.0839717 L56.348206,64.0839717 C57.0725682,64.0839717 57.7263998,63.6602759 57.9978353,63.0110228 C58.269805,62.3609075 58.1091523,61.6180172 57.5880105,61.1308618 C57.5782146,61.1215498 56.6591813,60.2294951 55.8138843,58.499878 C57.2554843,58.9140894 58.7840006,59.003588 60.2617564,58.7544059 C60.7264382,58.6762886 61.1841738,58.5657518 61.6260579,58.4264167 C65.524291,57.1861968 68.2028458,53.6867831 68.2933243,49.7233216 C68.3572648,47.1237226 67.2864841,44.5937912 65.3545548,42.7715715 C64.8417841,42.235442 57.5183706,34.4376798 53.2112032,29.8491074"/>
        <path fill="#000" d="M22.5476335,53.5887148 L22.5476335,73.6315925 L3.63947873,22.2385177 C3.29282277,21.2955734 3.78666226,20.2491735 4.73983411,19.9057147 L22.5476335,13.4933802 L22.5476335,39.1451565 L22.5476335,53.5887148 Z M26.0619045,39.1451565 L26.0619045,13.111082 C26.0619045,12.1075273 26.8872591,11.291203 27.9015227,11.2905063 L74.6571194,11.2748312 L74.6578236,11.2748312 C75.1495504,11.2748312 75.6109955,11.4639774 75.9588838,11.8076104 C76.306244,12.1510692 76.498146,12.6082596 76.498146,13.0947102 L76.498146,79.6396836 C76.498146,80.6432382 75.6722633,81.4602592 74.6578236,81.4602592 L27.9022269,81.4602592 C26.8879633,81.4602592 26.0619045,80.6439349 26.0619045,79.6396836 L26.0619045,53.5887148 L26.0619045,39.1451565 Z M29.0053992,85.8600852 C28.5439542,86.0260671 28.0439527,86.0049928 27.599057,85.7994748 C27.1589148,85.5967435 26.8245829,85.2383063 26.654688,84.7899984 C27.0557455,84.885094 27.4724721,84.9368219 27.9022269,84.9368219 L37.9010242,83.1986276 L29.0053992,85.8600852 Z M48.7010563,4.03798657 C49.1667267,3.86921801 49.6686648,3.89098898 50.1170817,4.09929363 C50.5654985,4.30812077 50.9031755,4.67683392 51.0683169,5.138901 L52.0214887,7.79687521 L38.318455,7.79687521 L48.7010563,4.03798657 Z M78.4430461,9.34870996 C77.4323037,8.34863868 76.0875814,7.79826855 74.6578236,7.79826855 L74.6557109,7.79826855 L55.7523097,7.80506109 L54.3802986,3.97685369 C53.8989591,2.63384608 52.9162097,1.560276 51.6128608,0.953998017 C50.3089836,0.347197535 48.8468314,0.282581296 47.4934823,0.773037713 L28.0474738,7.81394365 L27.9002903,7.81394365 C26.4731734,7.81464032 25.1761625,8.37110632 24.2154202,9.27538534 C24.0448211,9.28409372 23.8729896,9.31683726 23.7037989,9.37797015 L3.53701363,16.6393725 C2.19387584,17.1230363 1.12098533,18.0952408 0.516582122,19.3783347 C-0.0872929121,20.6602094 -0.151201553,22.0990093 0.338412579,23.4284318 L23.344819,85.9614508 C24.1356664,88.1099843 26.1939472,89.4468961 28.3816297,89.4468961 C28.9881456,89.4468961 29.6050489,89.3434404 30.2075154,89.1271241 L41.8445219,84.9368219 L74.6578236,84.9368219 C77.6101211,84.9368219 80.012417,82.5611736 80.012417,79.6396836 L80.012417,13.0954069 C80.012417,11.6795971 79.4546689,10.3494779 78.4430461,9.34870996 L78.4430461,9.34870996 Z"/>
      </g>
    </g>
  </g>
</svg>
