<svg xmlns="http://www.w3.org/2000/svg" width="26" height="26" viewBox="0 0 26 26">
    <path fill="#FF1E1E" fill-rule="evenodd" d="M12.415 17.508l-3.79-7.159a.664.664 0 0 1 .147-.73.626.626 0 0 1 .722-.11h7.013a.626.626 0 0 1 .72.11c.195.188.253.48.148.73l-3.79 7.16c-.201.478-.969.478-1.17 0zM12.238 26C5.707 25.617.383 20.293 0 13.762h3.136c.372 4.852 4.25 8.73 9.102 9.102V26zM26 13.762C25.617 20.293 20.293 25.617 13.762 26v-3.136c4.852-.372 8.73-4.25 9.102-9.102H26zM13.762 0C20.293.383 25.617 5.707 26 12.238h-3.136c-.372-4.852-4.25-8.73-9.102-9.102V0zm-1.524 3.136c-4.852.372-8.73 4.25-9.102 9.102H0C.383 5.707 5.707.383 12.238 0v3.136z"/>
</svg>
