<svg xmlns="http://www.w3.org/2000/svg" width="110" height="26" viewBox="0 0 110 26">
    <defs>
        <filter id="a" width="114.7%" height="166.7%" x="-7.4%" y="-33.3%" filterUnits="objectBoundingBox">
            <feGaussianBlur in="SourceGraphic" stdDeviation="2"/>
        </filter>
        <filter id="b" width="107.4%" height="133.3%" x="-3.7%" y="-16.7%" filterUnits="objectBoundingBox">
            <feGaussianBlur in="SourceGraphic" stdDeviation="1"/>
        </filter>
    </defs>
    <g fill="none" fill-rule="evenodd">
        <path fill="#96A5FF" d="M25.376 1.078l5.155 15.218c.193.448.052.768-.102.953-.14.167-.402.366-.847.366h-2.314c-.549 0-.945-.307-1.115-.867l-.677-1.947a.71.71 0 0 0-.042-.095 1.602 1.602 0 0 0-.1-.003h-5.172c-.061 0-.121.011-.185.138l-.608 1.913c-.117.544-.535.861-1.168.861h-2.287c-.482 0-.733-.208-.861-.385-.128-.177-.248-.485-.086-.94l4.055-12.055c.172-.52.597-.804 1.194-.804h1.852c.537 0 .938.269 1.155.778l2.415 7.5H19.83l1.641-5.074a.52.52 0 0 1 .25-.327.506.506 0 0 1 .407-.03.49.49 0 0 1 .31.256c.067.133.067.289.003.461l-1.159 3.597h2.904L22.234 4.53c-.029-.064-.067-.09-.166-.09h-1.852c-.143 0-.15.031-.159.068l-4.095 12.042 2.24.006c.141 0 .15-.033.159-.07l.603-2.03c.257-.55.665-.814 1.198-.814h5.173c.587 0 .992.29 1.143.819l.651 2.002c.018.071.023.093.139.093h2.242L24.378 1.457a.227.227 0 0 0-.038-.092.23.23 0 0 0-.121-.031H21.25a.29.29 0 0 0-.124.04l-.02.117-.435 1.198a.526.526 0 0 1-.249.338.504.504 0 0 1-.401.035c-.296-.09-.433-.358-.354-.68l.415-1.276C20.312.568 20.712.3 21.25.3h2.968c.539 0 .938.268 1.157.778zM12.172 6.993a5.446 5.446 0 0 1 1.862 1.977c.498.9.75 1.88.75 2.914 0 .803-.141 1.56-.42 2.252a5.521 5.521 0 0 1-2.986 3.045 5.746 5.746 0 0 1-2.243.435H1.103C.402 17.616 0 17.214 0 16.513V4.397c0-.338.093-.614.275-.822.195-.222.472-.335.828-.335h6.126c.618 0 1.134.203 1.534.604.4.399.603.915.603 1.533 0 .302-.06.588-.18.85-.113.245-.25.47-.412.67l-.178.182H4.288l-.04 1.757 4.451.04c.892 0 1.602.27 2.111.799.505.525.761 1.224.761 2.073 0 .854-.262 1.548-.78 2.065-.518.519-1.222.78-2.092.78h-4.41c-.702 0-1.103-.392-1.103-1.075v-2.45c0-.334.213-.559.53-.559.318 0 .531.225.531.558v2.45l4.452.042c.581 0 1.018-.157 1.337-.482.318-.328.474-.763.474-1.329 0-1.25-.559-1.81-1.811-1.81h-4.41c-.333 0-.604-.11-.807-.324a1.106 1.106 0 0 1-.296-.778V7.12c0-.684.401-1.076 1.102-1.076H8.12c.142-.21.211-.429.211-.667 0-.321-.094-.565-.285-.743-.2-.187-.467-.278-.817-.278H1.103l-.041 12.157 8.073.04c.66 0 1.28-.118 1.843-.353a4.558 4.558 0 0 0 1.47-.976c.409-.409.731-.907.959-1.477.227-.574.343-1.2.343-1.863 0-.913-.222-1.746-.66-2.479-.438-.734-1.064-1.328-1.86-1.77l-.564-.208.223-.352c.205-.326.364-.637.473-.932a2.85 2.85 0 0 0 .155-.984c0-.53-.105-1.033-.31-1.495a3.407 3.407 0 0 0-.88-1.188C9.567 1.75 8.53 1.388 7.23 1.388H1.103l-.041.912c0 .297-.218.504-.531.504C.219 2.804 0 2.597 0 2.3v-.924C0 1.07.095.812.282.612.475.405.752.3 1.102.3H7.23c.765 0 1.484.127 2.136.377.653.25 1.22.593 1.688 1.02.487.448.866.97 1.128 1.555.264.586.398 1.229.398 1.908 0 .65-.136 1.266-.407 1.834zm68.144 6.485c.45 0 .696.186.822.343.17.205.255.48.255.814v1.906c0 .672-.403 1.075-1.077 1.075h-8.495c-.7 0-1.102-.392-1.102-1.075V1.43c0-.701.403-1.103 1.102-1.103h8.413c.657 0 1.049.413 1.049 1.103v1.96c0 .297-.09.558-.269.774a.972.972 0 0 1-.78.355h-5.268v5.297l.001.04h4.668l.041-.017V7.937l-.001-.019-3.933.004c-.334 0-.558-.212-.558-.53 0-.318.224-.53.558-.53h3.893a1.3 1.3 0 0 1 .409.072.85.85 0 0 1 .36.224.71.71 0 0 1 .262.37c.049.15.073.281.073.41v1.878a1.1 1.1 0 0 1-.318.811c-.042.064-.184.19-.43.232-.13.021-.248.032-.356.032h-4.627c-.32 0-.577-.083-.768-.246-.194-.195-.28-.459-.28-.83V3.432h6.274l.014-2.001-8.427-.04-.04 15.15 8.535.042.014-1.947c0-.068-.011-.093-.011-.093l-6.36.025v-2.901c0-.807 1.007-.807 1.007 0v1.812h5.35zm-13.123-2.75h2.26c.743 0 .93.404.974.646.057.298.03.617-.08.945a8.362 8.362 0 0 1-3.252 4.166 9.144 9.144 0 0 1-2.389 1.116 9.216 9.216 0 0 1-2.686.396 8.808 8.808 0 0 1-3.526-.708 9.138 9.138 0 0 1-2.827-1.91 8.961 8.961 0 0 1-2.59-6.353c0-1.628.301-3.02.896-4.136.598-1.118 1.374-1.989 2.31-2.59a6.73 6.73 0 0 1 3.108-1.046 8.196 8.196 0 0 1 3.281.384 7.695 7.695 0 0 1 2.877 1.737c.798.753 1.403 1.686 1.804 2.778h2.03v-.051c-.17-.644-.502-1.273-.985-1.872a9.89 9.89 0 0 0-1.605-1.607 8.005 8.005 0 0 0-2.213-1.157 7.989 7.989 0 0 0-2.56-.404c-.312 0-.53-.207-.53-.504 0-.263.163-.465.436-.544L62.02 0a8.92 8.92 0 0 1 2.873.467 9.45 9.45 0 0 1 2.5 1.286c.753.546 1.378 1.158 1.859 1.818.484.666.863 1.46 1.127 2.364.106.348.076.628-.093.83a.801.801 0 0 1-.435.368 1.382 1.382 0 0 1-.398.055h-2.837l-.184-.594c-.356-1-.912-1.855-1.647-2.532a6.69 6.69 0 0 0-2.487-1.465 6.954 6.954 0 0 0-2.832-.298 5.89 5.89 0 0 0-2.64.914c-.789.51-1.446 1.25-1.951 2.201-.508.954-.764 2.169-.764 3.612 0 1.092.205 2.127.612 3.08a7.928 7.928 0 0 0 1.684 2.507 7.926 7.926 0 0 0 2.507 1.682c1.652.705 3.688.805 5.487.274a7.87 7.87 0 0 0 2.1-.967 7.47 7.47 0 0 0 1.694-1.537 6.951 6.951 0 0 0 1.155-2.076l.038-.145h-2.195c-.065 0-.125.01-.188.13a8.271 8.271 0 0 1-.313.554 4.731 4.731 0 0 1-2.024 1.79 6.247 6.247 0 0 1-2.648.575c-1.262 0-2.334-.294-3.187-.875-.845-.577-1.488-1.308-1.911-2.174a6.336 6.336 0 0 1-.633-2.805c0-1 .214-1.944.633-2.804.423-.866 1.066-1.597 1.911-2.173.854-.582 1.925-.876 3.187-.876.44 0 .613.253.613.503s-.173.504-.558.504c-1.106 0-1.984.237-2.667.704a4.545 4.545 0 0 0-1.56 1.774 5.245 5.245 0 0 0-.524 2.327c0 .834.175 1.616.524 2.328a4.556 4.556 0 0 0 1.56 1.776c.683.465 1.561.702 2.612.702.75 0 1.477-.142 2.158-.423a3.32 3.32 0 0 0 1.56-1.275 2.2 2.2 0 0 0 .177-.33c.072-.164.153-.315.244-.456.105-.165.237-.303.39-.409.177-.122.394-.184.644-.184zM42.677 1.01a8.084 8.084 0 0 1 2.656 1.861 8.617 8.617 0 0 1 1.73 2.764 9.24 9.24 0 0 1 .623 3.39c0 1.184-.21 2.307-.624 3.34a8.524 8.524 0 0 1-1.73 2.723 8.202 8.202 0 0 1-2.656 1.846c-1.027.453-2.167.682-3.39.682h-6.345c-.286 0-.53-.09-.72-.267-.199-.185-.301-.457-.301-.809V4.533c0-.346.098-.62.291-.811.19-.19.443-.291.73-.291h6.345c.824 0 1.573.143 2.23.422.658.281 1.23.679 1.695 1.185a5.12 5.12 0 0 1 1.066 1.792 6.61 6.61 0 0 1 .36 2.196c0 .762-.122 1.486-.361 2.156a5.008 5.008 0 0 1-1.066 1.766 5.139 5.139 0 0 1-1.691 1.181c-.656.29-1.408.437-2.233.437h-3.104c-.305 0-.577-.109-.785-.317-.211-.21-.317-.484-.317-.813V5.758c0-.311.217-.53.53-.53.318 0 .531.213.531.53v7.678l3.145.041c.66 0 1.265-.114 1.8-.34a4.06 4.06 0 0 0 1.37-.93c.375-.39.666-.86.868-1.395.201-.54.305-1.141.305-1.786 0-.665-.104-1.279-.306-1.829a4.03 4.03 0 0 0-.866-1.407 4.08 4.08 0 0 0-1.371-.93 4.614 4.614 0 0 0-1.8-.34h-6.33v12.02l6.33.041c1.09 0 2.093-.2 2.979-.596a7.249 7.249 0 0 0 2.314-1.626 7.362 7.362 0 0 0 1.51-2.394 8.062 8.062 0 0 0 .535-2.94 8.25 8.25 0 0 0-.535-2.98 7.48 7.48 0 0 0-1.511-2.422 7.142 7.142 0 0 0-2.313-1.638c-.886-.395-1.89-.596-2.979-.596h-6.345l.015 1.238c0 .772-1.036.77-1.036 0V1.43c0-.345.098-.619.291-.812.19-.19.443-.29.73-.29h6.345c1.223 0 2.363.23 3.391.683zM49.36.327h2.097c.701 0 1.103.402 1.103 1.103v15.11c0 .684-.402 1.076-1.103 1.076h-2.097c-.673 0-1.075-.403-1.075-1.075v-1.58c0-.77 1.007-.77 1.007 0v1.58l2.165.04.014-15.151c0-.05-.009-.068-.009-.07l-2.102.029-.068 11.966.314.041c.385 0 .558.253.558.504 0 .25-.173.503-.558.503h-.246c-.673 0-1.075-.392-1.075-1.048V1.43c0-.701.392-1.103 1.075-1.103z" filter="url(#a)" transform="translate(14 4)"/>
        <path fill="#252D4A" d="M25.376 1.078l5.155 15.218c.193.448.052.768-.102.953-.14.167-.402.366-.847.366h-2.314c-.549 0-.945-.307-1.115-.867l-.677-1.947a.71.71 0 0 0-.042-.095 1.602 1.602 0 0 0-.1-.003h-5.172c-.061 0-.121.011-.185.138l-.608 1.913c-.117.544-.535.861-1.168.861h-2.287c-.482 0-.733-.208-.861-.385-.128-.177-.248-.485-.086-.94l4.055-12.055c.172-.52.597-.804 1.194-.804h1.852c.537 0 .938.269 1.155.778l2.415 7.5H19.83l1.641-5.074a.52.52 0 0 1 .25-.327.506.506 0 0 1 .407-.03.49.49 0 0 1 .31.256c.067.133.067.289.003.461l-1.159 3.597h2.904L22.234 4.53c-.029-.064-.067-.09-.166-.09h-1.852c-.143 0-.15.031-.159.068l-4.095 12.042 2.24.006c.141 0 .15-.033.159-.07l.603-2.03c.257-.55.665-.814 1.198-.814h5.173c.587 0 .992.29 1.143.819l.651 2.002c.018.071.023.093.139.093h2.242L24.378 1.457a.227.227 0 0 0-.038-.092.23.23 0 0 0-.121-.031H21.25a.29.29 0 0 0-.124.04l-.02.117-.435 1.198a.526.526 0 0 1-.249.338.504.504 0 0 1-.401.035c-.296-.09-.433-.358-.354-.68l.415-1.276C20.312.568 20.712.3 21.25.3h2.968c.539 0 .938.268 1.157.778zM12.172 6.993a5.446 5.446 0 0 1 1.862 1.977c.498.9.75 1.88.75 2.914 0 .803-.141 1.56-.42 2.252a5.521 5.521 0 0 1-2.986 3.045 5.746 5.746 0 0 1-2.243.435H1.103C.402 17.616 0 17.214 0 16.513V4.397c0-.338.093-.614.275-.822.195-.222.472-.335.828-.335h6.126c.618 0 1.134.203 1.534.604.4.399.603.915.603 1.533 0 .302-.06.588-.18.85-.113.245-.25.47-.412.67l-.178.182H4.288l-.04 1.757 4.451.04c.892 0 1.602.27 2.111.799.505.525.761 1.224.761 2.073 0 .854-.262 1.548-.78 2.065-.518.519-1.222.78-2.092.78h-4.41c-.702 0-1.103-.392-1.103-1.075v-2.45c0-.334.213-.559.53-.559.318 0 .531.225.531.558v2.45l4.452.042c.581 0 1.018-.157 1.337-.482.318-.328.474-.763.474-1.329 0-1.25-.559-1.81-1.811-1.81h-4.41c-.333 0-.604-.11-.807-.324a1.106 1.106 0 0 1-.296-.778V7.12c0-.684.401-1.076 1.102-1.076H8.12c.142-.21.211-.429.211-.667 0-.321-.094-.565-.285-.743-.2-.187-.467-.278-.817-.278H1.103l-.041 12.157 8.073.04c.66 0 1.28-.118 1.843-.353a4.558 4.558 0 0 0 1.47-.976c.409-.409.731-.907.959-1.477.227-.574.343-1.2.343-1.863 0-.913-.222-1.746-.66-2.479-.438-.734-1.064-1.328-1.86-1.77l-.564-.208.223-.352c.205-.326.364-.637.473-.932a2.85 2.85 0 0 0 .155-.984c0-.53-.105-1.033-.31-1.495a3.407 3.407 0 0 0-.88-1.188C9.567 1.75 8.53 1.388 7.23 1.388H1.103l-.041.912c0 .297-.218.504-.531.504C.219 2.804 0 2.597 0 2.3v-.924C0 1.07.095.812.282.612.475.405.752.3 1.102.3H7.23c.765 0 1.484.127 2.136.377.653.25 1.22.593 1.688 1.02.487.448.866.97 1.128 1.555.264.586.398 1.229.398 1.908 0 .65-.136 1.266-.407 1.834zm68.966 6.828c.17.205.255.48.255.814v1.906c0 .672-.403 1.075-1.077 1.075h-8.495c-.7 0-1.102-.392-1.102-1.075V1.43c0-.701.403-1.103 1.102-1.103h8.413c.657 0 1.049.413 1.049 1.103v1.96c0 .297-.09.558-.269.774a.972.972 0 0 1-.78.355h-5.268v5.297l.001.04h4.668l.041-.017V7.937l-.001-.019-3.933.004c-.334 0-.558-.212-.558-.53 0-.318.224-.53.558-.53h3.893a1.3 1.3 0 0 1 .409.072.85.85 0 0 1 .36.224.71.71 0 0 1 .262.37c.049.15.073.281.073.41v1.878a1.1 1.1 0 0 1-.318.811c-.042.064-.184.19-.43.232-.13.021-.248.032-.356.032h-4.627c-.32 0-.577-.083-.768-.246-.194-.195-.28-.459-.28-.83V3.432h6.274l.014-2.001-8.427-.04-.04 15.15 8.535.042.014-1.947c0-.068-.011-.093-.011-.093l-6.36.025v-2.901c0-.807 1.007-.807 1.007 0v1.812h5.35c.45 0 .696.186.822.343zm-11.685-3.094c.743 0 .93.405.974.647.057.298.03.617-.08.945a8.362 8.362 0 0 1-3.252 4.166 9.144 9.144 0 0 1-2.389 1.116 9.216 9.216 0 0 1-2.686.396 8.808 8.808 0 0 1-3.526-.708 9.138 9.138 0 0 1-2.827-1.91 8.961 8.961 0 0 1-2.59-6.353c0-1.628.301-3.02.896-4.136.598-1.118 1.374-1.989 2.31-2.59a6.73 6.73 0 0 1 3.108-1.046 8.196 8.196 0 0 1 3.281.384 7.695 7.695 0 0 1 2.877 1.737c.798.753 1.403 1.686 1.804 2.778h2.03v-.051c-.17-.644-.502-1.273-.985-1.872a9.89 9.89 0 0 0-1.605-1.607 8.005 8.005 0 0 0-2.213-1.157 7.989 7.989 0 0 0-2.56-.404c-.312 0-.53-.207-.53-.504 0-.263.163-.465.436-.544L62.02 0a8.92 8.92 0 0 1 2.873.467 9.45 9.45 0 0 1 2.5 1.286c.753.546 1.378 1.158 1.859 1.818.484.666.863 1.46 1.127 2.364.106.348.076.628-.093.83a.801.801 0 0 1-.435.368 1.382 1.382 0 0 1-.398.055h-2.837l-.184-.594c-.356-1-.912-1.855-1.647-2.532a6.69 6.69 0 0 0-2.487-1.465 6.954 6.954 0 0 0-2.832-.298 5.89 5.89 0 0 0-2.64.914c-.789.51-1.446 1.25-1.951 2.201-.508.954-.764 2.169-.764 3.612 0 1.092.205 2.127.612 3.08a7.928 7.928 0 0 0 1.684 2.507 7.926 7.926 0 0 0 2.507 1.682c1.652.705 3.688.805 5.487.274a7.87 7.87 0 0 0 2.1-.967 7.47 7.47 0 0 0 1.694-1.537 6.951 6.951 0 0 0 1.155-2.076l.038-.145h-2.195c-.065 0-.125.01-.188.13a8.271 8.271 0 0 1-.313.554 4.731 4.731 0 0 1-2.024 1.79 6.247 6.247 0 0 1-2.648.575c-1.262 0-2.334-.294-3.187-.875-.845-.577-1.488-1.308-1.911-2.174a6.336 6.336 0 0 1-.633-2.805c0-1 .214-1.944.633-2.804.423-.866 1.066-1.597 1.911-2.173.854-.582 1.925-.876 3.187-.876.44 0 .613.253.613.503s-.173.504-.558.504c-1.106 0-1.984.237-2.667.704a4.545 4.545 0 0 0-1.56 1.774 5.245 5.245 0 0 0-.524 2.327c0 .834.175 1.616.524 2.328a4.556 4.556 0 0 0 1.56 1.776c.683.465 1.561.702 2.612.702.75 0 1.477-.142 2.158-.423a3.32 3.32 0 0 0 1.56-1.275 2.2 2.2 0 0 0 .177-.33c.072-.164.153-.315.244-.456.105-.165.237-.303.39-.409.177-.122.394-.184.644-.184h2.26zm-24.12-7.856a8.617 8.617 0 0 1 1.73 2.764 9.24 9.24 0 0 1 .623 3.39c0 1.184-.21 2.307-.624 3.34a8.524 8.524 0 0 1-1.73 2.723 8.202 8.202 0 0 1-2.656 1.846c-1.027.453-2.167.682-3.39.682h-6.345c-.286 0-.53-.09-.72-.267-.199-.185-.301-.457-.301-.809V4.533c0-.346.098-.62.291-.811.19-.19.443-.291.73-.291h6.345c.824 0 1.573.143 2.23.422.658.281 1.23.679 1.695 1.185a5.12 5.12 0 0 1 1.066 1.792 6.61 6.61 0 0 1 .36 2.196c0 .762-.122 1.486-.361 2.156a5.008 5.008 0 0 1-1.066 1.766 5.139 5.139 0 0 1-1.691 1.181c-.656.29-1.408.437-2.233.437h-3.104c-.305 0-.577-.109-.785-.317-.211-.21-.317-.484-.317-.813V5.758c0-.311.217-.53.53-.53.318 0 .531.213.531.53v7.678l3.145.041c.66 0 1.265-.114 1.8-.34a4.06 4.06 0 0 0 1.37-.93c.375-.39.666-.86.868-1.395.201-.54.305-1.141.305-1.786 0-.665-.104-1.279-.306-1.829a4.03 4.03 0 0 0-.866-1.407 4.08 4.08 0 0 0-1.371-.93 4.614 4.614 0 0 0-1.8-.34h-6.33v12.02l6.33.041c1.09 0 2.093-.2 2.979-.596a7.249 7.249 0 0 0 2.314-1.626 7.362 7.362 0 0 0 1.51-2.394 8.062 8.062 0 0 0 .535-2.94 8.25 8.25 0 0 0-.535-2.98 7.48 7.48 0 0 0-1.511-2.422 7.142 7.142 0 0 0-2.313-1.638c-.886-.395-1.89-.596-2.979-.596h-6.345l.015 1.238c0 .772-1.036.77-1.036 0V1.43c0-.345.098-.619.291-.812.19-.19.443-.29.73-.29h6.345c1.223 0 2.363.23 3.391.683a8.084 8.084 0 0 1 2.656 1.861zM51.456.327c.701 0 1.103.402 1.103 1.103v15.11c0 .684-.402 1.076-1.103 1.076h-2.097c-.673 0-1.075-.403-1.075-1.075v-1.58c0-.77 1.007-.77 1.007 0v1.58l2.165.04.014-15.151c0-.05-.009-.068-.009-.07l-2.102.029-.068 11.966.314.041c.385 0 .558.253.558.504 0 .25-.173.503-.558.503h-.246c-.673 0-1.075-.392-1.075-1.048V1.43c0-.701.392-1.103 1.075-1.103h2.097z" filter="url(#b)" transform="translate(14 4)"/>
        <path fill="#FFE4A9" d="M39.376 5.078l5.155 15.218c.193.448.052.768-.102.953-.14.167-.402.366-.847.366h-2.314c-.549 0-.945-.307-1.115-.867l-.677-1.947a.71.71 0 0 0-.042-.095 1.602 1.602 0 0 0-.1-.003h-5.172c-.061 0-.121.011-.185.138l-.608 1.913c-.117.544-.535.861-1.168.861h-2.287c-.482 0-.733-.208-.861-.385-.128-.177-.248-.485-.086-.94l4.055-12.055c.172-.52.597-.804 1.194-.804h1.852c.537 0 .938.269 1.155.778l2.415 7.5H33.83l1.641-5.074a.52.52 0 0 1 .25-.327.506.506 0 0 1 .407-.03.49.49 0 0 1 .31.256c.067.133.067.289.003.461l-1.159 3.597h2.904L36.234 8.53c-.029-.064-.067-.09-.166-.09h-1.852c-.143 0-.15.031-.159.068l-4.095 12.042 2.24.006c.141 0 .15-.033.159-.07l.603-2.03c.257-.55.665-.814 1.198-.814h5.173c.587 0 .992.29 1.143.819l.651 2.002c.018.071.023.093.139.093h2.242L38.378 5.457a.227.227 0 0 0-.038-.092.23.23 0 0 0-.121-.031H35.25a.29.29 0 0 0-.124.04l-.02.117-.435 1.198a.526.526 0 0 1-.249.338.504.504 0 0 1-.401.035c-.296-.09-.433-.358-.354-.68l.415-1.276c.229-.538.629-.806 1.168-.806h2.968c.539 0 .938.268 1.157.778zm-13.204 5.915a5.446 5.446 0 0 1 1.862 1.977c.498.9.75 1.88.75 2.914 0 .803-.141 1.56-.42 2.252a5.521 5.521 0 0 1-2.986 3.045 5.746 5.746 0 0 1-2.243.435h-8.032c-.701 0-1.103-.402-1.103-1.103V8.397c0-.338.093-.614.275-.822.195-.222.472-.335.828-.335h6.126c.618 0 1.134.203 1.534.604.4.399.603.915.603 1.533 0 .302-.06.588-.18.85-.113.245-.25.47-.412.67l-.178.182h-4.308l-.04 1.757 4.451.04c.892 0 1.602.27 2.111.799.505.525.761 1.224.761 2.073 0 .854-.262 1.548-.78 2.065-.518.519-1.222.78-2.092.78h-4.41c-.702 0-1.103-.392-1.103-1.075v-2.45c0-.334.213-.559.53-.559.318 0 .531.225.531.558v2.45l4.452.042c.581 0 1.018-.157 1.337-.482.318-.328.474-.763.474-1.329 0-1.25-.559-1.81-1.811-1.81h-4.41c-.333 0-.604-.11-.807-.324a1.106 1.106 0 0 1-.296-.778V11.12c0-.684.401-1.076 1.102-1.076h3.832c.142-.21.211-.429.211-.667 0-.321-.094-.565-.285-.743-.2-.187-.467-.278-.817-.278h-6.126l-.041 12.157 8.073.04c.66 0 1.28-.118 1.843-.353a4.558 4.558 0 0 0 1.47-.976c.409-.409.731-.907.959-1.477.227-.574.343-1.2.343-1.863 0-.913-.222-1.746-.66-2.479-.438-.734-1.064-1.328-1.86-1.77l-.564-.208.223-.352c.205-.326.364-.637.473-.932a2.85 2.85 0 0 0 .155-.984c0-.53-.105-1.033-.31-1.495a3.407 3.407 0 0 0-.88-1.188c-.76-.726-1.798-1.088-3.098-1.088h-6.126l-.041.912c0 .297-.218.504-.531.504-.312 0-.531-.207-.531-.504v-.924c0-.306.095-.564.282-.764.193-.207.47-.313.82-.313h6.127c.765 0 1.484.127 2.136.377.653.25 1.22.593 1.688 1.02.487.448.866.97 1.128 1.555.264.586.398 1.229.398 1.908 0 .65-.136 1.266-.407 1.834z"/>
        <path fill="#FFF" d="M95.138 17.82c.17.206.255.481.255.815v1.906c0 .672-.403 1.075-1.077 1.075h-8.495c-.7 0-1.102-.392-1.102-1.075V5.43c0-.701.403-1.103 1.102-1.103h8.413c.657 0 1.049.413 1.049 1.103v1.96c0 .297-.09.558-.269.774a.972.972 0 0 1-.78.355h-5.268v5.297l.001.04h4.668l.041-.017v-1.902l-.001-.019-3.933.004c-.334 0-.558-.212-.558-.53 0-.318.224-.53.558-.53h3.893a1.3 1.3 0 0 1 .409.072.85.85 0 0 1 .36.224.71.71 0 0 1 .262.37c.049.15.073.281.073.41v1.878a1.1 1.1 0 0 1-.318.811c-.042.064-.184.19-.43.232-.13.021-.248.032-.356.032h-4.627c-.32 0-.577-.083-.768-.246-.194-.195-.28-.459-.28-.83V7.432h6.274l.014-2.001-8.427-.04-.04 15.15 8.535.042.014-1.947c0-.068-.011-.093-.011-.093l-6.36.025v-2.901c0-.807 1.007-.807 1.007 0v1.812h5.35c.45 0 .696.186.822.343zm-11.685-3.093c.743 0 .93.405.974.647.057.298.03.617-.08.945a8.362 8.362 0 0 1-3.252 4.166 9.144 9.144 0 0 1-2.389 1.116 9.216 9.216 0 0 1-2.686.396 8.808 8.808 0 0 1-3.526-.708 9.138 9.138 0 0 1-2.827-1.91 8.961 8.961 0 0 1-2.59-6.353c0-1.628.301-3.02.896-4.136.598-1.118 1.374-1.989 2.31-2.59a6.73 6.73 0 0 1 3.108-1.046 8.196 8.196 0 0 1 3.281.384 7.695 7.695 0 0 1 2.877 1.737c.798.753 1.403 1.686 1.804 2.778h2.03v-.051c-.17-.644-.502-1.273-.985-1.872a9.89 9.89 0 0 0-1.605-1.607 8.005 8.005 0 0 0-2.213-1.157 7.989 7.989 0 0 0-2.56-.404c-.312 0-.53-.207-.53-.504 0-.263.163-.465.436-.544L76.02 4a8.92 8.92 0 0 1 2.873.467 9.45 9.45 0 0 1 2.5 1.286c.753.546 1.378 1.158 1.859 1.818.484.666.863 1.46 1.127 2.364.106.348.076.628-.093.83a.801.801 0 0 1-.435.368 1.382 1.382 0 0 1-.398.055h-2.837l-.184-.594c-.356-1-.912-1.855-1.647-2.532a6.69 6.69 0 0 0-2.487-1.465 6.954 6.954 0 0 0-2.832-.298 5.89 5.89 0 0 0-2.64.914c-.789.51-1.446 1.25-1.951 2.201-.508.954-.764 2.169-.764 3.612 0 1.092.205 2.127.612 3.08a7.928 7.928 0 0 0 1.684 2.507 7.926 7.926 0 0 0 2.507 1.682c1.652.705 3.688.805 5.487.274a7.87 7.87 0 0 0 2.1-.967 7.47 7.47 0 0 0 1.694-1.537 6.951 6.951 0 0 0 1.155-2.076l.038-.145h-2.195c-.065 0-.125.01-.188.13a8.271 8.271 0 0 1-.313.554 4.731 4.731 0 0 1-2.024 1.79 6.247 6.247 0 0 1-2.648.575c-1.262 0-2.334-.294-3.187-.875-.845-.577-1.488-1.308-1.911-2.174a6.336 6.336 0 0 1-.633-2.805c0-1 .214-1.944.633-2.804.423-.866 1.066-1.597 1.911-2.173.854-.582 1.925-.876 3.187-.876.44 0 .613.253.613.503s-.173.504-.558.504c-1.106 0-1.984.237-2.667.704a4.545 4.545 0 0 0-1.56 1.774 5.245 5.245 0 0 0-.524 2.327c0 .834.175 1.616.524 2.328a4.556 4.556 0 0 0 1.56 1.776c.683.465 1.561.702 2.612.702.75 0 1.477-.142 2.158-.423a3.32 3.32 0 0 0 1.56-1.275 2.2 2.2 0 0 0 .177-.33c.072-.164.153-.315.244-.456.105-.165.237-.303.39-.409.177-.122.394-.184.644-.184h2.26zm-24.12-7.856a8.617 8.617 0 0 1 1.73 2.764 9.24 9.24 0 0 1 .623 3.39c0 1.184-.21 2.307-.624 3.34a8.524 8.524 0 0 1-1.73 2.723 8.202 8.202 0 0 1-2.656 1.846c-1.027.453-2.167.682-3.39.682h-6.345c-.286 0-.53-.09-.72-.267-.199-.185-.301-.457-.301-.809V8.533c0-.346.098-.62.291-.811.19-.19.443-.291.73-.291h6.345c.824 0 1.573.143 2.23.422.658.281 1.23.679 1.695 1.185a5.12 5.12 0 0 1 1.066 1.792 6.61 6.61 0 0 1 .36 2.196c0 .762-.122 1.486-.361 2.156a5.008 5.008 0 0 1-1.066 1.766 5.139 5.139 0 0 1-1.691 1.181c-.656.29-1.408.437-2.233.437h-3.104c-.305 0-.577-.109-.785-.317-.211-.21-.317-.484-.317-.813V9.758c0-.311.217-.53.53-.53.318 0 .531.213.531.53v7.678l3.145.041c.66 0 1.265-.114 1.8-.34a4.06 4.06 0 0 0 1.37-.93c.375-.39.666-.86.868-1.395.201-.54.305-1.141.305-1.786 0-.665-.104-1.279-.306-1.829a4.03 4.03 0 0 0-.866-1.407 4.08 4.08 0 0 0-1.371-.93 4.614 4.614 0 0 0-1.8-.34h-6.33v12.02l6.33.041c1.09 0 2.093-.2 2.979-.596a7.249 7.249 0 0 0 2.314-1.626 7.362 7.362 0 0 0 1.51-2.394 8.062 8.062 0 0 0 .535-2.94 8.25 8.25 0 0 0-.535-2.98 7.48 7.48 0 0 0-1.511-2.422 7.142 7.142 0 0 0-2.313-1.638c-.886-.395-1.89-.596-2.979-.596h-6.345l.015 1.238c0 .772-1.036.77-1.036 0V5.43c0-.345.098-.619.291-.812.19-.19.443-.29.73-.29h6.345c1.223 0 2.363.23 3.391.683a8.084 8.084 0 0 1 2.656 1.861zm6.123-2.544c.701 0 1.103.402 1.103 1.103v15.11c0 .684-.402 1.076-1.103 1.076h-2.097c-.673 0-1.075-.403-1.075-1.075v-1.58c0-.77 1.007-.77 1.007 0v1.58l2.165.04.014-15.151c0-.05-.009-.068-.009-.07l-2.102.029-.068 11.966.314.041c.385 0 .558.253.558.504 0 .25-.173.503-.558.503h-.246c-.673 0-1.075-.392-1.075-1.048V5.43c0-.701.392-1.103 1.075-1.103h2.097z"/>
    </g>
</svg>
